<?xml version="1.0" encoding="UTF-8" standalone="no"?>
<svg
   viewBox="0 0 109.23304 204.82406"
   version="1.1"
   xml:space="preserve"
   id="svg53959"
   sodipodi:docname="livre.svg"
   width="109.23304"
   height="204.82407"
   inkscape:version="1.2.2 (b0a8486541, 2022-12-01)"
   xmlns:inkscape="http://www.inkscape.org/namespaces/inkscape"
   xmlns:sodipodi="http://sodipodi.sourceforge.net/DTD/sodipodi-0.dtd"
   xmlns="http://www.w3.org/2000/svg"
   xmlns:svg="http://www.w3.org/2000/svg"><sodipodi:namedview
     id="namedview53961"
     pagecolor="#ffffff"
     bordercolor="#000000"
     borderopacity="0.25"
     inkscape:showpageshadow="2"
     inkscape:pageopacity="0.0"
     inkscape:pagecheckerboard="0"
     inkscape:deskcolor="#d1d1d1"
     showgrid="false"
     inkscape:zoom="3.9165443"
     inkscape:cx="1.7872899"
     inkscape:cy="123.57833"
     inkscape:window-width="1920"
     inkscape:window-height="1011"
     inkscape:window-x="0"
     inkscape:window-y="32"
     inkscape:window-maximized="1"
     inkscape:current-layer="g822" /><defs
     id="defs2"><rect
       x="3227.6987"
       y="-1522.4642"
       width="345.03348"
       height="564.47821"
       id="rect12993-4-7-0-6-7" /><rect
       x="3227.6987"
       y="-1522.4642"
       width="345.03348"
       height="564.47821"
       id="rect12993-4-5-8-6-1-8" /><rect
       x="3982.0613"
       y="-4235.5996"
       width="285.36591"
       height="176.42744"
       id="rect133174-2" /></defs><g
     id="layer1"
     transform="translate(-925.06839,1168.0407)"><g
       id="g822"><rect
         style="fill:#ffffff;fill-opacity:1;stroke:#000000;stroke-width:0.540691;stroke-linecap:square;stroke-linejoin:bevel;paint-order:markers fill stroke;stop-color:#000000"
         id="rect996-3-5-8-3-6-9-9-8"
         width="103.35903"
         height="170"
         x="976.01215"
         y="-853.04138"
         transform="matrix(0.95782629,-0.28734789,0,1,0,0)" /><path
         style="fill:#000000;fill-opacity:1;stroke-width:0.999998"
         d="m 995.2927,-1033.7481 0.23707,-0.1801 0.0319,-0.151 0.0318,-0.151 0.004,-0.6869 0.004,-0.6867 -0.0656,-0.073 -0.0656,-0.073 0.16796,-0.2574 0.16795,-0.2573 0.008,-0.2657 0.008,-0.2656 -0.0448,-0.095 -0.0448,-0.095 -0.099,-0.2204 -0.0991,-0.2203 -0.0332,-0.022 -0.0331,-0.022 -0.1417,-0.2242 -0.14172,-0.2242 -0.16237,0.039 -0.16237,0.049 -0.15486,-0.025 -0.15486,-0.024 -0.25078,0.014 -0.25081,0.014 -0.52492,0.1034 -0.52492,0.1035 -0.14769,-0.024 -0.14769,-0.024 -0.0547,-0.1739 -0.0547,-0.1738 0.0112,-0.4758 0.0112,-0.4756 -0.0546,-0.048 -0.0546,-0.048 -0.0363,-0.8028 -0.0363,-0.8027 -0.0513,-0.1471 -0.0512,-0.147 0.0461,-0.4432 0.0462,-0.443 -0.0793,-0.3315 -0.0793,-0.3314 -0.0489,-0.3576 -0.0489,-0.3574 0.002,-1.2228 0.002,-1.2227 -0.0255,-0.041 -0.0255,-0.041 -0.0181,-0.7637 -0.0181,-0.7637 -0.0293,-0.3319 -0.0292,-0.3318 0.0518,-0.4775 0.0518,-0.4774 -0.0234,-0.148 -0.0234,-0.1482 -0.008,-0.7158 -0.008,-0.7158 -0.0517,-0.1484 -0.0517,-0.1485 -0.0513,0.015 -0.0514,0.015 0.0386,-0.6128 0.0386,-0.6128 -0.0435,-0.6061 -0.0435,-0.606 -0.0148,-0.7065 -0.0149,-0.7064 0.0127,-0.1579 0.0127,-0.1579 0.0207,-1.1485 0.0208,-1.1487 -0.0437,-0.4461 -0.0437,-0.4461 -0.0582,-0.065 -0.0582,-0.065 0.0419,-0.25 0.0419,-0.25 -0.0848,-0.056 -0.0848,-0.057 0.006,-0.2713 0.006,-0.2713 -0.0547,-0.2796 -0.0547,-0.2794 -0.0689,-0.2903 -0.0692,-0.2902 -0.026,-0.3945 -0.026,-0.3945 0.003,-0.6186 0.003,-0.6185 -0.0456,-0.9143 -0.0456,-0.9144 -0.0489,-0.2957 -0.0489,-0.2956 -0.0185,-0.3349 -0.0186,-0.3347 -0.0694,-0.599 -0.0694,-0.599 -0.0398,-0.6007 -0.0398,-0.6008 -0.0215,-0.034 -0.0215,-0.035 -0.0209,-0.5779 -0.0211,-0.5779 -0.0894,-0.6863 -0.0896,-0.6861 -0.0231,-0.3645 -0.023,-0.3644 -0.0792,-0.2875 -0.0792,-0.2874 -0.0452,-0.1776 -0.0452,-0.1774 0.003,-0.123 0.003,-0.123 -0.0533,-0.046 -0.0533,-0.046 0.0481,-0.284 0.0481,-0.284 0.0642,-0.041 0.0642,-0.041 0.0354,0.1945 0.0353,0.1945 0.11622,0.2774 0.11622,0.2775 0.0389,0.113 0.0389,0.113 0.0644,0.2915 0.0644,0.2915 0.0764,0.319 0.0764,0.3191 0.0495,0.5118 0.0495,0.5117 0.0576,0.1697 0.0575,0.1698 0.0621,0.1686 0.0621,0.1684 0.0545,0.2016 0.0545,0.2014 0.0319,0.2614 0.0319,0.2615 0.14885,0.4927 0.14885,0.4929 0.1052,0.4039 0.10521,0.4041 0.0515,0.1 0.0515,0.1 0.0712,0.5155 0.0711,0.5157 0.10411,0.1677 0.1041,0.1677 0.0679,0.4962 0.0679,0.4962 0.0999,0.2509 0.0999,0.2511 0.0575,0.3241 0.0575,0.3243 0.0441,0.1116 0.0442,0.1116 0.12687,0.3981 0.12687,0.3982 0.0834,0.4098 0.0834,0.4099 0.10547,0.182 0.10546,0.1819 0.0643,0.2072 0.0643,0.2073 0.23105,0.29 0.23104,0.2899 0.0767,-0.023 0.0767,-0.023 0.0989,0.081 0.0989,0.081 0.15976,0.069 0.15978,0.069 0.0964,0.01 0.0964,0.01 -9e-4,0.055 -9e-4,0.055 0.42147,-0.1145 0.42102,-0.1143 0.17044,-0.2308 0.17044,-0.2309 -0.0347,-0.055 -0.0347,-0.056 0.0692,-0.1088 0.0693,-0.1088 0.12815,-0.038 0.12807,-0.038 0.12479,0.1459 0.12481,0.1459 0.21137,0.01 0.21129,0.01 0.12987,-0.1 0.12978,-0.1 0.0657,-0.15 0.0657,-0.1499 0.0297,-0.3787 0.0297,-0.3788 0.0612,-0.1801 0.0612,-0.1802 -0.0252,-0.021 -0.0243,-0.022 v -1.3216 -1.3217 -0.6795 -0.6796 l -0.0459,-0.6671 -0.0459,-0.6673 -0.0423,-0.4518 -0.0432,-0.4516 -0.0702,-0.3563 -0.0702,-0.3561 -0.0621,-0.119 -0.0621,-0.1189 0.0306,-0.062 0.0306,-0.062 -0.0765,-0.2409 -0.0765,-0.2407 0.009,-0.2087 0.009,-0.2087 -0.10863,-0.3179 -0.10863,-0.318 -0.007,-0.5334 -0.007,-0.5333 -0.10376,-0.3735 -0.10378,-0.3734 0.008,-0.3616 0.008,-0.3615 -0.048,-0.092 -0.048,-0.092 -0.0129,-0.8297 -0.0129,-0.8296 -0.039,-0.4836 -0.039,-0.4837 -0.0281,-0.5485 -0.0281,-0.5484 -0.0659,-0.1057 -0.0659,-0.1057 -0.0632,-0.2301 -0.0632,-0.2299 -0.0544,-0.064 -0.0544,-0.064 0.0339,-0.046 0.0338,-0.046 -0.1009,-0.2898 -0.10091,-0.2897 0.003,-0.1104 0.003,-0.1104 -0.10913,-0.3241 -0.10914,-0.3241 -0.0849,-0.5113 -0.0849,-0.5111 -0.0871,-0.1202 -0.0871,-0.1202 0.003,-0.1259 0.003,-0.126 -0.20863,-0.4687 -0.20863,-0.4686 0.002,-0.1051 0.002,-0.1052 -0.102,-0.053 -0.102,-0.053 -0.13656,-0.3693 -0.13656,-0.3692 0.002,-0.084 0.002,-0.083 -0.25223,-0.3688 -0.25223,-0.3687 -0.14349,-0.1773 -0.14351,-0.1774 -0.0784,-0.3188 -0.0784,-0.3187 -0.49427,-0.453 -0.49427,-0.4528 -0.14289,-0.2146 -0.14286,-0.2147 -0.21523,-0.1671 -0.2152,-0.1671 -0.23262,-0.061 -0.23262,-0.061 -0.0806,0.024 -0.0807,0.024 -0.0329,-0.053 -0.0329,-0.053 -0.10732,0.032 -0.1072,0.032 -0.34432,-0.056 -0.34433,-0.056 -0.38564,-0.035 -0.38564,-0.036 -0.30535,0.072 -0.30535,0.072 -0.48924,0.065 -0.48926,0.065 -0.0634,-0.041 -0.0634,-0.041 -0.29061,0.035 -0.29062,0.035 -0.0297,-0.048 -0.0298,-0.048 -0.16014,0.038 -0.16014,0.048 -0.0311,-0.05 -0.031,-0.05 -0.24441,0.025 -0.24441,0.025 -0.08,-0.08 -0.08,-0.08 0.0661,-0.7056 0.0661,-0.7054 0.10842,-0.8245 0.10842,-0.8245 -0.002,-0.1231 -0.002,-0.1231 0.0724,-0.2778 0.0724,-0.2778 0.25238,-0.044 0.25237,-0.044 0.52708,-0.1091 0.52705,-0.1091 0.55727,-0.2192 0.55728,-0.2192 0.0806,-0.066 0.0807,-0.066 0.0583,-0.1145 0.0583,-0.1145 -0.0964,-0.2264 -0.0964,-0.2263 -0.0491,0.014 -0.0491,0.014 -0.10207,-0.2544 -0.10207,-0.2542 -0.0625,0.059 -0.0625,0.059 0.0247,-0.1221 0.0247,-0.1221 -0.11099,-0.093 -0.11098,-0.093 -0.21078,-0.4285 -0.21077,-0.4286 -0.35605,-0.3447 -0.35603,-0.3447 -0.12764,-0.218 -0.12762,-0.218 -0.14645,-0.2157 -0.14646,-0.2156 -0.17848,-0.053 -0.17849,-0.053 -0.13552,-0.1067 -0.13551,-0.1067 -0.52341,-0.1674 -0.52337,-0.1675 -0.13552,0.013 -0.13548,0.013 -0.13741,-0.026 -0.13743,-0.026 -0.35806,-0.034 -0.35805,-0.035 -0.49848,0.068 -0.49849,0.068 -0.44485,0.1194 -0.44487,0.1195 -0.35006,0.171 -0.35006,0.171 -0.031,0.062 -0.0311,0.062 -0.16183,0.038 -0.16184,0.049 -0.29701,0.238 -0.29704,0.238 -0.19728,0.1724 -0.19728,0.1723 -0.4888,0.5992 -0.48881,0.5992 -0.0795,0.1895 -0.0795,0.1894 -0.0831,0.1306 -0.0831,0.1306 0.0488,-0.014 0.0488,-0.014 -0.11713,0.1211 -0.11712,0.1212 -0.1032,0.3647 -0.10319,0.3648 -0.11032,0.1382 -0.1102,0.1381 -0.002,0.071 -0.002,0.071 -0.16951,0.2598 -0.16948,0.2598 -0.004,0.086 -0.004,0.086 -0.20751,0.7127 -0.2075,0.7129 -0.0683,0.397 -0.0682,0.397 0.0528,0.1518 0.0528,0.1517 -0.005,0.217 -0.005,0.217 -0.1414,0.261 -0.14142,0.261 0.0547,0.1048 0.0547,0.1046 -0.0374,0.1603 -0.0373,0.1603 0.0487,0.5259 0.0487,0.5259 -0.009,0.3172 -0.009,0.3171 -0.0714,0.3225 -0.0714,0.3225 -0.003,0.3561 -0.003,0.356 -0.2495,0.1964 -0.2495,0.1963 -0.0672,0.1052 -0.0673,0.1052 -0.0463,0.013 -0.0463,0.013 -0.49613,0.4465 -0.4961,0.4464 -0.24212,0.3222 -0.24212,0.3223 -0.0333,0.1168 -0.0333,0.1166 -0.10289,0.064 -0.1029,0.064 -0.1461,0.2692 -0.14613,0.2694 -0.16181,0.2291 -0.16181,0.2292 -0.142,0.3628 -0.14199,0.3627 -0.104,0.1302 -0.10399,0.1301 -0.003,0.1113 -0.003,0.1111 -0.0594,0.057 -0.0594,0.057 0.0309,0.1711 0.0309,0.1711 -0.081,0.024 -0.081,0.024 -0.0489,0.214 -0.0489,0.2141 -0.0107,0.076 -0.0107,0.076 -0.0425,0.057 -0.0425,0.057 -0.003,0.1139 -0.003,0.1139 -0.0693,0.02 -0.0693,0.02 -0.13005,0.2498 -0.13013,0.2499 -0.007,0.2962 -0.007,0.2963 -0.0964,0.335 -0.0964,0.335 -0.0337,0.4108 -0.0338,0.4107 -0.0165,0.2052 -0.0165,0.2053 -0.0729,0.022 -0.0729,0.022 0.009,0.1675 0.009,0.1674 -0.0489,0.2141 -0.0489,0.2139 -0.0423,0.012 -0.0414,0.012 -0.0318,0.3638 -0.0318,0.3639 -0.10019,0.2388 -0.10011,0.2388 0.0298,0.1036 0.0289,0.1037 -0.0953,0.4026 -0.0953,0.4025 -0.004,0.1381 -0.004,0.138 0.0673,0.064 0.0673,0.064 -0.0699,0.047 -0.0699,0.047 -0.003,0.1211 -0.003,0.1212 -0.0918,0.2546 -0.0927,0.2548 -0.0271,0.3162 -0.0271,0.3162 -0.0635,0.2301 -0.0635,0.23 0.0527,0.227 0.0527,0.2271 -0.10197,0.253 -0.10205,0.2531 -0.0374,0.7515 -0.0373,0.7514 -0.033,0.7195 -0.033,0.7194 -0.10821,0.3558 -0.10823,0.3558 0.0142,0.4998 0.0142,0.4998 -0.10193,0.3168 -0.10194,0.3169 0.0195,0.3114 0.0195,0.3114 -0.0687,0.1076 -0.0687,0.1076 0.0513,0.2154 0.0513,0.2153 -0.0566,0.1262 -0.0557,0.1258 -0.005,0.2092 -0.005,0.2091 -0.0619,0.085 -0.0619,0.085 0.0769,0.4537 0.077,0.4538 -0.0474,0.1163 -0.0483,0.1165 0.006,0.6779 0.006,0.6779 0.0369,0.4843 0.0369,0.4842 0.0182,0.4067 0.0191,0.4064 0.0548,0.2532 0.0557,0.2529 0.0401,0.3834 0.0401,0.3835 -0.0328,0.065 -0.0329,0.065 0.0627,0.069 0.0627,0.069 0.0145,0.4108 0.0145,0.4108 0.0784,0.1627 0.0784,0.1629 0.0453,0.5093 0.0462,0.5092 0.0812,0.236 0.0812,0.2362 0.0727,0.175 0.0728,0.1749 -0.002,0.06 -0.002,0.06 0.16255,0.1505 0.16256,0.1505 0.1965,-0.049 0.19685,-0.049 0.23027,-0.2011 0.23028,-0.2014 0.24835,-0.3311 0.24835,-0.3311 h 0.12474 l 0.12459,-0.01 0.26064,-0.033 0.26063,-0.033 0.24041,-0.2074 0.24042,-0.2075 0.0714,-0.1125 0.0714,-0.1124 0.0421,-0.2208 0.0421,-0.2209 0.11566,-0.347 0.11566,-0.3469 0.034,-0.1328 0.0339,-0.1328 0.0441,-0.073 0.0442,-0.074 0.0688,-0.3893 0.0688,-0.3893 0.0334,-0.4724 0.0334,-0.4724 0.11825,-0.4336 0.11822,-0.4336 0.0717,-0.3283 0.0716,-0.3283 0.0314,-0.3594 0.0313,-0.3594 0.0426,-0.3093 0.0426,-0.3094 0.0488,-0.1367 0.0488,-0.1368 0.0754,-0.3912 0.0754,-0.391 0.0524,-0.1532 0.0524,-0.1532 0.11746,-0.035 0.11746,-0.035 -0.0342,0.3337 -0.0342,0.3335 -0.0758,0.3251 -0.0758,0.325 0.0527,0.2991 0.0528,0.2989 -0.028,1.0018 -0.028,1.0018 0.0584,0.1119 0.0584,0.1119 -0.0656,0.4946 -0.0656,0.4944 0.0303,0.2448 0.0303,0.2448 0.0974,0.068 0.0974,0.068 -0.0618,0.3257 -0.0618,0.3256 0.0279,0.3631 0.0279,0.3632 0.003,0.1597 0.003,0.1597 0.0717,0.08 0.0717,0.08 -0.0417,0.1465 -0.0417,0.1466 -0.0115,0.5659 -0.0115,0.5658 0.008,0.06 0.008,0.06 -0.0145,0.1985 -0.0145,0.1985 0.0584,0.025 0.0583,0.025 -0.005,0.1675 -0.005,0.1674 -0.0527,0.1029 -0.0527,0.1028 0.069,0.1394 0.069,0.1395 0.0313,0.3109 0.0313,0.3109 0.0145,0.3871 0.0144,0.3872 0.0212,0.2723 0.0211,0.2723 0.009,0.1983 0.009,0.1984 0.0348,-0.01 0.0348,-0.01 -0.01,0.4814 -0.01,0.4813 0.0753,0.4121 0.0753,0.412 0.0292,0.2084 0.0292,0.2084 0.008,0.6083 0.008,0.6084 0.0611,0.068 0.0611,0.068 -0.0693,0.021 -0.0693,0.021 0.0309,0.1894 0.0309,0.1894 0.0515,0.022 0.0515,0.022 -0.0232,0.3092 -0.0232,0.3092 0.0695,0.1447 0.0696,0.1446 0.0133,0.3969 0.0133,0.3969 0.0822,0.2694 0.0822,0.2693 -0.004,0.1378 -0.004,0.1378 -0.0409,-0.064 -0.041,-0.064 -0.02,0.3233 -0.0199,0.3234 0.0611,0.026 0.0611,0.027 0.0149,0.3588 0.0149,0.3588 0.008,0.1677 0.008,0.1677 0.0478,-0.013 0.0477,-0.013 -0.0335,0.1 -0.0335,0.1001 0.0586,0.025 0.0584,0.025 -0.0339,0.2444 -0.0339,0.2443 0.0349,0.031 0.0349,0.031 0.009,0.2858 0.009,0.2859 -8e-4,0.1855 -0.003,0.1861 -0.0258,0.4846 -0.0257,0.4844 0.0903,0.09 0.0902,0.09 -0.002,0.094 -0.002,0.093 -0.0428,0.058 -0.0427,0.058 -0.02,0.3864 -0.02,0.3865 -0.0382,0.2265 -0.0382,0.2266 -0.0475,1.0745 -0.0476,1.0746 -0.0594,0.2518 -0.0595,0.2518 -0.005,0.839 -0.005,0.8389 0.06,0.115 0.06,0.1151 -0.003,0.097 -0.003,0.097 0.1911,0.038 0.1911,0.038 0.0984,-0.029 0.0985,-0.03 0.26064,-0.01 0.26065,-0.01 0.34899,-0.091 0.34896,-0.091 0.14973,-0.027 0.1497,-0.027 0.0676,0.059 0.0676,0.059 0.16942,-0.041 0.16944,-0.041 0.10572,0.062 0.10571,0.062 0.17069,-0.051 0.17075,-0.041 0.30184,0.044 0.30185,0.044 0.34767,-0.075 0.34766,-0.074 0.0353,0.03 0.0353,0.03 0.28245,-0.075 0.28242,-0.075 0.33182,-0.023 0.33182,-0.024 0.71875,-0.2046 0.71875,-0.2037 0.17279,-0.1438 0.17281,-0.1438 0.0287,-0.047 0.0287,-0.047 0.15535,-0.1502 0.15537,-0.1501 0.005,-0.2314 0.005,-0.2315 -0.0795,-0.2565 -0.0795,-0.2565 -0.16153,-0.1895 -0.16153,-0.1896 0.0206,-0.112 0.0206,-0.112 0.27962,-0.1729 0.27961,-0.1729 0.10824,-0.2682 0.10824,-0.2682 -0.0821,-0.1803 -0.0821,-0.1805 -0.22968,-0.1017 -0.22967,-0.1018 -0.10933,-0.087 -0.10933,-0.086 -0.0366,0.01 -0.0366,0.01 -0.44854,-0.2184 -0.44854,-0.2184 -0.0797,0.024 -0.0797,0.024 0.002,-0.062 0.002,-0.062 -0.12496,0.027 -0.12497,0.027 -0.10571,-0.062 -0.10573,-0.062 -0.15418,0.036 -0.15418,0.046 -0.19148,-0.051 -0.19149,-0.051 -0.0334,-0.089 -0.0334,-0.089 -0.0148,-0.4903 -0.0148,-0.4902 0.0756,-0.422 0.0756,-0.4221 0.0472,-1.1557 0.0472,-1.1557 0.0368,-0.163 0.0368,-0.163 0.0419,-0.4453 0.042,-0.4453 0.004,-0.2172 0.004,-0.2171 0.0688,-0.7601 0.0688,-0.76 0.10536,-0.6048 0.10534,-0.6047 -0.0534,-0.2322 -0.0534,-0.2323 0.13355,-0.092 0.13357,-0.092 0.009,-0.174 0.009,-0.1739 -0.005,-0.2305 -0.005,-0.2304 0.0598,-0.018 0.0598,-0.018 0.0146,-0.5446 0.0146,-0.5445 0.0889,-0.6727 0.0889,-0.6728 -0.0212,-0.039 -0.0212,-0.039 0.092,-0.5059 0.092,-0.5059 0.0786,-0.6082 0.0787,-0.6082 0.035,-0.3184 0.035,-0.3184 0.0266,-0.347 0.0265,-0.3469 0.0679,-0.3891 0.0679,-0.3891 0.0412,-0.5981 0.0412,-0.598 0.0837,-0.4496 0.0836,-0.4497 0.0954,-0.042 0.0954,-0.042 0.005,0.1941 0.005,0.1941 -0.0162,0.1764 -0.0162,0.1765 0.0864,0.2988 0.0864,0.2987 0.0473,0.046 0.0473,0.046 -0.004,0.1664 -0.004,0.1664 0.074,0.05 0.074,0.05 0.0251,0.2966 0.0251,0.2964 0.1258,0.4191 0.12581,0.4189 0.0293,0.267 0.0293,0.267 0.0472,0.053 0.0472,0.053 0.0502,0.5113 0.0502,0.5112 0.0527,0.202 0.0527,0.202 0.0839,0.1935 0.0839,0.1934 0.003,0.3391 0.003,0.3391 0.0617,0.2768 0.0617,0.2767 0.0388,-0.011 0.0388,-0.012 0.0908,0.4543 0.0908,0.4541 -0.0181,0.2954 -0.0182,0.2955 0.0979,0.085 0.0978,0.085 0.0657,0.2595 0.0657,0.2596 0.0545,0.1705 0.0545,0.1705 0.0303,0.3007 0.0303,0.3007 0.0648,0.1202 0.0647,0.1203 -0.0374,0.1606 -0.0374,0.1606 0.0778,0.1849 0.0777,0.1851 0.0757,0.2883 0.0756,0.2885 0.0817,0.2951 0.0819,0.295 -0.004,0.1589 -0.004,0.159 0.0546,0.024 0.0546,0.024 -0.006,0.2492 -0.006,0.2493 0.0521,0.1 0.0521,0.1 0.0248,0.2925 0.0248,0.2924 0.0508,0.045 0.0508,0.045 -0.005,0.2382 -0.005,0.2382 0.0836,0.207 0.0836,0.2071 0.0102,0.5976 0.0102,0.5977 0.0765,0.1511 0.0766,0.1511 -0.006,0.2754 -0.006,0.2753 0.0473,0.1769 0.0473,0.1769 0.0627,0.2611 0.0627,0.261 0.0445,0.057 0.0445,0.057 0.0489,0.3505 0.0489,0.3505 0.0428,0.1428 0.0429,0.1428 0.079,0.3184 0.079,0.3184 0.0656,1.0017 0.0657,1.0016 0.10443,0.093 0.10433,0.093 0.18069,-0.042 0.18069,-0.042 0.37017,0.093 0.37015,0.093 0.12483,-0.011 0.12483,-0.011 0.21269,0.046 0.21271,0.046 0.12851,-0.039 0.1285,-0.038 0.15045,0.024 0.15047,0.024 0.24154,-0.059 0.24154,-0.059 0.0288,0.046 0.0288,0.046 0.15878,-0.048 0.15878,-0.038 0.0183,0.061 0.0183,0.062 0.57063,-0.066 0.57062,-0.066 0.0956,0.032 0.0956,0.031 0.35592,-0.052 0.35593,-0.052 0.15284,-0.046 0.15286,-0.046 -9e-4,0.053 -9e-4,0.053 0.15291,-0.047 0.15293,-0.046 0.23706,-0.18 z m -1.07892,-0.4114 h -0.083 l -0.22112,0.011 -0.22112,0.012 -0.0559,-0.035 -0.0559,-0.034 -0.30325,0.042 -0.30326,0.042 -0.60632,-0.042 -0.60632,-0.042 h -0.35885 -0.35884 -0.28389 -0.28389 l -0.14733,-0.092 -0.14731,-0.092 -0.18429,0.011 -0.1843,0.011 -0.0766,-0.081 -0.0767,-0.081 -0.0538,-0.2598 -0.0538,-0.2596 0.0267,-0.053 0.0267,-0.053 -0.047,-0.4392 -0.047,-0.4392 -0.0965,-0.3754 -0.0964,-0.3755 -0.0797,-0.3098 -0.0796,-0.31 0.003,-0.098 0.003,-0.098 -0.0998,-0.3169 -0.0998,-0.3169 -0.0782,-0.5966 -0.0782,-0.5967 -0.0676,-0.1979 -0.0676,-0.1979 -0.0268,-0.3944 -0.0268,-0.3942 -0.0901,-0.3463 -0.0901,-0.3463 -0.0878,-0.4087 -0.0877,-0.4087 0.0139,-0.2109 0.0139,-0.2107 -0.0487,-0.057 -0.0488,-0.057 -0.0341,-0.2378 -0.0341,-0.2379 -0.0501,-0.056 -0.0501,-0.056 -0.0136,-0.2827 -0.0136,-0.2824 -0.0669,-0.075 -0.0669,-0.074 -0.0286,-0.4051 -0.0287,-0.405 -0.0649,-0.01 -0.0649,-0.01 0.004,-0.2275 0.004,-0.2275 -0.0788,-0.099 -0.0788,-0.098 0.005,-0.2368 0.005,-0.2368 -0.0483,0.014 -0.0483,0.014 -0.0527,-0.2483 -0.0527,-0.2482 -0.0607,-0.2925 -0.0608,-0.2925 -0.071,-0.1481 -0.071,-0.1481 -0.0467,-0.4686 -0.0467,-0.4688 -0.0967,-0.2827 -0.0967,-0.2827 -0.0472,-0.327 -0.0472,-0.3271 -0.0508,-0.326 -0.0507,-0.326 -0.1076,-0.4034 -0.10762,-0.4034 -0.0181,-0.1803 -0.018,-0.1805 -0.0422,-0.2667 -0.0421,-0.2665 -0.0859,-0.3783 -0.086,-0.3784 -0.0488,-0.045 -0.0488,-0.045 0.006,-0.2536 0.006,-0.2537 -0.075,-0.1033 -0.0749,-0.1034 -0.0553,-0.2381 -0.0553,-0.2382 -0.0223,-0.1715 -0.0224,-0.1714 -0.0666,-0.3219 -0.0666,-0.3217 -0.029,-0.085 -0.0289,-0.085 -0.056,-0.2392 -0.0559,-0.2392 0.004,-0.1344 0.004,-0.1345 -0.13157,-0.4723 -0.13156,-0.4725 -0.0463,-0.1772 -0.0464,-0.1772 -9e-4,-0.1498 -9e-4,-0.1498 -0.0298,0.085 -0.0298,0.085 -0.21657,0.055 -0.21656,0.055 -0.027,0.1463 -0.0268,0.1463 -0.13764,0.8095 -0.13763,0.8095 -0.0893,0.4567 -0.0893,0.4566 -0.0413,0.3819 -0.0413,0.3819 -0.10285,1.0781 -0.10285,1.0781 -0.0165,0.3597 -0.0165,0.3598 -0.0446,0.012 -0.0446,0.012 -0.005,0.2136 -0.005,0.2136 -0.0418,0.083 -0.0419,0.084 -0.0339,0.3582 -0.0339,0.358 -0.006,0.2797 -0.006,0.2797 -0.0539,0.2 -0.054,0.2 -0.0509,0.508 -0.0509,0.5081 8e-5,0.2624 9e-5,0.2626 -0.0636,0.019 -0.0636,0.019 0.1004,0.056 0.10041,0.056 -0.065,0.061 -0.0649,0.062 -0.006,0.2742 -0.006,0.2742 -0.14519,0.4969 -0.1452,0.497 -0.0799,0.6316 -0.0799,0.6317 -0.0264,0.053 -0.0264,0.053 -0.0694,0.7454 -0.0694,0.7454 -0.0546,0.9415 -0.0546,0.9415 -0.0581,0.2629 -0.0581,0.2629 -0.0471,1.201 -0.0471,1.2011 -0.0752,0.1176 -0.0752,0.1186 -0.0375,0.6701 -0.0376,0.6702 0.0384,0.3293 0.0384,0.3292 0.30256,0.015 0.30256,0.015 0.0825,0.015 0.0825,0.015 0.22055,0.012 0.22057,0.012 0.16474,0.037 0.16474,0.038 0.20736,-0.013 0.20735,-0.013 -9e-4,0.055 -9e-4,0.055 0.11657,-0.035 0.11645,-0.035 0.15886,0.063 0.15887,0.063 -9e-4,0.049 -9e-4,0.048 0.0871,-0.026 0.0871,-0.026 -0.0429,0.1504 -0.0429,0.1503 -0.0885,0.095 -0.0885,0.094 -0.37416,0.1693 -0.37413,0.1692 -0.40692,0.073 -0.40689,0.073 -0.12337,0.1793 -0.12337,0.1793 0.0768,0.2051 0.0768,0.2052 h 0.36874 0.36873 l 0.14684,0.044 0.14683,0.044 0.31674,-0.01 0.31674,-0.01 0.18058,0.1574 0.18059,0.1573 -0.002,0.065 -0.002,0.065 -0.0864,0.1169 -0.0864,0.1169 -0.45737,0.1202 -0.45739,0.1212 -0.15481,0.036 -0.15481,0.046 h -0.45351 -0.45353 l -0.70312,0.033 -0.70312,0.033 -0.0989,0.03 -0.0988,0.03 -0.44098,-0.03 -0.44097,-0.03 -0.30388,0.01 -0.3039,0.01 -0.38787,0.059 -0.38787,0.059 -0.12252,-0.015 -0.12251,-0.015 -0.0252,-0.2181 -0.0251,-0.218 -0.0483,-0.1659 -0.0483,-0.1659 0.0293,-0.059 0.0293,-0.059 0.0752,-2.3856 0.0752,-2.3857 -0.0315,-0.6402 -0.0315,-0.6402 -0.0203,-0.3343 -0.0203,-0.3342 -0.0165,-0.5825 -0.0166,-0.5824 -0.0477,-0.4814 -0.0477,-0.4813 -0.0194,-0.1492 -0.0194,-0.1492 -0.0232,-0.3953 -0.0232,-0.3953 -0.0702,-0.2589 -0.0702,-0.2591 0.0114,-0.2193 0.0114,-0.2193 -0.0257,-0.4564 -0.0257,-0.4564 -0.0292,-0.3938 -0.0293,-0.3936 0.017,-0.1434 0.017,-0.1433 -0.065,-0.1217 -0.065,-0.1216 -8e-4,-0.525 -7.1e-4,-0.5249 -0.0801,-0.3181 -0.0801,-0.3181 -0.0588,-0.9479 -0.0589,-0.9478 0.002,-0.4576 0.002,-0.4578 -0.0896,-0.5008 -0.0896,-0.5009 0.005,-0.2835 0.005,-0.2836 -0.0445,-0.3237 -0.0445,-0.3237 -0.0151,-0.6754 -0.0151,-0.6755 -0.0132,-0.8614 -0.0133,-0.8613 -0.0445,-0.052 -0.0445,-0.052 -0.003,-1.7891 -0.003,-1.7892 0.0591,-1.8076 0.0591,-1.8077 0.007,-0.5527 0.007,-0.5528 -0.0276,-0.045 -0.0276,-0.045 0.0508,-2.315 0.0508,-2.315 0.11498,-0.9267 0.11499,-0.9266 0.057,-0.1264 0.057,-0.1265 0.006,-0.2305 0.006,-0.2305 0.0327,-0.9259 0.0327,-0.926 -0.0436,-0.019 -0.0436,-0.019 0.0114,-0.1056 0.0114,-0.1058 -0.005,-0.078 -0.005,-0.078 -0.15281,0.084 -0.15281,0.084 -0.0685,0.021 -0.0685,0.021 -0.0337,0.2614 -0.0338,0.2615 -0.0427,0.3712 -0.0427,0.3712 -0.0899,0.2494 -0.0899,0.2494 0.0227,0.2278 0.0227,0.2277 -0.0449,0.012 -0.0449,0.013 -0.0368,0.3034 -0.0368,0.3035 -0.0765,0.6694 -0.0765,0.6694 -0.03,0.2553 -0.0299,0.2551 -0.0745,0.7307 -0.0745,0.7308 -0.036,0.195 -0.0359,0.195 -0.0252,0.4159 -0.0253,0.4159 -0.0497,0.099 -0.0497,0.099 -0.0217,0.3765 -0.0217,0.3766 -0.0577,1.2203 -0.0577,1.2204 -0.0361,0.504 -0.0361,0.504 -0.16143,0.5071 -0.16143,0.507 -0.0517,0.4465 -0.0517,0.4465 -0.0669,0.192 -0.0669,0.1921 -0.005,0.2113 -0.005,0.2113 -0.14958,0.5217 -0.1496,0.5216 -0.004,0.14 -0.004,0.1399 -0.0503,0.015 -0.0503,0.015 0.0227,0.2277 0.0227,0.2277 -0.097,0.3597 -0.0969,0.3597 -0.008,0.3153 -0.008,0.3154 -0.12205,0.4037 -0.12204,0.4037 -0.0284,0.245 -0.0284,0.245 -0.11734,0.2343 -0.11732,0.2341 -0.002,0.095 -0.002,0.094 -0.0928,0.064 -0.0927,0.064 -0.17888,-0.018 -0.17887,-0.018 -0.041,-0.2796 -0.041,-0.2796 0.0589,-0.6313 0.0588,-0.6313 -0.0535,-0.1423 -0.0535,-0.1425 -0.0181,-0.335 -0.0181,-0.3348 -0.0325,-0.1766 -0.0325,-0.1765 -0.053,-0.063 -0.053,-0.063 -0.0522,0.016 -0.0522,0.016 0.0337,0.053 0.0328,0.053 -0.11434,0.034 -0.11436,0.034 -0.0367,10e-4 -0.0367,10e-4 -0.0574,0.1243 -0.0574,0.1243 -0.0248,0.4441 -0.0238,0.4439 -0.0402,0.1154 -0.0402,0.1155 0.0143,0.4168 0.0143,0.4168 0.0513,0.5954 0.0513,0.5953 -0.0895,0.1563 -0.0895,0.1564 -0.14457,0.2708 -0.14439,0.2708 -0.0549,0.016 -0.0549,0.016 -0.15833,-0.2506 -0.15824,-0.2506 -0.0522,-0.3257 -0.0522,-0.3256 -0.0699,-0.2591 -0.069,-0.2593 -0.0733,-0.876 -0.0733,-0.8761 -0.0487,-0.095 -0.0487,-0.096 -0.0411,-0.6834 -0.0411,-0.6834 -0.0107,-0.1514 -0.0107,-0.1516 -0.0305,-0.1463 -0.0305,-0.1461 -0.023,-0.4263 -0.023,-0.4262 -0.0274,-0.8528 -0.0265,-0.853 0.0279,-0.084 0.0279,-0.084 0.0625,-0.7172 0.0625,-0.7172 0.15015,-1.3072 0.14999,-1.3071 0.0668,-0.6358 0.0668,-0.636 0.077,-0.7622 0.077,-0.7622 0.0276,-0.2236 0.0267,-0.2236 0.0756,-0.6691 0.0756,-0.6692 0.058,-0.4173 0.058,-0.4173 0.0639,-0.5115 0.0639,-0.5116 0.0957,-0.4584 0.0957,-0.4583 0.11186,-0.6173 0.11195,-0.6172 0.0475,-0.081 0.0475,-0.081 0.097,-0.7058 0.097,-0.7057 0.0593,-0.1639 0.0593,-0.1638 0.15651,-0.6715 0.1564,-0.6716 0.004,-0.1684 0.004,-0.1677 0.11754,-0.235 0.1178,-0.2351 0.14385,-0.4609 0.14399,-0.4609 0.0923,-0.2873 0.0923,-0.2871 0.25236,-0.4553 0.25236,-0.4552 0.19099,-0.2984 0.19099,-0.2984 0.54417,-0.7248 0.54415,-0.725 0.2518,-0.1895 0.25178,-0.1895 0.0299,-0.051 0.0299,-0.051 0.31881,-0.2665 0.31881,-0.2665 0.0874,-0.026 0.0874,-0.026 0.11339,-0.1612 0.11339,-0.1612 0.0104,-0.2172 0.0104,-0.2173 0.10853,-0.8443 0.10862,-0.8445 -0.0494,-0.8397 -0.0494,-0.8397 0.004,-0.094 0.004,-0.094 0.0472,-0.7233 0.0472,-0.7232 0.0688,-0.3585 0.0688,-0.3584 0.0498,-0.168 0.0498,-0.1679 0.0432,-0.228 0.0432,-0.2278 0.1176,-0.279 0.11758,-0.279 0.17761,-0.2952 0.17759,-0.2952 0.0326,-0.04 0.0326,-0.04 0.13026,-0.3679 0.13024,-0.3677 0.002,-0.073 0.002,-0.072 0.24942,-0.4352 0.24942,-0.4352 0.33299,-0.4204 0.33296,-0.4202 0.11612,-0.087 0.11609,-0.087 0.0848,-0.081 0.0848,-0.082 0.33546,-0.2518 0.33544,-0.2518 0.0494,-0.088 0.0494,-0.088 0.0265,0.07 0.0265,0.07 0.0604,-0.018 0.0604,-0.018 0.0973,-0.1222 0.0973,-0.1222 0.40095,-0.1093 0.40094,-0.1092 0.0258,0.022 0.0258,0.022 0.17192,-0.1006 0.17194,-0.1006 h 0.22651 0.22651 l 0.2771,-0.044 0.27709,-0.044 0.0514,0.045 0.0516,0.046 0.12595,-0.038 0.12607,-0.038 -0.0316,0.094 -0.0316,0.094 0.21088,-0.017 0.21087,-0.017 0.1242,-0.015 0.12417,-0.015 0.0365,0.032 0.0364,0.032 0.10192,-0.031 0.10183,-0.031 -0.002,0.062 -0.002,0.062 0.0858,-0.026 0.0859,-0.026 0.14615,0.1148 0.14616,0.115 0.10061,-0.03 0.1005,-0.03 0.16171,0.051 0.1617,0.051 -0.002,0.062 -0.002,0.062 0.32489,0.2713 0.32488,0.2715 -0.002,0.072 -0.002,0.072 0.10614,0.1736 0.10614,0.1735 9e-4,-0.051 9e-4,-0.051 0.074,0.065 0.0741,0.065 0.0353,0.1255 0.0353,0.1256 0.2401,0.2091 0.2401,0.2093 -0.002,0.061 -0.002,0.061 0.16242,0.1543 0.162,0.1546 -0.002,0.084 -0.002,0.083 0.0982,0.055 0.0981,0.054 0.087,0.1229 0.087,0.1229 -0.12445,0.1771 -0.12444,0.1771 -0.30578,0.092 -0.30575,0.092 -0.8155,0.1917 -0.8155,0.1916 -0.0603,0.095 -0.0603,0.095 -0.0745,0.6632 -0.0746,0.6631 -0.0695,0.3587 -0.0695,0.3585 -0.0577,0.096 -0.0577,0.096 -0.21999,0.018 -0.21998,0.018 -0.17107,-0.034 -0.17106,-0.034 -0.29272,0.098 -0.2927,0.098 -0.0607,0.082 -0.0607,0.082 0.0305,0.336 0.0305,0.3361 0.0649,0.085 0.0649,0.085 0.18554,-0.1557 0.18554,-0.1557 0.1176,0.01 0.11761,0.01 0.21193,-0.026 0.21195,-0.026 0.13833,0.022 0.13832,0.022 -0.0445,0.3358 -0.0445,0.3357 -0.09,0.4697 -0.09,0.4696 -0.005,0.2436 -0.005,0.2436 0.068,0.043 0.0679,0.043 0.27699,-0.04 0.27698,-0.04 0.1661,0.049 0.16608,0.049 0.19209,-0.02 0.19209,-0.02 0.30322,0.019 0.30322,0.019 0.29017,-0.014 0.29019,-0.014 -9e-4,0.053 -9e-4,0.053 0.14055,-0.077 0.14056,-0.077 0.0728,0.049 0.0728,0.049 0.63203,-0.1136 0.63205,-0.1136 0.11013,0.012 0.11016,0.012 0.23275,0.054 0.2328,0.054 0.16401,-0.039 0.16403,-0.049 0.0285,0.046 0.0286,0.045 0.2208,-0.02 0.22081,-0.02 0.0564,0.1079 0.0563,0.1079 0.10171,-0.031 0.10171,-0.03 0.12992,0.075 0.12991,0.074 0.15077,0.045 0.15076,0.045 -0.003,0.1138 -0.003,0.1139 0.0556,-0.017 0.0555,-0.017 -0.002,0.082 -0.002,0.081 0.19442,0.1603 0.19443,0.1602 0.0874,0.1925 0.0874,0.1926 0.12496,-0.014 0.12493,-0.013 0.0785,0.1566 0.0785,0.1567 -0.003,0.1207 -0.003,0.1208 0.0831,0.013 0.0831,0.013 0.035,-0.024 0.035,-0.023 0.0457,0.1356 0.0457,0.1356 -0.0339,0.1188 -0.0339,0.1187 0.14935,0.2581 0.14935,0.2581 0.0938,0.1599 0.0938,0.16 0.11372,0.2318 0.11373,0.2317 0.0756,-0.023 0.0756,-0.023 -0.0366,0.073 -0.0365,0.073 0.0584,0.1983 0.0585,0.1982 0.13248,0.082 0.13249,0.083 -0.0365,0.1089 -0.0365,0.109 0.0834,-0.025 0.0834,-0.025 0.0779,0.2105 0.0779,0.2107 -0.0584,0.055 -0.0584,0.056 0.11002,0.1485 0.11002,0.1486 0.0353,0.2338 0.0354,0.2338 0.1208,0.2495 0.1208,0.2494 0.0514,0.4161 0.0513,0.4161 0.077,0.116 0.077,0.116 -0.003,0.1255 -0.003,0.1256 0.0558,0.2793 0.0558,0.2791 0.12431,0.2762 0.1243,0.2762 -0.003,0.1234 -0.003,0.1234 0.0862,0.162 0.0862,0.1619 9e-4,0.525 9e-4,0.5249 0.0544,0.6957 0.0544,0.6958 0.006,0.2454 0.007,0.2451 0.0257,0.3947 0.0257,0.3946 0.0186,0.1494 0.0186,0.1494 0.055,0.3249 0.055,0.3249 -0.0137,0.3167 -0.0137,0.3167 0.0995,0.4324 0.0995,0.4322 0.0238,0.393 0.0239,0.3929 0.0555,0.023 0.0555,0.023 -0.0147,0.06 -0.0147,0.06 0.0363,0.33 0.0363,0.33 0.0521,0.06 0.0521,0.06 -0.036,0.1262 -0.0361,0.1263 0.11015,0.2646 0.11016,0.2645 -0.0147,0.5493 -0.0147,0.5493 0.10905,0.1299 0.10899,0.1299 -0.0513,0.1721 -0.0513,0.172 0.0513,0.6459 0.0513,0.646 -0.0405,0.3507 -0.0405,0.3508 0.009,0.09 0.009,0.09 -0.009,1.1145 -0.009,1.1145 -0.0585,0.1548 -0.0581,0.1549 -0.0522,0.016 -0.0526,0.016 -0.21184,-0.1332 -0.21186,-0.1332 0.002,-0.062 0.002,-0.063 -0.0984,-0.1373 -0.0984,-0.1374 -0.0772,-0.288 -0.0773,-0.288 -0.086,-0.325 -0.086,-0.3251 -0.0639,-0.081 -0.0639,-0.081 -0.14077,0.1162 -0.14075,0.1162 -0.0407,0.2873 -0.0406,0.2873 0.0488,0.022 0.0488,0.022 0.0131,0.3313 0.0131,0.3315 0.0273,0.197 0.0273,0.1971 0.0779,0.068 0.0779,0.068 0.0262,0.3172 0.0262,0.3174 -0.0299,0.1473 -0.0302,0.1474 -0.0356,0.072 -0.0356,0.072 -0.1773,0.043 -0.1773,0.043 -0.32123,-0.2058 -0.32124,-0.2058 -0.24851,-0.2182 -0.24849,-0.2184 -0.0859,-0.2471 -0.0859,-0.2473 -0.134,-0.3835 -0.13399,-0.3836 0.005,-0.2155 0.005,-0.2156 -0.0966,-0.2357 -0.0966,-0.2358 -0.0853,-0.4094 -0.0853,-0.4093 -0.12749,-0.286 -0.1275,-0.286 0.003,-0.1158 0.003,-0.1157 -0.0479,-0.046 -0.0479,-0.046 -0.076,-0.4662 -0.076,-0.4662 -0.0761,-0.08 -0.0761,-0.08 -0.0631,-0.4005 -0.0631,-0.4005 -0.0479,0.09 -0.0479,0.09 0.0418,-0.2728 0.0418,-0.2729 -0.0894,-0.014 -0.0894,-0.014 0.003,-0.1331 0.003,-0.1331 -0.082,-0.2558 -0.082,-0.2559 -0.20149,-0.8104 -0.20147,-0.8103 -0.0338,-0.238 -0.0338,-0.2379 -0.0572,-0.1081 -0.0571,-0.1082 -0.0311,-0.4233 -0.0312,-0.4234 -0.14723,-0.4491 -0.14723,-0.4491 0.004,-0.1423 0.004,-0.1423 -0.0476,-0.021 -0.0476,-0.021 -0.0395,-0.1913 -0.0395,-0.1914 -0.01,-0.1701 -0.01,-0.1701 -0.0845,-0.1265 -0.0845,-0.1267 0.003,-0.1154 0.003,-0.114 -0.048,-0.046 -0.0481,-0.046 -0.11359,-0.4017 -0.11356,-0.4017 -0.0724,-0.1751 -0.0722,-0.1752 0.003,-0.096 0.003,-0.096 -0.0476,-0.021 -0.0474,-0.021 -0.0287,-0.2314 -0.0287,-0.2314 -0.10105,-0.1209 -0.10106,-0.121 -0.0364,-0.2064 -0.0364,-0.2064 -0.0988,-0.2165 -0.0988,-0.2165 0.003,-0.1133 0.003,-0.1136 -0.0452,-0.095 -0.0452,-0.095 -0.0797,-0.1638 -0.0797,-0.1638 -0.0338,-0.2358 -0.0339,-0.2357 -0.0736,-0.1368 -0.0737,-0.1365 -0.13791,-0.1385 -0.13793,-0.1384 -0.0829,0.098 -0.0829,0.098 h -0.10592 -0.10592 l -0.0321,0.1326 -0.0321,0.1327 0.0355,0.925 0.0355,0.925 0.0289,0.085 0.029,0.085 -0.0101,0.049 -0.0101,0.049 0.0555,-0.017 0.0555,-0.017 -0.005,0.1886 -0.005,0.1884 0.098,0.3268 0.098,0.3268 0.0578,0.355 0.0578,0.3551 0.0396,0.2673 0.0396,0.2672 0.10209,0.5902 0.10211,0.5902 0.0952,0.4376 0.0953,0.4375 0.0534,0.3254 0.0534,0.3253 0.0817,0.4104 0.0817,0.4103 -0.01,0.1562 -0.01,0.1563 0.0464,0.089 0.0463,0.089 0.0244,0.4798 0.0244,0.4798 0.0237,0.04 0.0237,0.04 -0.0125,0.5047 -0.0125,0.5047 0.0736,0.328 0.0736,0.328 -0.0358,0.2876 -0.0357,0.2878 0.051,-0.1374 0.051,-0.1374 -0.007,0.3109 -0.007,0.3109 0.0499,0.3262 0.05,0.3263 0.0293,0.2867 0.0293,0.2867 0.0413,-0.039 0.0412,-0.039 -8.8e-4,0.2277 -8.9e-4,0.2279 -0.0134,0.8376 -0.0134,0.8377 -0.0427,0.3648 -0.0427,0.3648 0.0863,0.2333 0.0863,0.2332 0.0213,0.4964 0.0213,0.4964 0.0472,0.095 0.0472,0.095 -0.0551,0.016 -0.0551,0.017 0.0749,0.2347 0.0749,0.2346 -0.005,0.1752 -0.005,0.1751 0.0584,0.026 0.0583,0.024 -0.0305,0.091 -0.0305,0.091 0.0543,0.1896 0.0543,0.1896 0.007,0.3997 0.007,0.3996 0.0256,0.2711 0.0256,0.2711 0.0791,0.3183 0.0791,0.3184 -0.0332,0.386 -0.0332,0.3859 0.0505,0.091 0.0505,0.091 -0.06,0.094 -0.06,0.094 -0.0205,0.681 -0.0205,0.6811 -9e-4,0.3054 -9e-4,0.3054 0.037,0.056 0.037,0.056 -0.0127,0.8066 -0.0127,0.8066 0.0208,0.3342 0.0207,0.3342 0.0274,0.4546 0.0275,0.4545 0.0413,0.083 0.0413,0.083 -0.0203,0.1275 -0.0203,0.1275 0.0649,0.028 0.0649,0.027 -0.0652,0.089 -0.0652,0.088 0.0432,0.1727 0.0431,0.1727 -0.008,0.7168 -0.008,0.7169 0.053,0.6095 0.053,0.6094 -0.0285,0.8726 -0.0285,0.8728 0.0379,0.1212 0.038,0.1213 0.0188,0.7901 0.0188,0.79 -0.01,0.3671 -0.01,0.3671 0.0527,0.1464 0.0526,0.1464 0.007,0.6467 0.007,0.6468 0.0501,0.4188 0.0501,0.419 0.0471,0.1292 0.0472,0.1291 -0.009,0.368 -0.009,0.3681 0.0793,0.2599 0.0793,0.2601 -0.0273,0.054 -0.0273,0.054 -0.0242,0.4371 -0.0242,0.4371 0.0791,-0.024 0.0791,-0.024 -0.0265,0.4794 -0.0266,0.4796 0.19118,0.019 0.19116,0.019 0.13976,-0.1379 0.13976,-0.138 0.21195,-0.014 0.21194,-0.015 0.0546,0.023 0.0546,0.023 0.47221,-0.1237 0.47223,-0.1246 0.3233,0.048 0.32333,0.048 0.12814,0.1234 0.12813,0.1236 -0.002,0.088 -0.002,0.088 -0.11794,0.1014 -0.11793,0.1013 -0.70565,0.1527 -0.70564,0.1527 -0.095,0.066 -0.0949,0.065 -0.007,0.3005 -0.007,0.3007 0.0683,0.032 0.0683,0.031 0.24813,0.014 0.24812,0.014 h 0.24835 0.24838 l 0.0268,0.033 0.0268,0.033 0.19702,0.051 0.197,0.051 0.11933,0.1538 0.11931,0.1537 -0.0517,0.1744 -0.0517,0.1742 -0.1567,0.061 -0.15671,0.061 -0.0357,0.049 -0.0357,0.049 -0.13868,-4e-4 -0.13869,-4e-4 h -0.083 z m -9.64388,-58.546 0.13156,-0.1781 0.0464,-0.2544 0.0464,-0.2543 -0.1195,-0.078 -0.1195,-0.077 -0.0911,0.027 -0.0911,0.027 -0.13491,0.1125 -0.13491,0.1125 -0.0849,0.3596 -0.085,0.3597 0.0258,0.073 0.0258,0.073 0.22654,-0.058 0.22652,-0.058 z m -0.24343,61.0899 0.003,-0.097 0.0547,0.024 0.0546,0.024 -0.002,0.059 -0.002,0.059 -0.0555,0.017 -0.0556,0.017 z m 0.44662,-0.21 0.002,-0.062 0.0245,-0.01 0.0246,-0.01 0.0329,0.053 0.0329,0.053 -0.0589,0.018 -0.0589,0.018 z m -5.70924,0.959 7.3e-4,-0.031 0.0278,-0.01 0.0278,-0.01 -7.3e-4,0.031 -7.3e-4,0.031 -0.0278,0.01 -0.0278,0.01 z m 6.11919,-23.0949 7.3e-4,-0.031 0.0278,-0.01 0.0278,-0.01 -7.3e-4,0.031 -7.4e-4,0.031 -0.0278,0.01 -0.0278,0.01 z m 5.01938,-20.1508 0.038,-0.051 -0.002,0.083 -0.002,0.083 -0.036,-0.031 -0.036,-0.031 z m -13.29133,3.3003 7.3e-4,-0.031 0.0278,-0.01 0.0278,-0.01 -7.3e-4,0.031 -7.4e-4,0.031 -0.0278,0.01 -0.0278,0.01 z m -4.98765,0.7945 7.3e-4,-0.031 0.0279,-0.01 0.0279,-0.01 -7.3e-4,0.031 -7.4e-4,0.031 -0.0279,0.01 -0.0279,0.01 z m 20.99155,-14.5803 7.3e-4,-0.031 0.0278,-0.01 0.0278,-0.01 -7.3e-4,0.031 -7.3e-4,0.031 -0.0278,0.01 -0.0278,0.01 z m -4.02119,-7.437 7.3e-4,-0.031 0.0278,-0.01 0.0278,-0.01 -7.3e-4,0.031 -7.2e-4,0.031 -0.0278,0.01 -0.0278,0.01 z m -6.86898,-3.089 0.0346,-0.046 0.0722,0.012 0.0722,0.013 -0.10666,0.032 -0.10666,0.032 z"
         id="path882-6-0-1-4-6-0-8" /><text
         xml:space="preserve"
         id="text111-6-5-3-4-9-5"
         style="font-style:normal;font-variant:normal;font-weight:900;font-stretch:normal;font-size:4.01609px;font-family:Paysage;-inkscape-font-specification:'Paysage Heavy';letter-spacing:-0.0552212px;word-spacing:0.00251005px;white-space:pre;display:inline;fill:#000000;fill-opacity:1;stroke:#000000;stroke-width:2;stroke-linecap:square;stroke-linejoin:bevel;paint-order:markers fill stroke;stop-color:#000000"
         x="1024.8076"
         y="-789.51758"
         transform="matrix(0.9486833,-0.28460499,0,1.0540926,0,0)"><tspan
           id="tspan10929-4-1-9-1-8"
           style="font-style:normal;font-variant:normal;font-weight:900;font-stretch:normal;font-size:4.01609px;font-family:Paysage;-inkscape-font-specification:'Paysage Heavy';fill:#000000;fill-opacity:1;stroke:none;stroke-width:2">LÉON LENCLOS</tspan></text><text
         xml:space="preserve"
         id="text111-5-1-7-4-5-7-4"
         style="font-style:normal;font-variant:normal;font-weight:900;font-stretch:normal;font-size:4.01609px;line-height:1;font-family:Paysage;-inkscape-font-specification:'Paysage Heavy';letter-spacing:-0.0392507px;word-spacing:0.00178412px;white-space:pre;display:inline;fill:#000000;fill-opacity:1;stroke:none;stroke-width:2;stroke-linecap:square;stroke-linejoin:bevel;paint-order:markers fill stroke;stop-color:#000000"
         x="1012.1586"
         y="-664.19733"
         transform="matrix(0.9486833,-0.28460499,0,1.0540926,0,0)">LES CONFÉRENCES DE POCHE</text><rect
         style="fill:#ffffff;fill-opacity:1;stroke:#000000;stroke-width:0.559526;stroke-linecap:square;stroke-linejoin:bevel;paint-order:markers fill stroke;stop-color:#000000"
         id="rect996-3-5-8-3-9-2-8-6-9-7"
         width="10.431627"
         height="170"
         x="1034.7625"
         y="-1600.9214"
         transform="matrix(0.89442719,0.4472136,0,1,0,0)" /><text
         xml:space="preserve"
         transform="matrix(0,-0.26458333,0.238125,0.1190625,1290.856,63.748824)"
         id="text12991-5-2-0-7-1"
         style="font-style:normal;font-variant:normal;font-weight:900;font-stretch:normal;font-size:16px;font-family:Paysage;-inkscape-font-specification:'Paysage Heavy';text-align:justify;writing-mode:lr-tb;white-space:pre;shape-inside:url(#rect12993-4-7-0-6-7);display:inline;fill:#000000;fill-opacity:1;stroke:none;stroke-width:2.21908;stroke-linecap:square;stroke-linejoin:miter;stroke-dasharray:none;stroke-opacity:1;paint-order:markers fill stroke;stop-color:#000000"
         x="0"
         y="0"><tspan
           x="3227.6992"
           y="-1508.1012"
           id="tspan54136"><tspan
             style="font-weight:500;-inkscape-font-specification:'Paysage Medium'"
             id="tspan54134">LÉON LENCLOS </tspan></tspan></text><text
         xml:space="preserve"
         transform="matrix(0,-0.26458333,0.238125,0.1190625,1290.856,-40.190086)"
         id="text12991-5-4-0-4-1-3"
         style="font-style:normal;font-variant:normal;font-weight:900;font-stretch:normal;font-size:16px;font-family:Paysage;-inkscape-font-specification:'Paysage Heavy';text-align:justify;writing-mode:lr-tb;white-space:pre;shape-inside:url(#rect12993-4-5-8-6-1-8);display:inline;fill:#000000;fill-opacity:1;stroke:none;stroke-width:2.21908;stroke-linecap:square;stroke-linejoin:miter;stroke-dasharray:none;stroke-opacity:1;paint-order:markers fill stroke;stop-color:#000000"
         x="0"
         y="0"><tspan
           x="3227.6992"
           y="-1508.1012"
           id="tspan54138">LES CONFÉRENCES DE POCHE </tspan></text><path
         style="fill:#ffffff;fill-opacity:1;stroke:#000000;stroke-width:0.333999;stroke-linecap:square;stroke-opacity:1;paint-order:markers fill stroke;stop-color:#000000"
         d="m 1024.5197,-1167.8617 9.3304,4.6652 -99.00003,29.7 -9.33035,-4.6652 z"
         id="path13034-1-8" /><path
         style="fill:#ffffff;stroke:#000000;stroke-width:0.282223;stroke-linecap:round;stroke-linejoin:round;paint-order:markers fill stroke;stop-color:#000000"
         d="m 930.85134,-1135.4959 99.00006,-29.7001"
         id="path133090" /><path
         style="fill:#ffffff;stroke:#000000;stroke-width:0.282223;stroke-linecap:round;stroke-linejoin:round;paint-order:markers fill stroke;stop-color:#000000"
         d="m 929.51844,-1136.1623 99.00006,-29.7001"
         id="path133106" /><path
         style="fill:#ffffff;stroke:#000000;stroke-width:0.282223;stroke-linecap:round;stroke-linejoin:round;paint-order:markers fill stroke;stop-color:#000000"
         d="m 928.18557,-1136.8288 99.00003,-29.7001"
         id="path133108" /><path
         style="fill:#ffffff;stroke:#000000;stroke-width:0.282223;stroke-linecap:round;stroke-linejoin:round;paint-order:markers fill stroke;stop-color:#000000"
         d="m 926.85265,-1137.4952 99.00005,-29.7001"
         id="path133110" /><path
         style="fill:#ffffff;stroke:#000000;stroke-width:0.282223;stroke-linecap:round;stroke-linejoin:round;paint-order:markers fill stroke;stop-color:#000000"
         d="m 932.18427,-1134.8294 99.00003,-29.7001"
         id="path133112" /><path
         style="fill:#ffffff;stroke:#000000;stroke-width:0.282223;stroke-linecap:round;stroke-linejoin:round;paint-order:markers fill stroke;stop-color:#000000"
         d="m 933.51715,-1134.163 99.00005,-29.7001"
         id="path133114" /></g></g></svg>
