<?xml version="1.0" encoding="UTF-8" standalone="no"?>
<!-- Created with Inkscape (http://www.inkscape.org/) -->

<svg
   width="12.47578mm"
   height="12.477553mm"
   viewBox="0 0 12.47578 12.477553"
   version="1.1"
   id="svg54190"
   inkscape:version="1.2.2 (b0a8486541, 2022-12-01)"
   sodipodi:docname="macaron.svg"
   xmlns:inkscape="http://www.inkscape.org/namespaces/inkscape"
   xmlns:sodipodi="http://sodipodi.sourceforge.net/DTD/sodipodi-0.dtd"
   xmlns="http://www.w3.org/2000/svg"
   xmlns:svg="http://www.w3.org/2000/svg">
  <sodipodi:namedview
     id="namedview54192"
     pagecolor="#ffffff"
     bordercolor="#000000"
     borderopacity="0.25"
     inkscape:showpageshadow="2"
     inkscape:pageopacity="0.0"
     inkscape:pagecheckerboard="0"
     inkscape:deskcolor="#d1d1d1"
     inkscape:document-units="mm"
     showgrid="false"
     inkscape:zoom="9.6188811"
     inkscape:cx="10.812068"
     inkscape:cy="38.154126"
     inkscape:window-width="1920"
     inkscape:window-height="1011"
     inkscape:window-x="0"
     inkscape:window-y="32"
     inkscape:window-maximized="1"
     inkscape:current-layer="g134423" />
  <defs
     id="defs54187">
    <rect
       x="3982.0613"
       y="-4235.5996"
       width="285.36591"
       height="176.42744"
       id="rect133174-2" />
  </defs>
  <g
     inkscape:label="Calque 1"
     inkscape:groupmode="layer"
     id="layer1"
     transform="translate(-125.14744,-39.400336)">
    <g
       id="g134423"
       transform="matrix(0.26458333,0,0,0.26458333,-156.97189,349.64823)">
      <path
         style="fill:#ffffff;stroke:#000000;stroke-width:0.294079;stroke-linecap:round;stroke-linejoin:round;stroke-dasharray:none;paint-order:markers fill stroke;stop-color:#000000"
         id="path133657"
         d="m 1104.7427,-1140.3976 c -0.07,0.1294 -4.103,-0.6905 -4.1848,-0.5683 -0.082,0.1221 2.2106,3.5402 2.1175,3.654 -0.093,0.1137 -3.8982,-1.4545 -4.0016,-1.3501 -0.1035,0.1044 1.5006,3.8946 1.3877,3.9887 -0.1129,0.094 -3.5524,-2.1659 -3.6738,-2.083 -0.1213,0.083 0.7365,4.1082 0.6078,4.1793 -0.1286,0.071 -3.0783,-2.7991 -3.2132,-2.7406 -0.1348,0.059 -0.054,4.1733 -0.1941,4.2188 -0.1398,0.045 -2.493,-3.3312 -2.6365,-3.2992 -0.1434,0.032 -0.8431,4.0876 -0.989,4.1058 -0.1458,0.018 -1.8175,-3.7428 -1.9644,-3.7386 -0.147,0 -1.6015,3.8543 -1.7482,3.8445 -0.1466,-0.01 -1.0764,-4.0191 -1.2214,-4.0428 -0.1451,-0.024 -2.302,3.4815 -2.4442,3.4442 -0.1421,-0.037 -0.2963,-4.1502 -0.4342,-4.2009 -0.138,-0.051 -2.9193,2.9829 -3.0518,2.9193 -0.1325,-0.064 0.4945,-4.1312 0.3686,-4.2071 -0.1259,-0.076 -3.431,2.3766 -3.5491,2.289 -0.1181,-0.088 1.2674,-3.963 1.1581,-4.0613 -0.1092,-0.098 -3.8188,1.6843 -3.9181,1.576 -0.099,-0.1083 1.9944,-3.6515 1.9058,-3.7688 -0.089,-0.1173 -4.0686,0.9311 -4.1456,0.806 -0.077,-0.1252 2.6494,-3.2081 2.5846,-3.34 -0.065,-0.1319 -4.1712,0.1443 -4.2233,0.01 -0.052,-0.1375 3.2088,-2.6487 3.1701,-2.7905 -0.039,-0.1418 -4.1232,-0.6477 -4.1483,-0.7925 -0.025,-0.1449 3.652,-1.9936 3.6409,-2.1402 -0.011,-0.1465 -3.9261,-1.4163 -3.9233,-1.5632 0,-0.147 3.9633,-1.2664 3.9801,-1.4124 0.017,-0.1461 -3.5871,-2.1337 -3.5566,-2.2775 0.031,-0.1438 4.1314,-0.4935 4.1755,-0.6337 0.044,-0.1402 -3.1185,-2.774 -3.0613,-2.9094 0.057,-0.1354 4.1501,0.2973 4.2199,0.168 0.07,-0.1293 -2.5371,-3.314 -2.4553,-3.4362 0.082,-0.1221 4.0188,1.0774 4.1119,0.9636 0.093,-0.1138 -1.8641,-3.7343 -1.7607,-3.8387 0.1035,-0.1045 3.7423,1.8184 3.8552,1.7243 0.1129,-0.094 -1.1237,-4.0196 -1.0023,-4.1026 0.1213,-0.083 3.3305,2.4939 3.4592,2.4228 0.1286,-0.071 -0.3427,-4.1596 -0.2078,-4.2181 0.1348,-0.058 2.7983,3.079 2.9381,3.0336 0.1398,-0.045 0.4508,-4.1493 0.5943,-4.1812 0.1434,-0.032 2.165,3.553 2.3109,3.5349 0.1459,-0.018 1.2279,-3.989 1.3748,-3.9932 0.1469,0 1.4535,3.8985 1.6002,3.9083 0.1467,0.01 1.9606,-3.6846 2.1057,-3.6609 0.1451,0.024 0.6895,4.1032 0.8316,4.1406 0.1422,0.037 2.6225,-3.2469 2.7605,-3.1962 0.1379,0.051 -0.1,4.1595 0.033,4.2231 0.1325,0.064 3.1895,-2.6919 3.3154,-2.616 0.1259,0.076 -0.8849,4.0655 -0.7668,4.153 0.118,0.088 3.6414,-2.0396 3.7506,-1.9413 0.1092,0.098 -1.6383,3.8246 -1.539,3.9329 0.099,0.1083 3.9616,-1.3137 4.0503,-1.1964 0.089,0.1172 -2.3326,3.4454 -2.2555,3.5705 0.077,0.1252 4.1387,-0.5402 4.2035,-0.4082 0.065,0.1319 -2.9424,2.9417 -2.8904,3.0791 0.052,0.1375 4.166,0.2528 4.2048,0.3946 0.039,0.1418 -3.446,2.3317 -3.4209,2.4766 0.025,0.1448 4.0429,1.0366 4.0541,1.1832 0.011,0.1466 -3.825,1.6374 -3.8278,1.7844 0,0.1469 3.7736,1.783 3.7569,1.9291 -0.017,0.146 -4.0657,0.8839 -4.0963,1.0277 -0.031,0.1437 3.368,2.465 3.3239,2.6052 -0.044,0.1402 -4.1595,0.099 -4.2167,0.2339 -0.057,0.1354 2.8406,3.0579 2.7708,3.1872 z"
         transform="matrix(1.199604,0,0,1.1996028,-214.74557,230.16738)" />
    </g>
  </g>
</svg>
