<?xml version="1.0" encoding="UTF-8" standalone="no"?>
<!-- Created with Inkscape (http://www.inkscape.org/) -->

<svg
   width="54.30859mm"
   height="17.638672mm"
   viewBox="0 0 54.308591 17.638672"
   version="1.1"
   id="svg7596"
   inkscape:version="1.2.2 (b0a8486541, 2022-12-01)"
   sodipodi:docname="logo-nokill.svg"
   inkscape:export-filename="logo/logo1.png"
   inkscape:export-xdpi="96"
   inkscape:export-ydpi="96"
   xmlns:inkscape="http://www.inkscape.org/namespaces/inkscape"
   xmlns:sodipodi="http://sodipodi.sourceforge.net/DTD/sodipodi-0.dtd"
   xmlns="http://www.w3.org/2000/svg"
   xmlns:svg="http://www.w3.org/2000/svg">
  <sodipodi:namedview
     id="namedview7598"
     pagecolor="#505050"
     bordercolor="#eeeeee"
     borderopacity="1"
     inkscape:showpageshadow="0"
     inkscape:pageopacity="0"
     inkscape:pagecheckerboard="0"
     inkscape:deskcolor="#505050"
     inkscape:document-units="mm"
     showgrid="false"
     showguides="true"
     inkscape:zoom="1.3718959"
     inkscape:cx="238.72074"
     inkscape:cy="153.07284"
     inkscape:window-width="1920"
     inkscape:window-height="1011"
     inkscape:window-x="0"
     inkscape:window-y="32"
     inkscape:window-maximized="1"
     inkscape:current-layer="layer1">
    <inkscape:grid
       type="xygrid"
       id="grid7600"
       originx="418.03838"
       originy="-343.96765" />
    <sodipodi:guide
       position="484.44878,324.0334"
       orientation="0,-1"
       id="guide13972"
       inkscape:locked="false" />
    <sodipodi:guide
       position="217.40534,539.93828"
       orientation="0,-1"
       id="guide20000"
       inkscape:locked="false" />
  </sodipodi:namedview>
  <defs
     id="defs7593" />
  <g
     inkscape:label="Calque 1"
     inkscape:groupmode="layer"
     id="layer1"
     transform="translate(418.03836,-391.0614)">
    <g
       id="g20724"
       style="fill:#000000"
       transform="translate(-174.08719,498.49109)">
      <g
         aria-label="NOKILL"
         id="text463-0-73-7-8-1-5-9-0-0-2"
         style="font-style:italic;font-weight:600;font-size:13.871px;font-family:Junicode;-inkscape-font-specification:'Junicode Semi-Bold Italic';text-align:center;letter-spacing:0.460375px;word-spacing:-0.346604px;text-anchor:middle;fill:#000000;stroke-width:0.421811;paint-order:markers fill stroke">
        <path
           d="m -239.24696,-94.46335 c 0,0.69355 0.44387,1.081938 1.04033,1.081938 0.59645,0 1.04032,-0.388388 1.04032,-1.081938 v -5.173883 h 0.0277 l 4.39711,5.798078 c 0.19419,0.249678 0.61032,0.457743 0.87387,0.457743 0.59646,0 1.04033,-0.388388 1.04033,-1.081938 v -7.87873 c 0,-0.69355 -0.44387,-1.08194 -1.04033,-1.08194 -0.59645,0 -1.04032,0.38839 -1.04032,1.08194 v 5.24324 h -0.0277 l -4.39711,-5.86743 c -0.18032,-0.24968 -0.61033,-0.45775 -0.87387,-0.45775 -0.59646,0 -1.04033,0.38839 -1.04033,1.08194 z"
           style="-inkscape-font-specification:'VAG Rounded Std Bold Italic';fill:#000000"
           id="path20783" />
        <path
           d="m -224.81849,-95.212384 c -1.76162,0 -2.60775,-1.498068 -2.60775,-3.19033 0,-1.678386 0.87387,-3.190326 2.60775,-3.190326 1.73387,0 2.60774,1.51194 2.60774,3.190326 0,1.692262 -0.84613,3.19033 -2.60774,3.19033 z m 0,1.914198 c 2.84355,0 4.77162,-2.233231 4.77162,-5.104528 0,-2.815816 -1.98355,-5.104526 -4.77162,-5.104526 -2.82969,0 -4.77163,2.21936 -4.77163,5.104526 0,2.871297 1.95581,5.104528 4.77163,5.104528 z"
           style="-inkscape-font-specification:'VAG Rounded Std Bold Italic';fill:#000000"
           id="path20785" />
        <path
           d="m -218.72649,-94.380124 c 0,0.610324 0.44387,0.998712 1.04032,0.998712 0.6242,0 1.04033,-0.457743 1.04033,-0.998712 v -3.537105 l 3.59259,3.88388 c 0.38839,0.41613 0.65194,0.651937 1.05419,0.651937 0.56872,0 1.08194,-0.305162 1.08194,-0.957099 0,-0.41613 -0.24968,-0.721292 -0.58258,-1.054196 l -3.2042,-3.342911 2.62162,-2.580002 c 0.45774,-0.45775 0.67968,-0.74904 0.67968,-1.10968 0,-0.59646 -0.49936,-0.99872 -1.02646,-0.99872 -0.38838,0 -0.65193,0.22194 -0.80451,0.38839 l -3.41227,3.634204 v -2.996134 c 0,-0.63807 -0.44387,-1.02646 -1.04033,-1.02646 -0.62419,0 -1.04032,0.45775 -1.04032,1.02646 z"
           style="-inkscape-font-specification:'VAG Rounded Std Bold Italic';fill:#000000"
           id="path20787" />
        <path
           d="m -209.79093,-94.46335 c 0,0.69355 0.44387,1.081938 1.04032,1.081938 0.59645,0 1.04033,-0.388388 1.04033,-1.081938 v -7.87873 c 0,-0.69355 -0.44388,-1.08194 -1.04033,-1.08194 -0.59645,0 -1.04032,0.38839 -1.04032,1.08194 z"
           style="-inkscape-font-specification:'VAG Rounded Std Bold Italic';fill:#000000"
           id="path20789" />
        <path
           d="m -206.00152,-94.60206 c 0,0.69355 0.40225,1.137422 1.08193,1.137422 h 3.46775 c 0.61033,0 0.97097,-0.457743 0.99872,-0.915486 0.0139,-0.471614 -0.2913,-0.998712 -0.99872,-0.998712 h -2.46903 v -6.963244 c 0,-0.69355 -0.44388,-1.08194 -1.04033,-1.08194 -0.59645,0 -1.04032,0.38839 -1.04032,1.08194 z"
           style="-inkscape-font-specification:'VAG Rounded Std Bold Italic';fill:#000000"
           id="path20791" />
        <path
           d="m -199.63209,-94.60206 c 0,0.69355 0.40225,1.137422 1.08193,1.137422 h 3.46775 c 0.61033,0 0.97097,-0.457743 0.99872,-0.915486 0.0139,-0.471614 -0.2913,-0.998712 -0.99872,-0.998712 h -2.46903 v -6.963244 c 0,-0.69355 -0.44388,-1.08194 -1.04033,-1.08194 -0.59645,0 -1.04032,0.38839 -1.04032,1.08194 z"
           style="-inkscape-font-specification:'VAG Rounded Std Bold Italic';fill:#000000"
           id="path20793" />
      </g>
      <path
         style="color:#000000;fill:#000000;stroke-linecap:round;stroke-linejoin:round;-inkscape-stroke:none;paint-order:markers fill stroke"
         d="m -239.10352,-107.42969 c -2.66783,0 -4.84765,2.17982 -4.84765,4.84766 v 7.943358 c 0,2.667836 2.17983,4.847656 4.84765,4.847656 h 44.61329 c 2.66783,0 4.84765,-2.17982 4.84765,-4.847656 v -7.943358 c 0,-2.66784 -2.17982,-4.84766 -4.84765,-4.84766 z m 0,2.05078 h 44.61329 c 1.56759,0 2.79882,1.22928 2.79882,2.79688 v 7.943358 c 0,1.567594 -1.23123,2.796875 -2.79882,2.796875 h -44.61329 c -1.56758,0 -2.79882,-1.229281 -2.79882,-2.796875 v -7.943358 c 0,-1.5676 1.23124,-2.79688 2.79882,-2.79688 z"
         id="rect18414-06" />
    </g>
  </g>
</svg>
