<?xml version="1.0" encoding="UTF-8" standalone="no"?>
<!-- Created with Inkscape (http://www.inkscape.org/) -->

<svg
   width="98.691978mm"
   height="99.999985mm"
   viewBox="0 0 98.691979 99.999987"
   version="1.1"
   id="svg22229"
   xml:space="preserve"
   sodipodi:docname="imagemagick.svg"
   inkscape:version="1.2.2 (b0a8486541, 2022-12-01)"
   xmlns:inkscape="http://www.inkscape.org/namespaces/inkscape"
   xmlns:sodipodi="http://sodipodi.sourceforge.net/DTD/sodipodi-0.dtd"
   xmlns:xlink="http://www.w3.org/1999/xlink"
   xmlns="http://www.w3.org/2000/svg"
   xmlns:svg="http://www.w3.org/2000/svg"><sodipodi:namedview
     id="namedview121772"
     pagecolor="#ffffff"
     bordercolor="#000000"
     borderopacity="0.25"
     inkscape:showpageshadow="2"
     inkscape:pageopacity="0.0"
     inkscape:pagecheckerboard="0"
     inkscape:deskcolor="#d1d1d1"
     inkscape:document-units="mm"
     showgrid="false"
     inkscape:zoom="1.680039"
     inkscape:cx="315.46888"
     inkscape:cy="171.4246"
     inkscape:window-width="1920"
     inkscape:window-height="1011"
     inkscape:window-x="0"
     inkscape:window-y="32"
     inkscape:window-maximized="1"
     inkscape:current-layer="svg22229" /><defs
     id="defs22226"><style
       id="style23152">.cls-1{fill:#231f20;}</style><clipPath
       clipPathUnits="userSpaceOnUse"
       id="clipPath17271"><g
         id="g17275"
         style="stroke-width:1"><path
           d="m 0,664.49101 h 612 v -792 H 0 Z"
           id="path17273"
           style="stroke-width:1" /></g></clipPath><clipPath
       clipPathUnits="userSpaceOnUse"
       id="clipPath17265"><g
         id="g17269"
         style="stroke-width:1"><path
           d="m 0,664.49101 h 612 v -792 H 0 Z"
           id="path17267"
           style="stroke-width:1" /></g></clipPath><clipPath
       clipPathUnits="userSpaceOnUse"
       id="clipPath17259"><g
         id="g17263"
         style="stroke-width:1"><path
           d="m 0,664.49101 h 612 v -792 H 0 Z"
           id="path17261"
           style="stroke-width:1" /></g></clipPath><clipPath
       clipPathUnits="userSpaceOnUse"
       id="clipPath16480"><g
         id="g16484"
         style="stroke-width:1"><path
           d="M 0,792 H 612 V 0 H 0 Z"
           id="path16482"
           style="stroke-width:1" /></g></clipPath><clipPath
       clipPathUnits="userSpaceOnUse"
       id="clipPath16474"><g
         id="g16478"
         style="stroke-width:1"><path
           d="M 0,792 H 612 V 0 H 0 Z"
           id="path16476"
           style="stroke-width:1" /></g></clipPath><clipPath
       clipPathUnits="userSpaceOnUse"
       id="clipPath16468"><g
         id="g16472"
         style="stroke-width:1"><path
           d="M 0,792 H 612 V 0 H 0 Z"
           id="path16470"
           style="stroke-width:1" /></g></clipPath><clipPath
       clipPathUnits="userSpaceOnUse"
       id="clipPath16144"><g
         id="g16148"
         style="stroke-width:1"><path
           d="M 0,792 H 612 V 0 H 0 Z"
           id="path16146"
           style="stroke-width:1" /></g></clipPath><clipPath
       clipPathUnits="userSpaceOnUse"
       id="clipPath16006"><g
         id="g16010"
         style="stroke-width:1"><path
           d="M 0,792 H 612 V 0 H 0 Z"
           id="path16008"
           style="stroke-width:1" /></g></clipPath><clipPath
       clipPathUnits="userSpaceOnUse"
       id="clipPath16000"><g
         id="g16004"
         style="stroke-width:1"><path
           d="M 0,792 H 612 V 0 H 0 Z"
           id="path16002"
           style="stroke-width:1" /></g></clipPath><clipPath
       clipPathUnits="userSpaceOnUse"
       id="clipPath15922"><g
         id="g15926"
         style="stroke-width:1"><path
           d="M 0,792 H 612 V 0 H 0 Z"
           id="path15924"
           style="stroke-width:1" /></g></clipPath><clipPath
       clipPathUnits="userSpaceOnUse"
       id="clipPath15910"><g
         id="g15914"
         style="stroke-width:1"><path
           d="M 0,792 H 612 V 0 H 0 Z"
           id="path15912"
           style="stroke-width:1" /></g></clipPath><clipPath
       clipPathUnits="userSpaceOnUse"
       id="clipPath15586"><g
         id="g15590"
         style="stroke-width:1"><path
           d="M 0,792 H 612 V 0 H 0 Z"
           id="path15588"
           style="stroke-width:1" /></g></clipPath><clipPath
       clipPathUnits="userSpaceOnUse"
       id="clipPath15580"><g
         id="g15584"
         style="stroke-width:1"><path
           d="M 0,792 H 612 V 0 H 0 Z"
           id="path15582"
           style="stroke-width:1" /></g></clipPath><clipPath
       clipPathUnits="userSpaceOnUse"
       id="clipPath14674"><g
         id="g14678"
         style="stroke-width:1"><path
           d="M 0,792 H 612 V 0 H 0 Z"
           id="path14676"
           style="stroke-width:1" /></g></clipPath><clipPath
       clipPathUnits="userSpaceOnUse"
       id="clipPath14668"><g
         id="g14672"
         style="stroke-width:1"><path
           d="M 0,792 H 612 V 0 H 0 Z"
           id="path14670"
           style="stroke-width:1" /></g></clipPath><clipPath
       clipPathUnits="userSpaceOnUse"
       id="clipPath14662"><g
         id="g14666"
         style="stroke-width:1"><path
           d="M 0,792 H 612 V 0 H 0 Z"
           id="path14664"
           style="stroke-width:1" /></g></clipPath><clipPath
       clipPathUnits="userSpaceOnUse"
       id="clipPath14566"><g
         id="g14570"
         style="stroke-width:1"><path
           d="M 0,792 H 612 V 0 H 0 Z"
           id="path14568"
           style="stroke-width:1" /></g></clipPath><clipPath
       clipPathUnits="userSpaceOnUse"
       id="clipPath13660"><g
         id="g13664"
         style="stroke-width:1"><path
           d="M 0,792 H 612 V 0 H 0 Z"
           id="path13662"
           style="stroke-width:1" /></g></clipPath><clipPath
       clipPathUnits="userSpaceOnUse"
       id="clipPath13654"><g
         id="g13658"
         style="stroke-width:1"><path
           d="M 0,792 H 612 V 0 H 0 Z"
           id="path13656"
           style="stroke-width:1" /></g></clipPath><clipPath
       clipPathUnits="userSpaceOnUse"
       id="clipPath13648"><g
         id="g13652"
         style="stroke-width:1"><path
           d="M 0,792 H 612 V 0 H 0 Z"
           id="path13650"
           style="stroke-width:1" /></g></clipPath><clipPath
       clipPathUnits="userSpaceOnUse"
       id="clipPath13642"><g
         id="g13646"
         style="stroke-width:1"><path
           d="M 0,792 H 612 V 0 H 0 Z"
           id="path13644"
           style="stroke-width:1" /></g></clipPath><clipPath
       clipPathUnits="userSpaceOnUse"
       id="clipPath13636"><g
         id="g13640"
         style="stroke-width:1"><path
           d="M 0,792 H 612 V 0 H 0 Z"
           id="path13638"
           style="stroke-width:1" /></g></clipPath><clipPath
       clipPathUnits="userSpaceOnUse"
       id="clipPath13630"><g
         id="g13634"
         style="stroke-width:1"><path
           d="M 0,792 H 612 V 0 H 0 Z"
           id="path13632"
           style="stroke-width:1" /></g></clipPath><linearGradient
       id="b-4"
       gradientUnits="userSpaceOnUse"><stop
         offset="0"
         stop-color="#f1ef21"
         id="stop966-3" /><stop
         offset="1"
         stop-color="#f79625"
         id="stop968" /></linearGradient><linearGradient
       id="c-0"
       gradientTransform="matrix(0.94257483,-0.39686508,0.39686508,0.94257483,63.670636,60.758265)"
       x2="1"
       xlink:href="#b-4" /><linearGradient
       id="e-8"
       gradientTransform="matrix(6.6476563,4.762467,-4.762467,6.6476563,142.55616,56.743213)"
       x2="1"
       xlink:href="#b-4" /><linearGradient
       id="g-8"
       gradientTransform="matrix(6.6476563,4.762467,-4.762467,6.6476563,148.03965,49.086833)"
       x2="1"
       xlink:href="#b-4" /><linearGradient
       id="h-8"
       gradientTransform="matrix(6.6476563,4.762467,-4.762467,6.6476563,159.34397,33.311051)"
       x2="1"
       xlink:href="#b-4" /><linearGradient
       id="i-4"
       gradientTransform="matrix(6.6476563,4.762467,-4.762467,6.6476563,134.69803,67.706885)"
       x2="1"
       xlink:href="#b-4" /><linearGradient
       id="j-3"
       gradientTransform="matrix(6.6476563,4.762467,-4.762467,6.6476563,134.51944,67.958239)"
       x2="1"
       xlink:href="#b-4" /><linearGradient
       id="k-1"
       gradientTransform="matrix(6.6476563,4.762467,-4.762467,6.6476563,138.53449,62.355687)"
       x2="1"
       xlink:href="#b-4" /><linearGradient
       id="l-49"
       gradientTransform="matrix(6.6476563,4.762467,-4.762467,6.6476563,138.09793,62.967536)"
       x2="1"
       xlink:href="#b-4" /><linearGradient
       id="m"
       gradientTransform="matrix(1.4882912,1.0914162,-1.0914162,1.4882912,165.83618,28.61139)"
       x2="1"
       xlink:href="#b-4" /><linearGradient
       id="n"
       gradientTransform="matrix(6.6476563,4.762467,-4.762467,6.6476563,137.05282,64.426052)"
       x2="1"
       xlink:href="#b-4" /><linearGradient
       id="o"
       gradientTransform="matrix(6.6476563,4.762467,-4.762467,6.6476563,136.11686,65.729125)"
       x2="1"
       xlink:href="#b-4" /><linearGradient
       id="p"
       gradientTransform="matrix(6.6476563,4.762467,-4.762467,6.6476563,139.66889,60.774802)"
       x2="1"
       xlink:href="#b-4" /><linearGradient
       id="r"
       gradientTransform="matrix(6.6476563,4.762467,-4.762467,6.6476563,125.27556,80.859984)"
       x2="1"
       xlink:href="#b-4" /><linearGradient
       id="t"
       gradientTransform="matrix(6.6476563,4.762467,-4.762467,6.6476563,128.48032,76.388526)"
       x2="1"
       xlink:href="#b-4" /><linearGradient
       id="v"
       gradientTransform="matrix(6.6476563,4.762467,-4.762467,6.6476563,130.2398,73.934515)"
       x2="1"
       xlink:href="#b-4" /><linearGradient
       id="x"
       gradientTransform="matrix(6.6476563,4.762467,-4.762467,6.6476563,131.85707,71.675635)"
       x2="1"
       xlink:href="#b-4" /><linearGradient
       id="z"
       gradientTransform="matrix(6.6476563,4.762467,-4.762467,6.6476563,132.19111,71.212614)"
       x2="1"
       xlink:href="#b-4" /><linearGradient
       id="B"
       gradientTransform="matrix(6.6476563,4.762467,-4.762467,6.6476563,132.39946,70.914958)"
       x2="1"
       xlink:href="#b-4" /><linearGradient
       id="D"
       gradientTransform="matrix(6.6476563,4.762467,-4.762467,6.6476563,142.55616,56.739906)"
       x2="1"
       xlink:href="#b-4" /><linearGradient
       id="F"
       gradientTransform="matrix(6.6476563,4.762467,-4.762467,6.6476563,155.74894,38.328213)"
       x2="1"
       xlink:href="#b-4" /><linearGradient
       id="H"
       gradientTransform="matrix(6.6476563,4.762467,-4.762467,6.6476563,154.53186,40.024854)"
       x2="1"
       xlink:href="#b-4" /><linearGradient
       id="J"
       gradientTransform="matrix(6.6476563,4.762467,-4.762467,6.6476563,154.63769,39.876025)"
       x2="1"
       xlink:href="#b-4" /><linearGradient
       id="L"
       gradientTransform="matrix(6.6476563,4.762467,-4.762467,6.6476563,141.71941,57.910687)"
       x2="1"
       xlink:href="#b-4" /><linearGradient
       id="N"
       gradientTransform="matrix(6.6476563,4.762467,-4.762467,6.6476563,148.17855,48.891703)"
       x2="1"
       xlink:href="#b-4" /><linearGradient
       id="O"
       gradientTransform="matrix(6.6476563,4.762467,-4.762467,6.6476563,152.53426,42.816208)"
       x2="1"
       xlink:href="#b-4" /></defs><path
     id="path16510"
     style="font-weight:bold;font-size:48.6022px;font-family:Helvetica;fill:#000000;stroke-width:0.330733"
     d="M 14.320573 17.562236 C 13.821042 17.571122 13.315354 17.902061 12.812138 18.550806 C 12.00699 19.588799 12.028827 20.470756 12.867948 21.224028 L 13.612089 20.264396 C 13.252529 19.905828 13.25173 19.642877 13.632243 19.152319 C 13.930037 18.768405 14.206723 18.675785 14.462683 18.8743 C 14.590665 18.97356 14.647811 19.120589 14.629081 19.27686 C 14.595401 19.467082 14.595487 19.466683 14.293184 20.0179 L 14.055473 20.471619 C 13.593381 21.331596 13.697561 22.004307 14.387236 22.539193 C 15.076912 23.074079 15.897485 22.970702 16.443441 22.266858 C 16.774324 21.840287 16.894513 21.318476 16.800525 20.676257 C 16.999606 20.830657 17.08688 20.86442 17.272331 20.860225 L 18.111039 19.779154 L 17.990116 19.68562 C 17.694232 19.72942 17.536131 19.698071 17.344161 19.549194 L 15.210958 17.895032 C 14.917668 17.667567 14.620291 17.556904 14.320573 17.562236 z M 15.365987 19.574516 L 15.635738 19.784322 C 16.211654 20.230979 16.31822 20.768862 15.926676 21.273637 C 15.667486 21.607785 15.329997 21.67611 15.045593 21.455538 C 14.746972 21.223938 14.725797 20.957378 14.960327 20.478853 L 15.161348 20.08818 C 15.31562 19.786528 15.334632 19.732381 15.365987 19.574516 z " /><path
     id="path16507"
     style="font-weight:bold;font-size:48.5982px;font-family:Helvetica;fill:#000000;stroke-width:0.330733"
     d="M 18.544088 13.029696 L 17.624764 13.796057 L 18.103288 14.369666 C 17.470783 14.159061 17.006302 14.206619 16.612423 14.53503 C 16.280734 14.811587 16.052718 15.282789 16.021761 15.765446 C 15.971281 16.463514 16.227293 17.163684 16.774687 17.820101 C 17.731184 18.967105 18.996262 19.247542 19.887675 18.504297 C 20.288464 18.170124 20.420788 17.837263 20.419425 17.147274 L 20.840072 17.651636 C 21.214604 18.100764 21.156099 18.67697 20.700028 19.057235 C 20.354519 19.345315 20.013379 19.371719 19.701123 19.151803 L 18.705835 19.981726 C 18.954751 20.266171 19.225562 20.379839 19.654097 20.37395 C 20.152906 20.36805 20.658547 20.145724 21.18372 19.707841 C 22.261708 18.809032 22.479132 17.748981 21.758879 16.885274 L 18.544088 13.029696 z M 17.967896 15.00942 C 18.379066 14.997849 18.861599 15.251134 19.257739 15.726172 C 19.822417 16.403318 19.883561 17.13722 19.399849 17.540531 C 18.978329 17.891989 18.29538 17.676624 17.730701 16.999479 C 17.142974 16.294694 17.030778 15.556367 17.466117 15.193388 C 17.60864 15.074555 17.781 15.014679 17.967896 15.00942 z " /><path
     id="path16504"
     style="font-weight:bold;font-size:48.5998px;font-family:Helvetica;fill:#000000;stroke-width:0.330727"
     d="M 22.977926 10.697538 C 22.635581 10.702036 22.284267 10.78991 21.942847 10.963672 C 20.699949 11.59623 20.395389 12.882216 21.134111 14.333492 C 21.840181 15.720625 23.026955 16.186756 24.253817 15.562358 C 25.224079 15.068555 25.732298 14.123183 25.544177 13.138733 L 24.437268 13.702006 C 24.476448 14.116163 24.265894 14.475726 23.856942 14.683858 C 23.536193 14.8471 23.210097 14.841333 22.927283 14.682308 C 22.741415 14.574998 22.603698 14.403008 22.379513 14.002246 L 25.282178 12.525334 C 25.241218 12.425037 25.220831 12.384573 25.192261 12.328446 C 24.97187 11.895469 24.703321 11.527431 24.443986 11.275798 C 24.024344 10.886494 23.511983 10.690521 22.977926 10.697538 z M 22.787756 11.715564 C 23.139607 11.708552 23.464616 11.930827 23.739636 12.371338 L 22.01571 13.248804 C 21.749128 12.546569 21.866849 12.082793 22.36401 11.829769 C 22.508346 11.75631 22.650076 11.718308 22.787756 11.715564 z " /><path
     id="path16498"
     style="font-weight:bold;font-size:48.6px;font-family:Helvetica;fill:#000000;stroke-width:0.330729"
     d="M 37.937736 7.612972 C 36.70279 7.6077306 36.041395 8.1450234 35.928556 9.2314779 L 37.142436 9.2697184 C 37.221306 8.7681301 37.433482 8.6129305 38.054008 8.632548 C 38.539637 8.647895 38.777378 8.8173143 38.767143 9.1410441 C 38.762043 9.302908 38.676707 9.4354123 38.53925 9.5120809 C 38.365536 9.5966038 38.365537 9.5965956 37.741882 9.6758952 L 37.235453 9.7497925 C 36.26807 9.8812351 35.784571 10.361153 35.756991 11.233423 C 35.729411 12.105692 36.295522 12.708544 37.185844 12.73669 C 37.725431 12.75374 38.21847 12.544128 38.68291 12.090735 C 38.67491 12.342525 38.698711 12.433569 38.811068 12.581144 L 40.178426 12.624036 L 40.183077 12.471073 C 39.973782 12.257424 39.906166 12.111322 39.913843 11.868526 L 39.999109 9.1710164 C 40.030379 8.1818444 39.372173 7.657064 38.059176 7.6155558 C 38.018144 7.6142587 37.977573 7.6131411 37.937736 7.612972 z M 38.730969 10.283093 L 38.720117 10.624674 C 38.697087 11.353066 38.324068 11.755387 37.685555 11.735201 C 37.262876 11.721831 37.009106 11.488736 37.020479 11.129036 C 37.032419 10.751353 37.235988 10.577601 37.761003 10.486182 L 38.195601 10.419002 C 38.530337 10.366572 38.584804 10.350482 38.730969 10.283093 z " /><path
     id="path16495"
     style="font-weight:bold;font-size:48.5991px;font-family:Helvetica;fill:#000000;stroke-width:0.330733"
     d="M 43.040784 8.0780599 C 42.676044 8.0832494 42.284217 8.2181927 41.971598 8.4563314 C 41.411377 8.8759307 41.050026 9.5282926 40.913265 10.371977 C 40.674293 11.846203 41.291998 12.985594 42.43772 13.171289 C 42.952851 13.254779 43.291146 13.136381 43.811279 12.682947 L 43.705859 13.330969 C 43.612289 13.908228 43.13914 14.241947 42.552958 14.14694 C 42.108881 14.07497 41.865062 13.834942 41.826388 13.454993 L 40.547396 13.24777 C 40.495816 13.622207 40.587532 13.901151 40.872957 14.220837 C 41.204478 14.593568 41.703807 14.82974 42.378809 14.93914 C 43.764329 15.1637 44.707234 14.632802 44.887183 13.522689 L 45.690751 8.5669189 L 44.509428 8.3757161 L 44.390055 9.1126221 C 44.134369 8.4969871 43.794046 8.17768 43.287797 8.0956299 C 43.207863 8.0826746 43.124954 8.0768623 43.040784 8.0780599 z M 43.220618 9.1627482 C 43.263286 9.1619383 43.306612 9.164965 43.350326 9.17205 C 43.936507 9.2670549 44.266846 9.9861824 44.122888 10.874272 C 43.981808 11.744599 43.467672 12.271597 42.845964 12.170833 C 42.304189 12.083023 42.018622 11.426272 42.159701 10.555945 C 42.295069 9.7208624 42.717131 9.1723051 43.220618 9.1627482 z " /><path
     style="fill:#000000;stroke-width:1.78647"
     d="m 552.29,465.08101 c 4.391,-2.853 -9.956,-8.269 -9.956,-8.269 0,0 -56.329,-99.704 -59.906,-114.919 -3.577,-15.213 -0.58,-27.369 -2.532,-33.075 -1.951,-5.705 -5.568,-3.881 -5.568,-3.881 0,0 12.435,-17.812 6.581,-24.468 -5.852,-6.657 -18.956,19.619 -58.246,29.502 -20.161,5.071 -48.828,9.14 -51.104,5.654 -2.137,-3.275 -4.219,-7.819 -7.103,-12.627 -3.738,-6.231 -12.94,2.09 -12.641,7.002 0.813,13.312 13.722,16.483 19.576,23.456 5.853,6.973 12.412,20.785 23.961,33.244 12.196,13.153 59.232,65.306 133.82,90.956 3.068,1.056 20.413,9.183 23.118,7.425"
     transform="matrix(0.18513676,0,0,-0.18512294,-5.16431,98.18359)"
     id="path9779" /><path
     style="fill:#000000;stroke-width:1.78647"
     d="m 464.51657,193.75423 c 0.81863,-2.26901 1.49181,-4.2716 1.73282,-5.4375 1.27603,-6.17298 18.30875,-47.16174 19.95,-49.54844 1.44928,-2.10757 16.19929,-25.81913 22.24687,-37.62344 4.16487,2.95137 16.80038,15.73835 13.01875,61.875 0,0 -39.68938,14.7636 -56.94844,30.73438 z"
     transform="matrix(0.18513676,0,0,-0.18512294,-5.16431,98.18359)"
     id="path122250" /><path
     style="fill:#000000;stroke-width:1.78647"
     d="m 299.58845,306.79485 c -2.8785,-0.0615 -8.07483,-3.93724 -13.4875,-9.3 0.15835,-1.19394 0.29872,-2.23974 0.40938,-2.84844 0.675,-3.71199 12.15,-19.40468 12.15,-19.40468 0,0 -2.53076,-22.78125 -4.21875,-22.10625 -1.687,0.67399 -12.99532,17.88593 -12.99532,17.88593 0,0 -4.72419,-2.02393 -9.61718,-0.33593 -1.33984,0.46185 -2.52166,1.29467 -3.54063,2.25468 -0.16605,-0.40951 -0.3618,-0.83369 -0.50156,-1.22968 -9.69998,-27.48195 1.08871,-70.34963 10.67969,-72.69063 9.30898,-2.273 7.76995,1.365 15.28593,-0.675 17.16697,-4.65998 41.63808,-15.94502 46.81407,-30.825 13.28897,-38.20492 13.81803,-99.68604 33.29999,-123.3 59.39989,-71.99986 185.85742,-47.0089 176.39844,0 -1.911,9.50298 -24.20846,19.71004 -38.69844,34.2 -0.7572,0.75711 -1.38321,1.57449 -1.94843,2.41407 -0.95494,-2.15285 -2.04863,-4.01871 -2.94063,-5.41563 -2.72496,-4.26742 -18.89444,-7.08549 -23.37812,-7.35156 -4.48368,-0.26607 -36.6582,-1.1701 -58.88907,16.08593 -22.23084,17.25606 -33.12414,38.09367 -48.18906,61.09532 -13.10008,20.00166 -17.7843,71.37262 -18.78593,84.45625 -37.28398,12.85296 -45.7312,49.55862 -55.78594,75.75625 -0.36038,0.93862 -1.07503,1.35543 -2.06094,1.33437 z"
     transform="matrix(0.18513676,0,0,-0.18512294,-5.16431,98.18359)"
     id="path9889" /><path
     style="fill:#000000;stroke-width:1.78647"
     d="m 298.2,274.90101 c -0.53,-0.794 -11.7,14.175 -13.726,20.7 -2.024,6.525 -0.449,14.625 -5.849,20.25 -5.401,5.625 -29.026,1.575 -30.6,0.675 -1.575,-0.9 -9.225,-9.675 -7.2,-14.85 2.024,-5.175 10.575,-0.45 10.575,-0.45 v -2.025 c 0,0 -7.2,-5.85 -3.375,-11.025 3.824,-5.175 9.449,3.15 9.449,3.15 0,0 3.151,0.9 1.801,-0.9 -1.35,-1.8 -2.7,-4.95 -1.575,-8.55 1.125,-3.6 4.95,-1.575 4.95,-1.575 l 0.9,-2.25 c 0,0 -5.85,-0.9 -6.75,0.675 -0.9,1.575 -1.35,5.4 -0.9,8.1 -1.125,-0.225 -4.5,-4.275 -9.9,-0.225 -3.746,2.809 0,11.25 0,11.25 0,0 -6.75,-2.7 -7.651,2.25 -0.899,4.95 2.926,17.1 10.576,19.125 7.65,2.025 27.9,2.925 32.174,-1.125 4.276,-4.05 5.176,-13.05 6.976,-20.475 3.299,-13.61 11.925,-20.025 10.125,-22.725"
     transform="matrix(0.18513676,0,0,-0.18512294,-5.16431,98.18359)"
     id="path9923" /><path
     style="fill:#000000;stroke:none;stroke-width:0.330729"
     d="m 32.799834,21.884983 c -0.374902,4.748404 7.016313,18.264785 8.48741,18.816636 l 0.593548,-0.531117 C 37.590248,36.005236 33.632949,24.092574 32.799834,21.884983 Z"
     id="path9929" /><path
     style="fill:#000000;stroke-width:0.330729"
     d="m 47.662613,43.698019 c -0.124967,0.687177 1.608468,-2.369018 2.630423,-1.985999 1.070646,0.401532 1.109895,3.591571 2.207756,5.997984 1.08305,2.374387 5.022205,8.091168 8.687913,7.799599 0.350464,-0.02795 -0.982151,-0.359138 -2.856105,-1.801616 -2.09149,-1.609829 -4.863913,-4.777098 -5.456906,-6.622773 -1.402966,-4.364088 -1.548669,-5.64699 -2.291067,-5.873026 -1.524046,-0.463732 -2.797047,1.79847 -2.922014,2.485831"
     id="path9931" /><path
     style="fill:#000000;stroke-width:0.330729"
     d="m 80.753958,46.824746 c 0,0 2.624313,-1.155908 3.217862,-0.09367 0.845334,1.512639 -1.811934,5.68568 -2.967743,5.654395 -1.156179,-0.03129 -1.406113,-1.155908 -1.406113,-1.155908 l 0.187543,-0.499832 c 0,0 0.624837,1.187008 1.249673,0.999664 0.624837,-0.187344 3.124183,-3.842412 2.343091,-4.59216 -0.48765,-0.46799 -2.218309,0.156059 -2.468058,0.21863 -0.249935,0.06257 -0.156255,-0.531117 -0.156255,-0.531117"
     id="path10219" /><path
     style="fill:#000000;stroke-width:0.330729"
     d="m 81.120528,46.356385 c -1.094713,0.525379 -2.040947,4.227652 -1.749357,6.185513 0.499684,-2.665771 1.749357,-6.185513 1.749357,-6.185513"
     id="path10221" /><path
     style="fill:#000000;stroke-width:0.330729"
     d="m 67.374124,93.590503 c 0,0 -4.030242,-0.530933 -4.467535,1.03095 -0.290665,1.038539 1.140072,2.761478 3.343014,3.186336 4.373856,0.843605 8.029011,-1.311967 8.029011,-1.311967 0,0 -1.062129,-0.124958 -1.530896,-0.21863 -0.468581,0.468546 -4.248888,1.499311 -6.279653,0.905807 -1.422221,-0.415786 -2.999216,-1.218294 -2.905352,-2.374202 0.119229,-1.468765 4.498824,-0.530933 4.498824,-0.530933 z"
     id="path10223" /><path
     style="fill:#000000;stroke-width:0.330729"
     d="m 89.742347,97.68172 c 0.437293,0.531118 4.811149,2.62412 6.716947,2.280344 1.905798,-0.343403 2.267555,-1.136469 2.230157,-2.08541 -0.04147,-1.062235 -3.323389,-3.818716 -3.323389,-3.818716 l -0.531343,0.62479 c 0,0 2.999216,2.412522 2.999216,3.155236 0,0.499832 0.20439,0.884147 -1.46832,1.374537 -1.812119,0.531118 -5.935855,-1.968042 -5.935855,-1.968042 0,0 -1.124706,-0.09386 -0.687413,0.437261"
     id="path10225" /><path
     style="fill:#000000;stroke-width:0.330729"
     d="m 87.150433,69.348654 c 0,1.187008 -3.061792,1.624269 -3.155471,1.405638 -0.09368,-0.21863 1.78083,-0.499646 3.155471,-1.405638"
     id="path10227" /><path
     style="fill:#000000"
     d="m 12.619927,12.008674 -1.086382,-0.450959 -0.987335,0.639229 0.09331,-1.172568 -0.9130943,-0.741418 1.1439603,-0.273611 0.422852,-1.0974091 0.613914,1.0031812 1.174507,0.063127 -0.764615,0.8937739 z"
     id="path10477" /><path
     style="fill:#000000"
     d="M 3.6222806,27.658968 2.5358981,27.207823 1.5485638,27.847053 1.6418728,26.674669 0.72877831,25.933252 1.8727383,25.65964 2.2957758,24.562231 2.9095042,25.565412 4.0840118,25.628542 3.319397,26.522316 Z"
     id="path10481" /><path
     style="fill:#000000"
     d="m 17.785243,41.237735 -1.086383,-0.450959 -0.987334,0.639229 0.09331,-1.172383 -0.91291,-0.741603 1.143775,-0.273611 0.423038,-1.097409 0.613728,1.003366 1.174693,0.06313 -0.764615,0.893774 z"
     id="path10509" /><path
     style="fill:#000000"
     d="m 29.115612,21.03712 -1.086382,-0.450959 -0.987334,0.639229 0.09331,-1.172383 -0.913095,-0.741418 1.14396,-0.273797 0.423038,-1.097408 0.613728,1.003181 1.174508,0.06331 -0.764615,0.893588 z"
     id="path10513" /><path
     style="fill:#000000"
     d="m 38.237301,19.541327 -1.142109,0.281017 -0.416187,1.099815 -0.620209,-0.999294 -1.174692,-0.05591 0.75869,-0.898587 -0.309919,-1.134618 1.089345,0.444295 0.983261,-0.645524 -0.0859,1.172939 z"
     id="path10517" /><path
     style="fill:#000000"
     d="m 41.551249,27.499762 -1.086383,-0.450959 -0.987334,0.639229 0.09331,-1.172383 -0.91291,-0.741603 1.143775,-0.273612 0.423038,-1.097408 0.613728,1.003366 1.174693,0.06313 -0.7648,0.893588 z"
     id="path10521" /><path
     style="fill:#000000"
     d="m 64.711857,22.003462 -1.086382,-0.450959 -0.987335,0.639229 0.09331,-1.172384 -0.913094,-0.741602 1.14396,-0.273612 0.423037,-1.097409 0.613729,1.003182 1.174507,0.06313 -0.764429,0.893773 z"
     id="path10525" /><path
     style="fill:#000000"
     d="m 48.058806,25.87068 -0.821637,-0.841569 -1.159327,0.199748 0.546524,-1.041502 -0.54819,-1.040576 1.159512,0.197897 0.820341,-0.842865 0.169955,1.163683 1.05528,0.51964 -1.054354,0.521306 z"
     id="path10529" /><path
     style="fill:#000000"
     d="m 26.327453,28.071792 -0.781833,-0.878594 -1.167102,0.145877 0.594104,-1.015029 -0.499499,-1.064827 1.149144,0.251212 0.858294,-0.803989 0.116266,1.170347 1.029916,0.567772 -1.077311,0.472249 z"
     id="path10533" /><path
     style="fill:#000000"
     d="m 47.54968,3.8410503 -1.086198,-0.4509594 -0.987519,0.6392295 0.09331,-1.1723836 -0.913095,-0.7414174 1.14396,-0.2736117 0.423038,-1.0975939 0.613728,1.0033663 1.174508,0.063127 -0.76443,0.8937735 z"
     id="path10537" /><path
     style="fill:#000000"
     d="M 24.002135,3.6985057 22.827442,3.6400068 22.113185,4.5743223 21.805858,3.4391484 20.696518,3.048539 21.681261,2.4056071 21.709772,1.2298913 22.625643,1.9676062 23.752756,1.6314229 23.334162,2.7304978 Z"
     id="path10541" /><path
     style="fill:#000000;stroke-width:0.330729"
     d="m 63.625105,39.753049 c 0,0 -1.145627,1.499496 -1.291329,2.082634 -0.145703,0.583137 0.04165,1.999327 0.04165,1.999327 0,0 -1.582919,1.791065 -1.916165,3.373866 -0.333061,1.582801 0.124967,1.999328 0.124967,1.999328 l 0.261969,-0.53408 c 0,0 -0.366016,-0.434298 -0.157737,-1.350657 0.208279,-0.916359 1.46832,-2.811462 1.968374,-3.248908 0.226052,-0.197896 -0.312511,-1.436924 -0.09386,-2.124285 0.218646,-0.687362 1.437031,-2.249244 1.437031,-2.249244 z"
     id="path10883" /><path
     style="font-weight:bold;font-size:48.5982px;font-family:Helvetica;fill:#000000;stroke-width:0.330733"
     d="m 5.8272787,29.148326 -0.3487479,1.303662 6.3362682,1.694788 0.348748,-1.303662 z"
     id="path16516" /><path
     style="font-weight:bold;font-size:48.5998px;font-family:Helvetica;fill:#000000;stroke-width:0.330727"
     d="m 7.8067837,27.931595 4.4369943,1.979786 0.513316,-1.150245 -2.662197,-1.187873 C 9.5443814,27.327624 9.3559279,26.88886 9.5759199,26.3959 9.7482474,26.009746 10.076427,25.870469 10.429744,26.028118 l 2.957995,1.319858 0.513316,-1.150247 -2.662196,-1.18787 c -0.542299,-0.241975 -0.73897,-0.684402 -0.518977,-1.177366 0.172327,-0.386153 0.500507,-0.52543 0.853823,-0.36778 l 2.957996,1.319856 0.513316,-1.150244 -3.138762,-1.400516 c -0.862749,-0.384958 -1.606841,-0.08644 -2.0028275,0.800893 -0.252991,0.566906 -0.2281188,1.04105 0.078019,1.591437 -0.5143793,0.02664 -0.9506558,0.36398 -1.1963143,0.914456 -0.2273252,0.509393 -0.2096544,0.911362 0.081817,1.49461 l -0.550516,-0.245639 z"
     id="path16513" /><path
     style="font-weight:bold;font-size:48.601px;font-family:Helvetica;fill:#000000;stroke-width:0.330729"
     d="m 29.503528,8.1065828 1.932489,4.8755792 1.334384,-0.202571 0.380443,-5.2267017 0.767127,5.0524897 1.334384,-0.20257 -0.98457,-6.4846237 -2.010472,0.3052085 -0.35534,5.3320942 -1.957592,-4.9809716 -1.992681,0.3025076 0.984571,6.484621 1.334384,-0.20257 z"
     id="path16501" /><path
     style="font-weight:bold;font-size:48.6023px;font-family:Helvetica;fill:#000000;stroke-width:0.330733"
     d="m 48.886797,7.6256315 -1.219992,-0.313887 -0.280277,1.0891949 1.21999,0.313887 z"
     id="path122180" /><path
     style="font-weight:bold;font-size:48.6023px;font-family:Helvetica;fill:#000000;stroke-width:0.330733"
     d="m 48.463017,9.2724963 -1.219992,-0.313887 -1.210797,4.7053307 1.219991,0.313887 z"
     id="path16492" /><path
     style="font-weight:bold;font-size:48.5993px;font-family:Helvetica;fill:#000000;stroke-width:0.330733"
     d="m 53.200113,12.717869 c 0.304081,-1.15152 -0.202638,-2.079473 -1.358773,-2.480325 -1.37716,-0.4774838 -2.480201,0.149442 -3.02257,1.713505 -0.524683,1.51306 -0.04065,2.671208 1.319509,3.142797 1.113627,0.386115 2.125977,-0.0342 2.616737,-1.092423 l -1.139131,-0.394956 c -0.350853,0.544917 -0.668466,0.691897 -1.144521,0.526841 -0.60357,-0.209268 -0.774909,-0.868584 -0.462457,-1.769618 0.153278,-0.44202 0.376827,-0.81206 0.61567,-1.033965 0.224445,-0.207851 0.535138,-0.252486 0.875177,-0.134588 0.484556,0.168003 0.634495,0.477093 0.561227,1.127776 z"
     id="path16489" /><path
     style="font-weight:bold;font-size:48.6011px;font-family:Helvetica;fill:#000000;stroke-width:0.330733"
     d="m 55.062287,13.63574 1.52509,-3.249868 -1.140391,-0.5350794 -2.786439,5.9377314 1.140388,0.535077 0.676544,-1.441669 0.689314,-0.282817 0.141089,2.431556 1.335884,0.626806 -0.320407,-3.489664 2.278543,-0.95834 -1.295156,-0.607696 z"
     id="path16486" /><path
     style="fill:#000000;stroke-width:1.78647"
     d="m 359.96,375.75 c -7.425,-37.463 22.324,-172.932 110.7,-176.175 36.788,-1.35 38.667,11.059 37.8,17.887 -2.699,21.263 -46.123,64.163 -52.312,135.338 -1.677,19.286 6.764,24.187 6.764,24.187 l 2.925,-0.674 c 0,0 -2.485,-5.105 -4.289,-9.675 -5.063,-12.826 8.19,-51.571 9.787,-59.401 7.088,-34.762 45.226,-78.974 42.188,-94.162 -4.351,-21.755 -39.676,-26.633 -73.238,-12.488 -40.837,17.213 -93.825,88.426 -83.7,175.838 z"
     transform="matrix(0.18513676,0,0,-0.18512294,-5.16431,121.78843)"
     id="path10931" /><path
     style="fill:#000000;stroke-width:1.78647"
     d="m 506.56,227.59 c 10.351,4.5 17.84,59.801 10.576,62.775 -23.626,9.675 -44.1,18.675 -50.85,31.276 l -2.026,5.399 c 0,0 18,-21.825 56.251,-33.075 11.328,-3.331 -1.125,-65.475 -11.926,-70.425 z"
     transform="matrix(0.18513676,0,0,-0.18512294,-5.16431,121.78843)"
     id="path10933" /><path
     style="fill:#000000;stroke-width:1.78647"
     d="m 503.35,276.69 c 0,0 -9.819,-2.521 -21.263,-4.387 15.242,-2.869 21.263,4.387 21.263,4.387"
     transform="matrix(0.18513676,0,0,-0.18512294,-5.16431,121.78843)"
     id="path10935" /><path
     style="fill:#000000;stroke-width:1.78647"
     d="m 268.05,400.84 c -10.35,-24.075 -4.433,-71.627 7.327,-75.881 7.931,-2.869 14.175,-1.35 17.873,0.731 33.117,-17.759 41.451,-27.64 46.575,-34.425 3.996,-5.292 6.516,-29.688 10.35,-54.562 4.153,-26.95 10.059,-55.003 26.775,-74.588 26.212,-30.712 150.413,-65.475 174.374,-1.688 2.774,7.382 0,16.538 -2.699,18.226 -16.038,10.023 -30.712,23.287 -38.475,33.412 -1.688,-2.362 -3.712,1.35 -1.688,-4.388 2.026,-5.737 18.039,-18.092 23.625,-24.299 3.038,-3.375 13.838,-6.413 14.851,-12.151 8.691,-49.254 -99.256,-56.186 -161.663,-10.8 -18.752,13.639 -24.228,45.017 -29.025,77.625 -2.802,19.038 -5.539,40.247 -10.8,53.663 -6.75,17.212 -37.462,30.712 -50.85,36.9 1.125,3.375 4.5,6.975 2.025,11.25 -7.2,-16.875 -18,-10.35 -18,-10.35 0,0 -17.325,-0.9 -10.575,71.325"
     transform="matrix(0.18513676,0,0,-0.18512294,-5.16431,121.78843)"
     id="path11043" /><path
     style="fill:#000000;stroke-width:1.78647"
     d="m 298.2,423.79 c 8.55,-28.8 -8.101,-104.175 -21.601,-80.55 13.5,-14.401 22.276,58.95 21.601,80.55"
     transform="matrix(0.18513676,0,0,-0.18512294,-5.16431,121.78843)"
     id="path11089-2" /><path
     style="fill:#000000;stroke-width:1.78647"
     d="m 277.95,431.66 c 0,0 -2.476,-4.05 -8.55,-2.925 -6.075,1.125 -8.325,5.4 -10.35,10.125 -9.9,-0.9 -6.525,-10.8 -4.951,-13.725 1.576,-2.925 10.801,-8.775 10.801,-8.775 0,0 -2.25,-7.875 4.5,-13.95 5.559,-5.003 12.375,-1.575 12.375,-1.575 l 13.725,-21.6 c 0,0 -9.901,4.5 -15.526,17.325 -2.699,-1.575 -8.549,-0.9 -11.474,2.025 -2.925,2.925 -8.1,4.05 -6.75,16.875 -4.95,2.475 -4.377,1.477 -9.675,8.1 -7.2,9 0.45,20.025 7.2,18.225 4.198,-1.12 6.074,-6.75 9.675,-8.55 3.6,-1.8 9,-1.575 9,-1.575"
     transform="matrix(0.18513676,0,0,-0.18512294,-5.16431,121.78843)"
     id="path11091" /><path
     style="fill:#000000;stroke-width:1.78647"
     d="m 515,203.96 c 0,0 19.322,4.903 11.476,22.95 -1.688,3.882 -6.582,1.351 -6.582,1.351 0,0 0.844,4.724 -4.05,4.724 -4.894,0 -4.556,-3.712 -4.556,-3.712 0,0 3.719,3.594 5.737,1.35 3.038,-3.375 -2.869,-11.981 -7.255,-14.006 5.061,-4.894 12.058,13.906 14.511,8.944 7.425,-15.019 -9.45,-20.081 -11.643,-17.888 -0.754,0.755 2.362,-3.713 2.362,-3.713"
     transform="matrix(0.18513676,0,0,-0.18512294,-5.16431,121.78843)"
     id="path11117-7" /><path
     style="fill:#000000;stroke-width:1.78647"
     d="m 470.11,402.75 c 0,-1.181 -5.021,-8.269 -5.021,-8.269 0,0 4.05,0.675 4.05,-2.194 0,-2.868 -4.556,-4.05 -4.556,-4.05 0,0 8.269,-1.856 6.75,4.725 -1.004,4.354 -4.387,3.375 -4.387,3.375 l 5.357,5.738 -2.193,0.675"
     transform="matrix(0.18513676,0,0,-0.18512294,-5.16431,121.78843)"
     id="path11121-0" /><path
     style="fill:#000000;stroke-width:1.78647"
     d="m 413.41,372.49 c 8.774,0.225 28.181,-2.981 33.412,13.219 2.537,7.855 4.557,15.019 2.362,28.856 -1.5,9.463 -17.099,18.9 -17.099,20.925 0,2.025 15.412,-9.506 18.787,-18.731 1.493,-4.081 3.421,-19.879 -2.813,-33.694 -8.324,-18.45 -33.074,-11.025 -34.649,-10.575"
     transform="matrix(0.18513676,0,0,-0.18512294,-5.16431,121.78843)"
     id="path11229-9" /><path
     id="path11231"
     style="fill:#000000;stroke-width:1.78647"
     d="M 367.95065 405.22868 C 367.35428 405.21917 366.75504 405.17896 366.15029 405.10865 C 362.07129 404.63465 345.89907 390.26126 352.87507 377.88627 C 359.85006 365.51129 372.75711 377.97213 377.6391 378.78513 C 380.3391 379.23513 389.55133 367.30995 402.60131 367.98495 C 415.6503 368.65995 423.75043 375.1854 426.00042 387.33539 C 427.81154 397.11539 400.19011 398.99449 389.22561 399.3666 A 5.7303268 7.4173171 0 0 0 387.23544 396.97432 C 394.78223 396.50634 422.13457 394.49653 422.52531 389.41782 C 422.79431 385.93382 422.18925 371.69752 402.61527 370.34653 C 394.48528 369.78653 378.07505 381.48616 377.39905 381.26116 C 376.72505 381.03616 362.03886 370.52137 355.36487 378.44736 C 349.96487 384.85935 357.38914 401.7343 369.20113 402.4093 C 373.84259 402.6745 377.41451 400.94392 379.79953 399.107 A 5.7303268 7.4173171 0 0 0 378.75281 402.63262 C 375.74782 404.05618 371.96865 405.29273 367.95065 405.22868 z M 382.47635 396.48302 C 382.96302 395.855 383.24953 395.36044 383.24953 395.21011 C 383.24953 395.21011 383.83624 395.54742 384.43302 396.0308 A 5.7303268 7.4173171 0 0 0 382.47635 396.48302 z "
     transform="matrix(0.18513676,0,0,-0.18512294,-5.16431,121.78843)" /><path
     id="path11533-3"
     style="fill:#000000;stroke-width:1.78647"
     d="M 376.99153 439.03333 C 375.54694 438.99309 374.05765 438.4478 372.65112 437.08768 C 363.62213 428.35569 366.40052 410.78983 367.99252 409.42984 C 369.58351 408.06984 371.17862 409.8328 369.80962 410.4878 C 366.96763 411.8478 366.5155 431.49319 374.13049 435.87618 C 379.73249 439.10118 383.40389 433.78111 384.47489 431.64711 C 387.42989 425.75212 382.6531 411.69813 378.7891 408.22113 C 379.18854 407.68991 379.62903 407.5843 380.10657 407.82195 A 3.4687272 3.9879018 0 0 0 383.07089 411.68255 C 388.53883 421.09538 387.45786 431.4557 385.15596 434.51674 C 384.09365 435.92908 380.68326 439.13616 376.99153 439.03333 z "
     transform="matrix(0.18513676,0,0,-0.18512294,-5.16431,121.78843)" /><path
     style="fill:#000000;stroke-width:1.78647"
     d="m 385.9,421.65 c -5.737,4.05 -5.837,9.381 -18.159,5.585 5.849,6.75 15.628,4.877 18.159,-5.585"
     transform="matrix(0.18513676,0,0,-0.18512294,-5.16431,121.78843)"
     id="path11535" /><path
     style="fill:#000000;stroke-width:1.78647"
     d="m 369.26,416.73 c -2.593,1.212 -3.427,4.775 -1.862,7.959 1.565,3.184 4.935,4.783 7.528,3.571 2.594,-1.211 3.427,-4.774 1.862,-7.959 -1.564,-3.183 -4.934,-4.782 -7.528,-3.571"
     transform="matrix(0.18513676,0,0,-0.18512294,-5.16431,121.78843)"
     id="path11537-6" /><path
     style="fill:#000000;stroke-width:1.78647"
     d="m 405.05,411.4 c -3.209,1.538 -4.241,6.061 -2.305,10.102 1.937,4.041 6.108,6.07 9.317,4.533 3.21,-1.538 4.242,-6.061 2.304,-10.102 -1.936,-4.041 -6.107,-6.071 -9.316,-4.533"
     transform="matrix(0.18513676,0,0,-0.18512294,-5.16431,121.78843)"
     id="path11569-0" /><path
     style="fill:#000000;stroke-width:1.78647"
     d="m 428.43,415.91 c -8.269,5.737 -11.644,12.825 -26.156,10.125 10.631,7.087 21.937,0.337 26.156,-10.125"
     transform="matrix(0.18513676,0,0,-0.18512294,-5.16431,121.78843)"
     id="path11871" /><path
     style="fill:#000000;stroke-width:1.78647"
     d="m 424.72,397.85 c -6.823,2.589 -16.537,5.4 -24.131,3.712 -4.05,-0.675 -3.375,0.338 -0.506,1.519 13.073,5.383 22.275,0 24.637,-5.231"
     transform="matrix(0.18513676,0,0,-0.18512294,-5.16431,121.78843)"
     id="path11873-6" /><path
     style="fill:#000000;stroke-width:1.78647"
     d="m 418.13,402.07 c 5.737,3.881 11.644,19.406 7.257,25.987 -1.589,2.383 -5.858,8.494 -14.176,4.894 -11.306,-4.894 -10.631,-26.831 -6.412,-28.35 2.034,-0.732 -0.338,-2.7 -2.7,-1.181 -2.363,1.519 -6.488,21.131 6.919,30.881 7.424,5.4 14.849,-0.675 17.044,-2.869 3.768,-3.768 6.853,-17.446 -4.388,-28.687 -1.35,-1.35 -2.531,-1.688 -3.544,-0.675"
     transform="matrix(0.18513676,0,0,-0.18512294,-5.16431,121.78843)"
     id="path11875" /><path
     style="fill:#000000;stroke-width:1.78647"
     d="m 379.15,405.95 c -4.519,1.794 -9.483,2.688 -14.512,1.519 -2.681,-0.468 -2.184,0.782 -0.284,1.6 8.872,3.823 13.466,-0.036 14.796,-3.119"
     transform="matrix(0.18513676,0,0,-0.18512294,-5.16431,121.78843)"
     id="path11877-2" /><path
     style="fill:#000000;stroke-width:1.78647"
     d="m 391.47,405.62 c -1.856,1.013 -4.08,6.982 -7.313,6.244 -5.174,-1.181 -5.513,-12.535 -2.981,-14.344 3.544,-2.531 6.919,1.35 10.125,3.713 0.338,-2.363 -3.486,-6.955 -7.594,-7.088 -5.231,-0.169 -6.919,6.581 -6.244,10.8 0.676,4.219 2.869,8.775 6.413,9.281 3.544,0.507 8.438,-5.568 7.594,-8.606"
     transform="matrix(0.18513676,0,0,-0.18512294,-5.16431,121.78843)"
     id="path11879" /><path
     style="fill:#000000;stroke-width:1.78647"
     d="m 554.15,593.77 c 4.556,-3.038 -10.969,-10.462 -10.969,-10.462 0,0 -54.169,-95.851 -57.881,-112.05 -3.713,-16.2 -1.687,-29.194 -3.713,-35.269 -2.025,-6.075 -3.375,-6.244 -3.375,-6.244 0,0 11.475,-18.225 5.401,-25.312 -6.075,-7.088 -16.596,20.864 -57.375,31.387 -20.926,5.4 -63.113,8.775 -65.476,5.063 -2.362,-3.713 10.463,-7.088 5.063,-12.488 -5.4,-5.4 -16.68,3.882 -16.368,9.113 0.843,14.175 15.018,17.719 21.093,25.143 6.075,7.425 14.168,22.171 26.157,35.438 12.656,14.006 61.761,65.643 140.061,92.138 3.2,1.082 12.151,1.518 6.75,-0.507 -89.294,-33.485 -117.056,-66.887 -142.706,-94.162 -23.962,-25.482 -18.281,-30.713 -29.25,-38.138 -9.688,-6.559 -17.887,-14.175 -17.887,-17.213 0,-3.037 6.075,-8.774 7.087,-7.424 1.013,1.35 -4.893,4.387 -3.375,9.787 0.738,2.619 35.09,5.694 69.188,-2.869 38.306,-9.619 51.838,-32.639 53.325,-30.543 3.713,5.231 -11.549,30.407 -12.656,36.449 -1.857,10.125 7.762,-10.293 8.606,-11.474 5.034,2.936 1.492,27.68 5.737,38.812 21.432,56.194 59.569,112.556 59.569,112.556 0,0 13.163,6.75 10.295,6.581 -0.907,-0.053 -11.701,-3.487 -11.701,-3.487 l -3.431,1.463 c 0,0 15.022,5.584 17.831,3.712"
     transform="matrix(0.18513676,0,0,-0.18512294,-5.16431,121.78843)"
     id="path11881-6" /><style
     type="text/css"
     id="style22828">
	.st0{fill:#656565;}
	.st1{fill:url(#SVGID_1_);}
	.st2{fill:url(#SVGID_2_);}
	.st3{opacity:0.444;fill:url(#SVGID_3_);enable-background:new    ;}
</style></svg>
