<?xml version="1.0" encoding="UTF-8" standalone="no"?>
<!-- Created with Inkscape (http://www.inkscape.org/) -->

<svg
   width="20mm"
   height="30.876814mm"
   viewBox="0 0 75.590553 116.69977"
   version="1.1"
   id="svg5"
   xml:space="preserve"
   sodipodi:docname="photocopie.svg"
   inkscape:version="1.2.2 (b0a8486541, 2022-12-01)"
   xmlns:inkscape="http://www.inkscape.org/namespaces/inkscape"
   xmlns:sodipodi="http://sodipodi.sourceforge.net/DTD/sodipodi-0.dtd"
   xmlns="http://www.w3.org/2000/svg"
   xmlns:svg="http://www.w3.org/2000/svg"><sodipodi:namedview
     id="namedview29"
     pagecolor="#505050"
     bordercolor="#eeeeee"
     borderopacity="1"
     inkscape:showpageshadow="0"
     inkscape:pageopacity="0"
     inkscape:pagecheckerboard="0"
     inkscape:deskcolor="#505050"
     inkscape:document-units="mm"
     showgrid="false"
     inkscape:zoom="8.4259194"
     inkscape:cx="33.112114"
     inkscape:cy="93.164907"
     inkscape:window-width="960"
     inkscape:window-height="1011"
     inkscape:window-x="960"
     inkscape:window-y="32"
     inkscape:window-maximized="0"
     inkscape:current-layer="text2554-3-7" /><defs
     id="defs2"><rect
       x="192.00946"
       y="523.8175"
       width="249.31531"
       height="55.332729"
       id="rect427" /><rect
       x="215.93127"
       y="474.22162"
       width="208.46207"
       height="123.29173"
       id="rect2548" /></defs><text
     xml:space="preserve"
     id="text2546"
     style="font-size:16px;line-height:1.25;font-family:Cantarell;-inkscape-font-specification:Cantarell;white-space:pre;shape-inside:url(#rect2548);display:inline"
     transform="translate(-256.51115,-203.52504)" /><text
     xml:space="preserve"
     id="text425"
     style="font-size:16px;line-height:1.25;font-family:Cantarell;-inkscape-font-specification:Cantarell;white-space:pre;shape-inside:url(#rect427);display:inline"
     transform="translate(-256.51115,-203.52504)" /><text
     xml:space="preserve"
     style="font-size:16px;line-height:1.25;font-family:Cantarell;-inkscape-font-specification:Cantarell"
     x="-55.039089"
     y="340.89609"
     id="text433"><tspan
       sodipodi:role="line"
       id="tspan431"
       x="-55.039089"
       y="340.89609" /></text><g
     id="g1855"
     transform="matrix(0.26528076,0,0,0.26528076,-46.175168,-53.910108)"><rect
       style="font-variation-settings:normal;fill:#ffffff;fill-opacity:1;fill-rule:evenodd;stroke:#000000;stroke-width:7.55906;stroke-linecap:round;stroke-linejoin:round;stroke-miterlimit:4;stroke-dasharray:none;stroke-dashoffset:0;stroke-opacity:1;paint-order:markers fill stroke;stop-color:#000000"
       id="rect2492"
       width="277.38641"
       height="432.35135"
       x="177.84103"
       y="206.9986"
       ry="30.312901"
       rx="30.312902" /><circle
       style="font-variation-settings:normal;fill:none;fill-opacity:1;fill-rule:evenodd;stroke:#000000;stroke-width:11.3386;stroke-linecap:round;stroke-linejoin:round;stroke-miterlimit:4;stroke-dasharray:none;stroke-dashoffset:0;stroke-opacity:1;paint-order:markers fill stroke;stop-color:#000000"
       id="path2490"
       cx="316.53421"
       cy="346.18768"
       r="115.75143" /><g
       id="g1160"
       transform="translate(-3.7409251,-44.517335)"
       style="stroke:#000000"><g
         aria-label="LA PHOTOCOPIE"
         id="text2554-3"
         style="font-weight:600;font-size:46.4283px;line-height:1.25;font-family:'Built Titling';-inkscape-font-specification:'Built Titling Semi-Bold';letter-spacing:1.8848px;stroke-width:0.999997"><path
           d="m 217.9437,561.39423 v -6.08211 h -6.87139 V 526.248 h -5.71068 v 35.14623 z"
           id="path385" /><path
           d="M 237.70337,561.39423 234.3141,526.248 h -9.61065 l -3.62141,35.14623 h 5.71068 l 0.69642,-8.82138 h 3.62141 l 0.69643,8.82138 z m -6.82496,-14.39278 h -3.15712 l 1.39284,-14.99634 h 0.41786 z"
           id="path387" /><path
           d="m 257.39788,561.39423 v -10.95708 h 3.20355 c 5.38568,0 6.77853,-3.24998 6.77853,-12.3035 0,-9.00709 -1.43927,-11.88565 -6.77853,-11.88565 h -8.91423 v 35.14623 z m 0,-16.62133 v -12.76779 h 2.08927 c 1.43928,0 2.1357,0.975 2.1357,5.98925 0,5.33926 -0.60356,6.77854 -1.99641,6.77854 z"
           id="path389" /><path
           d="M 288.20754,561.39423 V 526.248 H 282.404 v 14.4392 h -4.9214 V 526.248 h -5.84996 v 35.14623 h 5.84996 v -15.18206 h 4.9214 v 15.18206 z"
           id="path391" /><path
           d="m 307.31724,559.11924 c 1.02142,-2.1357 1.43928,-4.2714 1.43928,-15.32134 0,-11.04993 -0.41786,-13.09278 -1.43928,-15.27491 -1.02142,-2.1357 -2.83212,-2.87855 -6.59282,-2.87855 -3.85355,0 -5.61782,0.74285 -6.63924,2.87855 -1.02143,2.18213 -1.43928,4.22498 -1.43928,15.27491 0,11.04994 0.41785,13.18564 1.43928,15.32134 1.02142,2.18213 2.78569,2.87855 6.63924,2.87855 3.7607,0 5.5714,-0.69642 6.59282,-2.87855 z m -4.68926,-4.36426 c -0.23214,0.83571 -0.74285,1.16071 -1.90356,1.16071 -1.20713,0 -1.67142,-0.325 -1.90356,-1.16071 -0.37142,-1.20714 -0.51071,-2.4607 -0.51071,-11.09636 0,-8.77495 0.13929,-9.98209 0.51071,-11.18922 0.23214,-0.83571 0.69643,-1.16071 1.90356,-1.16071 1.16071,0 1.67142,0.325 1.90356,1.20713 0.325,1.16071 0.46429,2.36785 0.46429,11.1428 0,8.63566 -0.0929,9.8428 -0.46429,11.09636 z"
           id="path393" /><path
           d="m 322.29481,561.39423 v -29.34269 h 4.9214 V 526.248 h -15.5999 v 5.80354 h 4.96782 v 29.34269 z"
           id="path395" /><path
           d="m 344.74738,559.11924 c 1.02142,-2.1357 1.43928,-4.2714 1.43928,-15.32134 0,-11.04993 -0.41786,-13.09278 -1.43928,-15.27491 -1.02142,-2.1357 -2.83213,-2.87855 -6.59282,-2.87855 -3.85355,0 -5.61782,0.74285 -6.63925,2.87855 -1.02142,2.18213 -1.43927,4.22498 -1.43927,15.27491 0,11.04994 0.41785,13.18564 1.43927,15.32134 1.02143,2.18213 2.7857,2.87855 6.63925,2.87855 3.76069,0 5.5714,-0.69642 6.59282,-2.87855 z m -4.68926,-4.36426 c -0.23214,0.83571 -0.74285,1.16071 -1.90356,1.16071 -1.20713,0 -1.67142,-0.325 -1.90356,-1.16071 -0.37143,-1.20714 -0.51071,-2.4607 -0.51071,-11.09636 0,-8.77495 0.13928,-9.98209 0.51071,-11.18922 0.23214,-0.83571 0.69643,-1.16071 1.90356,-1.16071 1.16071,0 1.67142,0.325 1.90356,1.20713 0.325,1.16071 0.46428,2.36785 0.46428,11.1428 0,8.63566 -0.0928,9.8428 -0.46428,11.09636 z"
           id="path397" /><path
           d="m 360.60709,547.93002 c 0.0464,0.46428 0.0464,0.78928 0.0464,1.34642 0,2.64641 -0.0929,4.08569 -0.37143,5.33925 -0.18571,0.83571 -0.74285,1.3 -1.8107,1.3 -1.39285,0 -1.85714,-0.325 -2.08928,-1.16071 -0.37142,-1.25356 -0.51071,-2.73927 -0.51071,-11.28208 0,-8.40352 0.13929,-9.79637 0.51071,-11.0035 0.23214,-0.83571 0.69643,-1.16071 1.90356,-1.16071 1.16071,0 1.53214,0.325 1.81071,0.92856 0.32499,0.69643 0.51071,2.32142 0.51071,4.41069 0,1.25357 0,1.81071 -0.0464,2.4607 h 5.43211 c 0.0929,-0.83571 0.0929,-1.34642 0.0929,-2.83212 0,-4.08569 -0.51071,-6.91782 -1.62499,-8.49638 -0.975,-1.48571 -2.64642,-2.1357 -6.17497,-2.1357 -3.89997,0 -5.52497,0.74285 -6.59282,2.83212 -0.88213,1.71785 -1.4857,3.38927 -1.4857,15.04277 0,10.86422 0.41785,13.55706 1.43928,15.59991 1.02142,2.1357 2.87855,2.87855 6.82496,2.87855 6.4071,0 7.70709,-3.52855 7.70709,-10.91065 0,-1.53213 0,-2.32141 -0.13928,-3.15712 z"
           id="path399" /><path
           d="m 385.00959,559.11924 c 1.02143,-2.1357 1.43928,-4.2714 1.43928,-15.32134 0,-11.04993 -0.41785,-13.09278 -1.43928,-15.27491 -1.02142,-2.1357 -2.83212,-2.87855 -6.59281,-2.87855 -3.85355,0 -5.61783,0.74285 -6.63925,2.87855 -1.02142,2.18213 -1.43928,4.22498 -1.43928,15.27491 0,11.04994 0.41786,13.18564 1.43928,15.32134 1.02142,2.18213 2.7857,2.87855 6.63925,2.87855 3.76069,0 5.57139,-0.69642 6.59281,-2.87855 z m -4.68925,-4.36426 c -0.23215,0.83571 -0.74286,1.16071 -1.90356,1.16071 -1.20714,0 -1.67142,-0.325 -1.90356,-1.16071 -0.37143,-1.20714 -0.51072,-2.4607 -0.51072,-11.09636 0,-8.77495 0.13929,-9.98209 0.51072,-11.18922 0.23214,-0.83571 0.69642,-1.16071 1.90356,-1.16071 1.1607,0 1.67141,0.325 1.90356,1.20713 0.32499,1.16071 0.46428,2.36785 0.46428,11.1428 0,8.63566 -0.0929,9.8428 -0.46428,11.09636 z"
           id="path401" /><path
           d="m 396.64432,561.39423 v -10.95708 h 3.20355 c 5.38568,0 6.77853,-3.24998 6.77853,-12.3035 0,-9.00709 -1.43927,-11.88565 -6.77853,-11.88565 h -8.91423 v 35.14623 z m 0,-16.62133 v -12.76779 h 2.08927 c 1.43928,0 2.1357,0.975 2.1357,5.98925 0,5.33926 -0.60356,6.77854 -1.99641,6.77854 z"
           id="path403" /><path
           d="M 416.91476,561.39423 V 526.248 h -5.84997 v 35.14623 z"
           id="path405" /><path
           d="m 435.14229,561.39423 v -6.08211 h -7.47496 v -9.09995 h 7.3821 v -5.52497 h -7.3821 v -8.63566 h 7.52138 V 526.248 h -13.23206 v 35.14623 z"
           id="path407" /></g><g
         aria-label="LE LIVRE"
         id="text2554-3-9"
         style="font-weight:600;font-size:46.4283px;line-height:1.25;font-family:'Built Titling';-inkscape-font-specification:'Built Titling Semi-Bold';letter-spacing:1.8848px;stroke-width:0.999997"><path
           d="m 269.87333,667.73309 v -6.0821 h -6.87139 v -29.06412 h -5.71068 v 35.14622 z"
           id="path410" /><path
           d="m 287.07944,667.73309 v -6.0821 h -7.47496 v -9.09995 h 7.3821 v -5.52497 h -7.3821 v -8.63566 h 7.52139 v -5.80354 H 273.8938 v 35.14622 z"
           id="path412" /><path
           d="m 314.34181,667.73309 v -6.0821 h -6.87139 v -29.06412 h -5.71068 v 35.14622 z"
           id="path414" /><path
           d="m 324.3051,667.73309 v -35.14622 h -5.84996 v 35.14622 z"
           id="path416" /><path
           d="m 341.32549,667.73309 4.08569,-35.14622 h -6.03568 c -1.94998,23.67843 -2.18213,25.53557 -2.22855,27.3927 h -0.41786 c -0.0464,-1.85713 -0.23214,-3.71427 -2.1357,-27.3927 h -6.12854 l 3.89998,35.14622 z"
           id="path418" /><path
           d="m 365.91369,667.73309 v -0.18571 c -0.23215,-0.74285 -0.37143,-1.39285 -0.65,-4.08569 -0.37143,-3.43569 -0.46428,-5.84997 -0.97499,-8.49638 -0.37143,-1.85713 -0.78929,-3.01784 -1.71785,-3.66783 v -0.27857 c 1.53213,-0.78929 2.73927,-1.20714 2.73927,-8.96067 0,-6.87138 -1.34642,-9.47137 -6.7321,-9.47137 h -9.05352 v 35.14622 h 5.71068 v -14.25348 h 1.53213 c 1.06785,0 1.43928,0.41785 1.81071,2.97141 0.37142,2.69284 0.46428,5.15354 0.64999,6.91781 0.325,3.1107 0.41786,3.66784 0.69643,4.36426 z m -10.67851,-19.40703 v -10.07494 h 2.22856 c 1.1607,0 2.08927,0.0929 2.08927,4.45712 0,5.52497 -0.88214,5.61782 -2.36784,5.61782 z"
           id="path420" /><path
           d="m 383.21264,667.73309 v -6.0821 h -7.47496 v -9.09995 h 7.3821 v -5.52497 h -7.3821 v -8.63566 h 7.52138 v -5.80354 H 370.027 v 35.14622 z"
           id="path422" /></g><g
         aria-label="NE TUE PAS"
         id="text2554-3-7"
         style="font-weight:600;font-size:65.3396px;line-height:1.25;font-family:'Built Titling';-inkscape-font-specification:'Built Titling Semi-Bold';letter-spacing:1.8848px;stroke-width:0.999997"><path
           d="m 228.38749,621.45514 v -49.46208 h -7.38337 v 21.10469 h -0.3267 l -6.72998,-21.10469 h -8.36347 v 49.46208 h 7.31804 v -30.44825 h 0.32669 l 10.97706,30.44825 z"
           id="path425" /><path
           d="m 253.01051,621.45514 v -8.55949 h -10.51967 v -12.80656 h 10.38899 v -7.77541 h -10.38899 v -12.15317 h 10.58501 v -8.16745 h -18.62178 v 49.46208 z"
           id="path427" /><path
           d="m 285.79097,621.45514 v -41.29463 h 6.92599 v -8.16745 h -21.9541 v 8.16745 h 6.99134 v 41.29463 z"
           id="path429" /><path
           d="m 311.85145,607.01509 c 0,3.78969 -0.0653,4.76979 -0.52272,5.68454 -0.39203,0.84942 -0.98009,1.04544 -2.67892,1.04544 -1.76417,0 -2.35222,-0.3267 -2.74426,-1.11078 -0.45738,-0.91475 -0.52272,-1.82951 -0.52272,-5.6192 v -35.02203 h -8.23279 v 35.02203 c 0,7.31803 0.52272,9.47424 1.82951,11.76113 1.50281,2.67892 4.05106,3.52833 9.53958,3.52833 5.48853,0 7.97143,-0.84941 9.47424,-3.52833 1.3068,-2.28689 1.69883,-4.4431 1.82951,-11.76113 v -35.02203 h -7.97143 z"
           id="path431" /><path
           d="m 344.18445,621.45514 v -8.55949 h -10.51968 v -12.80656 h 10.389 v -7.77541 h -10.389 v -12.15317 h 10.58502 v -8.16745 H 325.628 v 49.46208 z"
           id="path433" /><path
           d="m 371.34569,621.45514 v -15.42015 h 4.50843 c 7.57939,0 9.53958,-4.57377 9.53958,-17.31499 0,-12.67588 -2.02553,-16.72694 -9.53958,-16.72694 h -12.5452 v 49.46208 z m 0,-23.39158 v -17.96839 h 2.94028 c 2.02553,0 3.00562,1.37213 3.00562,8.42881 0,7.51405 -0.84941,9.53958 -2.8096,9.53958 z"
           id="path435" /><path
           d="m 410.21273,621.45514 -4.76979,-49.46208 h -13.52529 l -5.09649,49.46208 h 8.03677 l 0.98009,-12.41452 h 5.09649 l 0.98009,12.41452 z m -9.60492,-20.25528 h -4.44309 l 1.96019,-21.10469 h 0.58805 z"
           id="path437" /><path
           d="m 433.92093,587.34787 c 0.3267,-1.17611 0.45738,-2.67893 0.45738,-5.42319 0,-8.03677 -1.96019,-10.78103 -10.19298,-10.78103 -7.90609,0 -10.38899,2.67892 -10.38899,12.02248 0,9.01687 0.45738,10.51968 2.61358,12.47987 2.48291,2.28688 7.38338,3.98571 9.67026,6.2726 1.30679,1.30679 1.43747,1.82951 1.43747,5.42319 0,6.20726 -0.78407,6.79531 -3.39766,6.79531 -2.4829,0 -3.20164,-0.91475 -3.20164,-6.33794 0,-1.24145 0,-2.1562 0.13068,-2.87494 h -6.72997 c -0.26136,1.17611 -0.45738,3.00562 -0.45738,5.09649 0,10.19298 2.87494,12.28384 10.12764,12.28384 8.29812,0 10.97705,-2.61358 10.97705,-14.83209 0,-8.88618 -0.78408,-10.19297 -3.92038,-12.34918 -2.09086,-1.43747 -6.53396,-3.26698 -8.55948,-5.03115 -1.3068,-1.17611 -1.37214,-1.56815 -1.37214,-5.74988 0,-4.70445 0.6534,-5.35785 3.07096,-5.35785 2.80961,0 3.20164,1.50281 3.20164,5.29251 0,1.56815 -0.0653,2.35222 -0.13067,3.07096 z"
           id="path439" /></g></g><g
       id="g2892"
       transform="translate(-0.85186685)"><g
         id="g2357"
         transform="translate(-22.262378,-9.188916)"><path
           style="font-variation-settings:normal;vector-effect:none;fill:#ffffff;fill-opacity:1;stroke:#000000;stroke-width:3.77953;stroke-linecap:round;stroke-linejoin:round;stroke-miterlimit:4;stroke-dasharray:none;stroke-dashoffset:0;stroke-opacity:1;-inkscape-stroke:none;paint-order:markers fill stroke;stop-color:#000000"
           d="m 366.12298,263.14104 -7.80086,-2.36844 -7.80085,-2.36843 -7.80086,-2.36844 -7.80085,-2.36843 -72.55075,41.8872 v 133.63039 0 c 0,0 5.90877,11.36351 31.20342,9.48838 l 72.55075,-41.87255 V 263.14104"
           id="path2083"
           sodipodi:nodetypes="ccccccccccc" /><path
           style="font-variation-settings:normal;vector-effect:none;fill:#ffffff;fill-opacity:1;stroke:#000000;stroke-width:3.77953;stroke-linecap:round;stroke-linejoin:round;stroke-miterlimit:4;stroke-dasharray:none;stroke-dashoffset:0;stroke-opacity:1;-inkscape-stroke:none;paint-order:markers fill stroke;stop-color:#000000"
           d="m 350.52127,258.40417 -77.35613,44.66159"
           id="path2328"
           sodipodi:nodetypes="cc" /><path
           style="font-variation-settings:normal;fill:none;fill-opacity:1;stroke:#000000;stroke-width:3.77953;stroke-linecap:round;stroke-linejoin:round;stroke-miterlimit:4;stroke-dasharray:none;stroke-dashoffset:0;stroke-opacity:1;paint-order:markers fill stroke;stop-color:#000000"
           d="m 366.12298,263.14104 -72.55075,41.8872"
           id="path1137-7" /><path
           style="font-variation-settings:normal;vector-effect:none;fill:none;fill-opacity:1;stroke:#000000;stroke-width:3.77953;stroke-linecap:round;stroke-linejoin:round;stroke-miterlimit:4;stroke-dasharray:none;stroke-dashoffset:0;stroke-opacity:1;-inkscape-stroke:none;paint-order:markers fill stroke;stop-color:#000000"
           d="M 293.57223,305.02824 V 438.65863"
           id="path1957-5" /><path
           style="font-variation-settings:normal;vector-effect:none;fill:none;fill-opacity:1;stroke:#000000;stroke-width:3.77953;stroke-linecap:round;stroke-linejoin:round;stroke-miterlimit:4;stroke-dasharray:none;stroke-dashoffset:0;stroke-opacity:1;-inkscape-stroke:none;paint-order:markers fill stroke;stop-color:#000000"
           d="m 262.36881,295.5545 c 0,0 5.90877,11.36351 31.20342,9.47374"
           id="path1992" /><path
           style="font-variation-settings:normal;vector-effect:none;fill:none;fill-opacity:1;stroke:#000000;stroke-width:3.77953;stroke-linecap:round;stroke-linejoin:round;stroke-miterlimit:4;stroke-dasharray:none;stroke-dashoffset:0;stroke-opacity:1;-inkscape-stroke:none;paint-order:markers fill stroke;stop-color:#000000"
           d="m 262.36881,318.5697 c 0,0 5.90877,11.36351 31.20342,9.47374"
           id="path1992-3" /><path
           style="font-variation-settings:normal;vector-effect:none;fill:none;fill-opacity:1;stroke:#000000;stroke-width:3.77953;stroke-linecap:round;stroke-linejoin:round;stroke-miterlimit:4;stroke-dasharray:none;stroke-dashoffset:0;stroke-opacity:1;-inkscape-stroke:none;paint-order:markers fill stroke;stop-color:#000000"
           d="m 262.36881,406.16969 c 0,0 5.90877,11.36351 31.20342,9.47374"
           id="path1992-5" /><path
           style="font-variation-settings:normal;vector-effect:none;fill:none;fill-opacity:1;stroke:#000000;stroke-width:3.77953;stroke-linecap:round;stroke-linejoin:round;stroke-miterlimit:4;stroke-dasharray:none;stroke-dashoffset:0;stroke-opacity:1;-inkscape-stroke:none;paint-order:markers fill stroke;stop-color:#000000"
           d="m 358.32212,260.7726 -76.46434,44.14671"
           id="path2326" /><path
           style="font-variation-settings:normal;vector-effect:none;fill:none;fill-opacity:1;stroke:#000000;stroke-width:3.77953;stroke-linecap:round;stroke-linejoin:round;stroke-miterlimit:4;stroke-dasharray:none;stroke-dashoffset:0;stroke-opacity:1;-inkscape-stroke:none;paint-order:markers fill stroke;stop-color:#000000"
           d="M 342.72041,256.03573 266.7299,299.90888"
           id="path2330" /></g><g
         id="g2357-5-4"
         transform="translate(24.542742,5.0216842)"><path
           style="font-variation-settings:normal;vector-effect:none;fill:#ffffff;fill-opacity:1;stroke:#000000;stroke-width:3.77953;stroke-linecap:round;stroke-linejoin:round;stroke-miterlimit:4;stroke-dasharray:none;stroke-dashoffset:0;stroke-opacity:1;-inkscape-stroke:none;paint-order:markers fill stroke;stop-color:#000000"
           d="m 366.12298,263.14104 -7.80086,-2.36844 -7.80085,-2.36843 -7.80086,-2.36844 -7.80085,-2.36843 -72.55075,41.8872 v 133.63039 0 c 0,0 5.90877,11.36351 31.20342,9.48838 l 72.55075,-41.87255 V 263.14104"
           id="path2083-2-9"
           sodipodi:nodetypes="ccccccccccc" /><path
           style="font-variation-settings:normal;vector-effect:none;fill:#ffffff;fill-opacity:1;stroke:#000000;stroke-width:3.77953;stroke-linecap:round;stroke-linejoin:round;stroke-miterlimit:4;stroke-dasharray:none;stroke-dashoffset:0;stroke-opacity:1;-inkscape-stroke:none;paint-order:markers fill stroke;stop-color:#000000"
           d="m 350.52127,258.40417 -77.35613,44.66159"
           id="path2328-5-0"
           sodipodi:nodetypes="cc" /><path
           style="font-variation-settings:normal;fill:none;fill-opacity:1;stroke:#000000;stroke-width:3.77953;stroke-linecap:round;stroke-linejoin:round;stroke-miterlimit:4;stroke-dasharray:none;stroke-dashoffset:0;stroke-opacity:1;paint-order:markers fill stroke;stop-color:#000000"
           d="m 366.12298,263.14104 -72.55075,41.8872"
           id="path1137-7-47-9" /><path
           style="font-variation-settings:normal;vector-effect:none;fill:none;fill-opacity:1;stroke:#000000;stroke-width:3.77953;stroke-linecap:round;stroke-linejoin:round;stroke-miterlimit:4;stroke-dasharray:none;stroke-dashoffset:0;stroke-opacity:1;-inkscape-stroke:none;paint-order:markers fill stroke;stop-color:#000000"
           d="M 293.57223,305.02824 V 438.65863"
           id="path1957-5-4-1" /><path
           style="font-variation-settings:normal;vector-effect:none;fill:none;fill-opacity:1;stroke:#000000;stroke-width:3.77953;stroke-linecap:round;stroke-linejoin:round;stroke-miterlimit:4;stroke-dasharray:none;stroke-dashoffset:0;stroke-opacity:1;-inkscape-stroke:none;paint-order:markers fill stroke;stop-color:#000000"
           d="m 262.36881,295.5545 c 0,0 5.90877,11.36351 31.20342,9.47374"
           id="path1992-43-7" /><path
           style="font-variation-settings:normal;vector-effect:none;fill:none;fill-opacity:1;stroke:#000000;stroke-width:3.77953;stroke-linecap:round;stroke-linejoin:round;stroke-miterlimit:4;stroke-dasharray:none;stroke-dashoffset:0;stroke-opacity:1;-inkscape-stroke:none;paint-order:markers fill stroke;stop-color:#000000"
           d="m 262.36881,318.5697 c 0,0 5.90877,11.36351 31.20342,9.47374"
           id="path1992-3-0-7" /><path
           style="font-variation-settings:normal;vector-effect:none;fill:none;fill-opacity:1;stroke:#000000;stroke-width:3.77953;stroke-linecap:round;stroke-linejoin:round;stroke-miterlimit:4;stroke-dasharray:none;stroke-dashoffset:0;stroke-opacity:1;-inkscape-stroke:none;paint-order:markers fill stroke;stop-color:#000000"
           d="m 262.36881,406.16969 c 0,0 5.90877,11.36351 31.20342,9.47374"
           id="path1992-5-7-1" /><path
           style="font-variation-settings:normal;vector-effect:none;fill:none;fill-opacity:1;stroke:#000000;stroke-width:3.77953;stroke-linecap:round;stroke-linejoin:round;stroke-miterlimit:4;stroke-dasharray:none;stroke-dashoffset:0;stroke-opacity:1;-inkscape-stroke:none;paint-order:markers fill stroke;stop-color:#000000"
           d="m 358.32212,260.7726 -76.46434,44.14671"
           id="path2326-8-15" /><path
           style="font-variation-settings:normal;vector-effect:none;fill:none;fill-opacity:1;stroke:#000000;stroke-width:3.77953;stroke-linecap:round;stroke-linejoin:round;stroke-miterlimit:4;stroke-dasharray:none;stroke-dashoffset:0;stroke-opacity:1;-inkscape-stroke:none;paint-order:markers fill stroke;stop-color:#000000"
           d="M 342.72041,256.03573 266.7299,299.90888"
           id="path2330-6-9" /></g></g><path
       id="path2492-9"
       style="font-variation-settings:normal;vector-effect:none;fill:#000000;fill-opacity:1;fill-rule:evenodd;stroke:#000000;stroke-width:3.77954;stroke-linecap:round;stroke-linejoin:round;stroke-miterlimit:4;stroke-dasharray:none;stroke-dashoffset:0;stroke-opacity:1;-inkscape-stroke:none;paint-order:markers fill stroke;stop-color:#000000"
       d="m 362.54024,307.07489 c -8.48531,-10e-5 -15.36403,6.88664 -15.36394,15.38184 0,0.54431 0.0472,1.11692 0.12156,1.70549 0.0505,0.42483 0.11875,0.84735 0.20442,1.26649 0.0231,0.11545 0.0516,0.23326 0.0771,0.34997 0.0836,0.41628 0.18446,0.82891 0.3022,1.23684 4.5714,16.65479 30.01981,36.747 30.01981,36.747 0,0 25.45141,-20.09221 30.02281,-36.747 0.11767,-0.40793 0.21854,-0.82056 0.30217,-1.23684 0.0253,-0.11679 0.054,-0.23458 0.0771,-0.34997 0.0856,-0.41914 0.1539,-0.84166 0.20442,-1.26649 0.0741,-0.58857 0.12142,-1.16118 0.12142,-1.70549 1.1e-4,-8.4952 -6.87862,-15.38194 -15.36394,-15.38184 -8.48531,-10e-5 -15.36405,6.88664 -15.36395,15.38184 1e-4,-8.49405 -6.87682,-15.38031 -15.36098,-15.38184 z"
       sodipodi:nodetypes="sscccccccccsccss" /></g></svg>
