<?xml version="1.0" encoding="UTF-8" standalone="no"?>
<!-- Created with Inkscape (http://www.inkscape.org/) -->

<svg
   width="242mm"
   height="176mm"
   viewBox="0 0 242 176"
   version="1.1"
   id="svg16340"
   inkscape:version="1.2.2 (b0a8486541, 2022-12-01)"
   sodipodi:docname="couv-livre.svg"
   inkscape:export-filename="../pdf/couv-livre-conferences-print.pdf"
   inkscape:export-xdpi="96"
   inkscape:export-ydpi="96"
   xmlns:inkscape="http://www.inkscape.org/namespaces/inkscape"
   xmlns:sodipodi="http://sodipodi.sourceforge.net/DTD/sodipodi-0.dtd"
   xmlns="http://www.w3.org/2000/svg"
   xmlns:svg="http://www.w3.org/2000/svg">
  <sodipodi:namedview
     id="namedview16342"
     pagecolor="#ffffff"
     bordercolor="#000000"
     borderopacity="0.25"
     inkscape:showpageshadow="2"
     inkscape:pageopacity="0.0"
     inkscape:pagecheckerboard="0"
     inkscape:deskcolor="#d1d1d1"
     inkscape:document-units="mm"
     showgrid="false"
     inkscape:zoom="0.96307255"
     inkscape:cx="553.95619"
     inkscape:cy="363.42018"
     inkscape:window-width="1920"
     inkscape:window-height="1011"
     inkscape:window-x="1920"
     inkscape:window-y="32"
     inkscape:window-maximized="1"
     inkscape:current-layer="layer1" />
  <defs
     id="defs16337">
    <rect
       x="690.38666"
       y="498.08691"
       width="80.067451"
       height="33.673763"
       id="rect130212" />
    <rect
       x="140.21567"
       y="267.49719"
       width="37.37072"
       height="194.57324"
       id="rect125757" />
    <rect
       x="116.48157"
       y="239.36247"
       width="15.003235"
       height="50.504189"
       id="rect21970" />
    <rect
       x="3227.6987"
       y="-1522.4642"
       width="345.03348"
       height="564.47821"
       id="rect12993-4-7-0" />
    <rect
       x="3227.6987"
       y="-1522.4642"
       width="345.03348"
       height="564.47821"
       id="rect12993-4-5-8-6" />
    <rect
       x="3227.6987"
       y="-1522.4642"
       width="345.03348"
       height="564.47821"
       id="rect12993-30-8" />
    <rect
       x="3227.6987"
       y="-1522.4642"
       width="345.03348"
       height="564.47821"
       id="rect12993-30-8-3" />
    <rect
       x="3227.6987"
       y="-1522.4642"
       width="345.03348"
       height="564.47821"
       id="rect125753" />
    <rect
       x="3227.6987"
       y="-1522.4642"
       width="345.03348"
       height="564.47821"
       id="rect12993-4-7-0-1" />
    <rect
       x="3227.6987"
       y="-1522.4642"
       width="345.03348"
       height="564.47821"
       id="rect12993-4-5-8-6-2" />
    <rect
       x="3227.6987"
       y="-1522.4642"
       width="345.03348"
       height="564.47821"
       id="rect12993-30-8-7" />
    <rect
       x="3227.6987"
       y="-1522.4642"
       width="345.03348"
       height="564.47821"
       id="rect125753-0" />
    <rect
       x="3227.6987"
       y="-1522.4642"
       width="345.03348"
       height="564.47821"
       id="rect12993-4-7-0-9" />
    <rect
       x="3227.6987"
       y="-1522.4642"
       width="345.03348"
       height="564.47821"
       id="rect12993-4-5-8-6-7" />
    <rect
       x="3227.6987"
       y="-1522.4642"
       width="345.03348"
       height="564.47821"
       id="rect12993-30-8-36" />
    <rect
       x="3227.6987"
       y="-1522.4642"
       width="345.03348"
       height="564.47821"
       id="rect125753-1" />
    <rect
       x="3227.6987"
       y="-1522.4642"
       width="345.03348"
       height="564.47821"
       id="rect12993-4-7-0-9-5" />
    <rect
       x="3227.6987"
       y="-1522.4642"
       width="345.03348"
       height="564.47821"
       id="rect12993-4-5-8-6-7-4" />
    <rect
       x="3227.6987"
       y="-1522.4642"
       width="345.03348"
       height="564.47821"
       id="rect12993-30-8-36-7" />
    <rect
       x="3227.6987"
       y="-1522.4642"
       width="345.03348"
       height="564.47821"
       id="rect125753-1-6" />
    <rect
       x="3227.6987"
       y="-1522.4642"
       width="345.03348"
       height="564.47821"
       id="rect26657" />
    <rect
       x="3227.6987"
       y="-1522.4642"
       width="345.03348"
       height="564.47821"
       id="rect12993-4-7-0-9-5-1" />
    <rect
       x="3227.6987"
       y="-1522.4642"
       width="345.03348"
       height="564.47821"
       id="rect12993-4-5-8-6-7-4-4" />
    <rect
       x="3227.6987"
       y="-1522.4642"
       width="345.03348"
       height="564.47821"
       id="rect12993-30-8-36-7-9" />
    <rect
       x="3227.6987"
       y="-1522.4642"
       width="345.03348"
       height="564.47821"
       id="rect125753-1-6-2" />
    <rect
       x="3227.6987"
       y="-1522.4642"
       width="345.03348"
       height="564.47821"
       id="rect26657-0" />
    <rect
       x="3227.6987"
       y="-1522.4642"
       width="345.03348"
       height="564.47821"
       id="rect125753-1-6-8" />
    <rect
       x="3227.6987"
       y="-1522.4642"
       width="345.03348"
       height="564.47821"
       id="rect12993-4-7-0-9-5-3" />
    <rect
       x="3227.6987"
       y="-1522.4642"
       width="345.03348"
       height="564.47821"
       id="rect12993-4-5-8-6-7-4-6" />
    <rect
       x="3227.6987"
       y="-1522.4642"
       width="345.03348"
       height="564.47821"
       id="rect12993-30-8-36-7-7" />
    <rect
       x="3227.6987"
       y="-1522.4642"
       width="345.03348"
       height="564.47821"
       id="rect125753-1-6-5" />
    <rect
       x="3227.6987"
       y="-1522.4642"
       width="345.03348"
       height="564.47821"
       id="rect1433" />
    <rect
       x="3227.6987"
       y="-1522.4642"
       width="345.03348"
       height="564.47821"
       id="rect1435" />
  </defs>
  <g
     inkscape:label="Calque 1"
     inkscape:groupmode="layer"
     id="layer1">
    <text
       xml:space="preserve"
       transform="scale(0.26458333)"
       id="text21968"
       style="font-weight:500;font-size:16px;font-family:Paysage;-inkscape-font-specification:'Paysage Medium';text-align:justify;white-space:pre;shape-inside:url(#rect21970);display:inline;fill:#e6e6e6;fill-opacity:1;stroke-width:1.26236;stroke-linecap:square;paint-order:markers fill stroke;stop-color:#000000" />
    <text
       xml:space="preserve"
       transform="scale(0.26458333)"
       id="text125755"
       style="font-size:12px;font-family:OpenSymbol;-inkscape-font-specification:OpenSymbol;text-align:center;white-space:pre;shape-inside:url(#rect125757);display:inline;fill:#000000;fill-opacity:1;stroke-width:1.06667;stroke-linecap:round;stroke-linejoin:round;paint-order:markers fill stroke;stop-color:#000000" />
    <rect
       style="fill:#ffefae;fill-opacity:1;stroke:none;stroke-width:0.529167;stroke-linecap:square;stroke-linejoin:bevel;paint-order:markers fill stroke;stop-color:#000000"
       id="rect996-3-5-8-3-9-8-2-2-5-3"
       width="241"
       height="176"
       x="0.5"
       y="1.3877788e-14" />
    <path
       style="fill:#12354e;fill-opacity:1;stroke:#12354e;stroke-width:0;stroke-dasharray:none;stroke-opacity:1"
       d="m 195.80567,120.88114 0.26342,-0.10884 0.0354,-0.14148 0.0354,-0.14148 0.004,-0.68573 0.004,-0.68573 -0.0729,-0.0927 -0.0729,-0.0926 0.18662,-0.20703 0.18661,-0.207 0.009,-0.26316 0.009,-0.26316 -0.0498,-0.10866 -0.0498,-0.10854 -0.11005,-0.25002 -0.11006,-0.25001 -0.0369,-0.0319 -0.0368,-0.0319 -0.15745,-0.26671 -0.15746,-0.2667 -0.18042,-0.005 -0.18041,-0.005 -0.17206,-0.0708 -0.17207,-0.0707 -0.27865,-0.0606 -0.27867,-0.0606 -0.58325,-0.0543 -0.58324,-0.0544 -0.1641,-0.068 -0.1641,-0.0682 -0.0608,-0.19034 -0.0608,-0.19032 0.0124,-0.47234 0.0124,-0.47234 -0.0607,-0.0638 -0.0607,-0.064 -0.0403,-0.81364 -0.0403,-0.81365 -0.057,-0.16244 -0.0569,-0.16244 0.0512,-0.42928 0.0513,-0.42926 -0.0881,-0.35526 -0.0881,-0.35525 -0.0543,-0.37212 -0.0543,-0.37211 0.002,-1.22221 0.002,-1.22222 -0.0283,-0.0488 -0.0283,-0.0487 -0.0201,-0.76912 -0.0201,-0.76911 -0.0325,-0.34065 -0.0324,-0.34065 0.0576,-0.46182 0.0576,-0.46187 -0.026,-0.15512 -0.026,-0.15513 -0.009,-0.71821 -0.009,-0.71823 -0.0574,-0.16391 -0.0574,-0.16393 -0.057,-0.002 -0.0571,-0.002 0.0429,-0.60125 0.0429,-0.60123 -0.0483,-0.61906 -0.0483,-0.6191 -0.0165,-0.710929 -0.0165,-0.71092 0.0141,-0.15407 0.0141,-0.15407 0.023,-1.14234 0.0231,-1.14235 -0.0486,-0.45924 -0.0486,-0.45925 -0.0647,-0.0821 -0.0647,-0.0822 0.0466,-0.23745 0.0466,-0.23744 -0.0942,-0.0825 -0.0942,-0.0823 0.007,-0.26939 0.007,-0.26938 -0.0608,-0.29595 -0.0608,-0.29595 -0.0766,-0.31092 -0.0769,-0.31093 -0.0289,-0.40233 -0.0289,-0.40234 0.003,-0.61773 0.003,-0.61775 -0.0507,-0.92802 -0.0507,-0.92808 -0.0543,-0.31031 -0.0543,-0.31032 -0.0206,-0.34034 -0.0207,-0.34035 -0.0771,-0.61986 -0.0771,-0.61983 -0.0442,-0.61261 -0.0442,-0.61262 -0.0239,-0.0411 -0.0239,-0.0411 -0.0232,-0.58421 -0.0234,-0.5842 -0.0993,-0.7131 -0.0995,-0.71308 -0.0257,-0.37138 -0.0256,-0.37136 -0.088,-0.31121 -0.088,-0.31122 -0.0502,-0.19105 -0.0502,-0.19105 0.003,-0.1222 0.003,-0.12216 -0.0592,-0.0624 -0.0592,-0.0624 0.0534,-0.26962 0.0534,-0.26962 0.0713,-0.0217 0.0713,-0.0217 0.0393,0.20511 0.0392,0.2051 0.12913,0.3123 0.12914,0.3123 0.0432,0.12469 0.0432,0.12471 0.0716,0.31077 0.0716,0.31079 0.0849,0.34203 0.0849,0.34205 0.055,0.52656 0.055,0.52659 0.064,0.18703 0.0639,0.18702 0.069,0.18716 0.069,0.18715 0.0606,0.21784 0.0606,0.21782 0.0354,0.27099 0.0354,0.27101 0.16539,0.53742 0.16538,0.53745 0.11689,0.43554 0.1169,0.43555 0.0572,0.11532 0.0572,0.11532 0.0791,0.53694 0.079,0.53694 0.11568,0.19896 0.11567,0.19899 0.0755,0.51653 0.0754,0.51654 0.11095,0.28092 0.11095,0.28095 0.0639,0.34147 0.0639,0.34149 0.049,0.12484 0.0491,0.12487 0.14096,0.43615 0.14097,0.43619 0.0927,0.43491 0.0927,0.4349 0.11719,0.2136 0.11718,0.21361 0.0715,0.22655 0.0715,0.22653 0.25672,0.35929 0.25671,0.35927 0.0852,0.002 0.0852,0.002 0.10993,0.11096 0.10993,0.11098 0.17751,0.11666 0.17753,0.11666 0.10709,0.0372 0.10711,0.0372 -0.001,0.0546 -0.001,0.0546 0.4683,0.0123 0.4678,0.0123 0.18938,-0.17969 0.18938,-0.17968 -0.0386,-0.0662 -0.0386,-0.0662 0.0769,-0.088 0.077,-0.088 0.14238,0.004 0.14231,0.004 0.13865,0.18332 0.13868,0.18333 0.23485,0.0701 0.23477,0.0701 0.1443,-0.0612 0.1442,-0.0612 0.073,-0.13024 0.073,-0.13025 0.033,-0.36984 0.033,-0.36983 0.068,-0.16174 0.068,-0.16174 -0.028,-0.0293 -0.027,-0.029 v -1.32166 -1.32167 -0.67954 -0.67956 l -0.051,-0.68092 -0.051,-0.68095 -0.047,-0.46456 -0.048,-0.46463 -0.078,-0.37723 -0.078,-0.37723 -0.069,-0.13763 -0.069,-0.1376 0.034,-0.0529 0.034,-0.0529 -0.085,-0.26372 -0.085,-0.2637 0.01,-0.206 0.01,-0.20601 -0.1207,-0.35055 -0.1207,-0.35053 -0.008,-0.53554 -0.008,-0.53551 -0.11529,-0.40462 -0.11531,-0.4046 0.009,-0.35908 0.009,-0.35906 -0.0533,-0.10631 -0.0533,-0.1063 -0.0143,-0.83349 -0.0143,-0.83349 -0.0433,-0.49539 -0.0433,-0.49538 -0.0312,-0.55685 -0.0312,-0.55685 -0.0732,-0.12548 -0.0732,-0.1255 -0.0702,-0.24897 -0.0702,-0.24896 -0.0604,-0.0802 -0.0604,-0.0802 0.0377,-0.0357 0.0376,-0.0357 -0.11211,-0.32002 -0.11212,-0.32002 0.003,-0.10959 0.003,-0.10959 -0.12126,-0.35689 -0.12126,-0.35689 -0.0943,-0.53663 -0.0943,-0.53663 -0.0968,-0.1463 -0.0968,-0.14627 0.003,-0.12519 0.003,-0.12518 -0.23182,-0.53125 -0.23181,-0.53122 0.002,-0.10461 0.002,-0.10461 -0.11333,-0.0838 -0.11333,-0.0838 -0.15174,-0.41026 -0.15173,-0.41026 0.002,-0.0833 0.002,-0.0833 -0.28026,-0.44436 -0.28025,-0.44438 -0.15944,-0.22043 -0.15945,-0.22042 -0.0871,-0.34231 -0.0871,-0.34227 -0.54919,-0.60115 -0.54919,-0.60116 -0.15876,-0.25751 -0.15874,-0.25748 -0.23914,-0.23172 -0.23911,-0.23172 -0.25847,-0.13041 -0.25847,-0.13042 -0.0896,-0.002 -0.0897,-0.002 -0.0366,-0.0627 -0.0366,-0.0628 -0.11924,-0.003 -0.11911,-0.003 -0.38258,-0.15941 -0.38259,-0.15939 -0.42849,-0.15117 -0.42849,-0.15116 -0.33927,-0.0199 -0.33928,-0.0199 -0.5436,-0.0818 -0.54362,-0.0818 -0.0704,-0.06 -0.0704,-0.06 -0.32291,-0.0521 -0.32291,-0.0521 -0.033,-0.0569 -0.0331,-0.0569 -0.17793,-0.005 -0.17793,-0.005 -0.0345,-0.0592 -0.0344,-0.0591 -0.27157,-0.0481 -0.27157,-0.0481 -0.0889,-0.10395 -0.0889,-0.10394 0.0735,-0.68566 0.0734,-0.68564 0.12047,-0.792 0.12047,-0.792 -0.002,-0.1236 -0.002,-0.12362 0.0804,-0.25609 0.0804,-0.2561 0.28042,0.0321 0.28041,0.0321 0.58565,0.0488 0.58561,0.0488 0.61919,-0.0522 0.61919,-0.0522 0.0896,-0.0423 0.0897,-0.0423 0.0648,-0.097 0.0648,-0.0969 -0.1071,-0.25525 -0.10712,-0.25526 -0.0546,-10e-4 -0.0546,-10e-4 -0.11341,-0.28494 -0.11341,-0.28495 -0.0694,0.0403 -0.0694,0.0403 0.0274,-0.11469 0.0274,-0.11469 -0.12332,-0.12681 -0.12331,-0.1268 -0.2342,-0.4918 -0.23419,-0.49183 -0.39561,-0.45146 -0.39559,-0.45147 -0.14182,-0.25633 -0.1418,-0.25632 -0.16273,-0.25962 -0.16273,-0.25961 -0.19831,-0.1067 -0.19832,-0.10672 -0.15058,-0.14736 -0.15057,-0.14735 -0.58156,-0.32444 -0.58153,-0.32446 -0.15057,-0.0282 -0.15054,-0.0282 -0.15268,-0.067 -0.15269,-0.067 -0.39785,-0.14186 -0.39783,-0.14186 -0.55387,-0.0821 -0.55388,-0.0821 -0.49428,-0.014 -0.49429,-0.014 -0.38896,0.066 -0.38896,0.066 -0.0345,0.0526 -0.0345,0.0526 -0.17981,-0.005 -0.17982,-0.005 -0.33001,0.14887 -0.33004,0.14889 -0.21921,0.11319 -0.2192,0.11318 -0.54311,0.4526 -0.54312,0.4526 -0.0883,0.1656 -0.0883,0.16559 -0.0923,0.10565 -0.0923,0.10565 0.0542,10e-4 0.0542,0.001 -0.13014,0.0861 -0.13014,0.0861 -0.11466,0.33377 -0.11466,0.33377 -0.12258,0.1051 -0.12244,0.10511 -0.002,0.07 -0.002,0.0699 -0.18834,0.20896 -0.18832,0.20894 -0.004,0.0846 -0.004,0.0846 -0.23056,0.65055 -0.23056,0.65053 -0.0759,0.37658 -0.0758,0.37657 0.0587,0.16757 0.0587,0.16759 -0.006,0.21533 -0.006,0.21535 -0.15711,0.21863 -0.15713,0.21864 0.0608,0.12117 0.0608,0.12104 -0.0416,0.14908 -0.0415,0.14911 0.0541,0.54051 0.0541,0.5405 -0.0103,0.31433 -0.0103,0.31433 -0.0793,0.30114 -0.0793,0.30111 -0.003,0.35523 -0.003,0.35523 -0.27722,0.12153 -0.27723,0.1215 -0.0747,0.0854 -0.0748,0.0854 -0.0514,-0.001 -0.0514,-10e-4 -0.55125,0.2976 -0.55123,0.29759 -0.26902,0.24962 -0.26902,0.2496 -0.037,0.10675 -0.037,0.10662 -0.11432,0.033 -0.11433,0.033 -0.16234,0.22543 -0.16237,0.22543 -0.17978,0.18062 -0.17979,0.18061 -0.15778,0.32017 -0.15777,0.32017 -0.11555,0.0993 -0.11555,0.0992 -0.003,0.11034 -0.003,0.11032 -0.066,0.0387 -0.066,0.0387 0.0343,0.18035 0.0343,0.18037 -0.09,-0.002 -0.09,-0.002 -0.0543,0.19937 -0.0543,0.19936 -0.0119,0.0726 -0.0119,0.0726 -0.0472,0.0444 -0.0472,0.0444 -0.003,0.11313 -0.003,0.11314 -0.077,-0.001 -0.077,-0.001 -0.1445,0.21081 -0.14459,0.2108 -0.008,0.2941 -0.008,0.29411 -0.10709,0.30608 -0.10709,0.30609 -0.0375,0.4006 -0.0376,0.40059 -0.0183,0.20031 -0.0183,0.2003 -0.081,-0.002 -0.081,-0.002 0.01,0.17014 0.01,0.17016 -0.0543,0.19935 -0.0543,0.19937 -0.047,-0.001 -0.046,-10e-4 -0.0353,0.35431 -0.0353,0.35431 -0.11133,0.20876 -0.11123,0.20876 0.0331,0.11249 0.0321,0.11247 -0.10587,0.37393 -0.10587,0.37391 -0.004,0.13701 -0.004,0.13701 0.0748,0.0838 0.0748,0.0838 -0.0777,0.0263 -0.0777,0.0263 -0.003,0.12034 -0.003,0.12033 -0.102,0.22701 -0.10301,0.227 -0.0301,0.30811 -0.0301,0.3081 -0.0706,0.21098 -0.0706,0.21096 0.0586,0.2429 0.0586,0.24289 -0.11329,0.22243 -0.11339,0.22245 -0.0415,0.74027 -0.0415,0.74027 -0.0367,0.70952 -0.0367,0.70952 -0.12024,0.32332 -0.12025,0.32334 0.0158,0.50407 0.0158,0.50405 -0.11326,0.28628 -0.11327,0.28627 0.0217,0.31726 0.0217,0.31726 -0.0763,0.0868 -0.0763,0.0868 0.057,0.23077 0.057,0.23075 -0.0629,0.10912 -0.0619,0.10914 -0.005,0.20779 -0.005,0.2078 -0.0688,0.0658 -0.0688,0.0658 0.0855,0.47685 0.0855,0.47688 -0.0527,0.10206 -0.0537,0.10202 0.007,0.67978 0.007,0.67977 0.041,0.49533 0.041,0.49532 0.0202,0.41216 0.0212,0.41215 0.0609,0.26959 0.0619,0.26961 0.0446,0.39548 0.0446,0.39548 -0.0365,0.0554 -0.0365,0.0554 0.0697,0.088 0.0697,0.088 0.0161,0.4151 0.0161,0.4151 0.0871,0.18635 0.0871,0.18633 0.0503,0.52296 0.0513,0.52296 0.0902,0.26045 0.0902,0.26046 0.0808,0.1968 0.0809,0.19681 -0.002,0.0587 -0.002,0.0587 0.18062,0.19927 0.18062,0.19924 0.21833,0.006 0.21872,0.006 0.25586,-0.13203 0.25587,-0.13226 0.27594,-0.25658 0.27595,-0.25659 0.13859,0.0325 0.13844,0.0325 0.2896,0.0452 0.28959,0.0452 0.26712,-0.13536 0.26713,-0.13535 0.0793,-0.0907 0.0793,-0.0906 0.0468,-0.20827 0.0468,-0.20825 0.12851,-0.31227 0.12851,-0.31227 0.0378,-0.12255 0.0377,-0.12258 0.049,-0.0604 0.0491,-0.0605 0.0765,-0.36867 0.0765,-0.36868 0.0371,-0.46237 0.0371,-0.46239 0.13139,-0.39811 0.13136,-0.39813 0.0797,-0.30681 0.0796,-0.3068 0.0349,-0.34998 0.0348,-0.34996 0.0473,-0.29658 0.0473,-0.29656 0.0542,-0.12214 0.0542,-0.12213 0.0838,-0.36849 0.0838,-0.36848 0.0582,-0.13748 0.0582,-0.13745 0.13051,0.003 0.13051,0.003 -0.038,0.32335 -0.038,0.32334 -0.0842,0.3023 -0.0842,0.30228 0.0586,0.31485 0.0587,0.31485 -0.0311,0.9934 -0.0311,0.99341 0.0649,0.12942 0.0649,0.1294 -0.0729,0.47485 -0.0729,0.47485 0.0337,0.25389 0.0337,0.25389 0.10821,0.0973 0.10821,0.0973 -0.0687,0.30709 -0.0687,0.3071 0.031,0.3715 0.031,0.3715 0.003,0.16049 0.003,0.16048 0.0797,0.10123 0.0797,0.10123 -0.0463,0.134 -0.0463,0.13405 -0.0128,0.56243 -0.0128,0.56241 0.009,0.062 0.009,0.0622 -0.0161,0.19415 -0.0161,0.19411 0.0649,0.0425 0.0648,0.0425 -0.005,0.16609 -0.005,0.16614 -0.0586,0.0875 -0.0586,0.0874 0.0767,0.16013 0.0767,0.16012 0.0348,0.32034 0.0348,0.32034 0.0161,0.39149 0.016,0.391469 0.0235,0.27863 0.0235,0.27866 0.01,0.20103 0.01,0.20104 0.0387,10e-4 0.0387,0.001 -0.0106,0.4785 -0.0106,0.47852 0.0837,0.43468 0.0837,0.43466 0.0324,0.21709 0.0324,0.2171 0.009,0.6108 0.009,0.61083 0.0679,0.0863 0.0679,0.0862 -0.077,-0.002 -0.077,-0.002 0.0343,0.19864 0.0343,0.19861 0.0572,0.0374 0.0572,0.0374 -0.0258,0.30226 -0.0258,0.30225 0.0772,0.16552 0.0773,0.16552 0.0148,0.40091 0.0148,0.4009 0.0913,0.29396 0.0913,0.29395 -0.004,0.13671 -0.004,0.13674 -0.0455,-0.0758 -0.0455,-0.0759 -0.0222,0.31734 -0.0221,0.31735 0.0679,0.0445 0.0679,0.0446 0.0166,0.36324 0.0165,0.36325 0.009,0.17013 0.009,0.17015 0.0531,0.001 0.053,10e-4 -0.0372,0.0896 -0.0372,0.0897 0.0651,0.0426 0.0649,0.0426 -0.0377,0.23422 -0.0377,0.23422 0.0388,0.041 0.0388,0.0409 0.0102,0.28861 0.0102,0.28857 -8.8e-4,0.18533 -0.003,0.18527 -0.0287,0.47678 -0.0286,0.47678 0.10036,0.11683 0.10025,0.11683 -0.002,0.0929 -0.002,0.0929 -0.0475,0.0451 -0.0474,0.0451 -0.0222,0.38043 -0.0222,0.38042 -0.0424,0.21509 -0.0424,0.21512 -0.0528,1.06026 -0.0529,1.06023 -0.066,0.23404 -0.0661,0.23402 -0.005,0.83758 -0.005,0.83759 0.0667,0.13303 0.0667,0.13304 -0.003,0.096 -0.003,0.0958 0.21233,0.0953 0.21233,0.0953 0.10935,0.003 0.10948,0.003 0.2896,0.0706 0.28961,0.0706 0.38776,0.0142 0.38774,0.0142 0.16636,0.0181 0.16634,0.0181 0.0751,0.0792 0.0751,0.0793 0.18824,0.007 0.18827,0.007 0.11746,0.0937 0.11746,0.0937 0.18965,0.005 0.18973,0.005 0.33537,0.13458 0.33539,0.13455 0.3863,0.0295 0.38629,0.0296 0.0392,0.0413 0.0392,0.0413 0.31384,0.009 0.3138,0.009 0.36869,0.0765 0.36868,0.0765 0.79862,0.011 0.79861,0.012 0.19199,-0.0921 0.19201,-0.092 0.0319,-0.0382 0.0319,-0.0382 0.17261,-0.10355 0.17263,-0.10353 0.005,-0.2301 0.005,-0.23013 -0.0883,-0.28034 -0.0883,-0.28032 -0.17948,-0.23803 -0.17947,-0.23802 0.0229,-0.10577 0.0229,-0.10589 0.31068,-0.089 0.31068,-0.089 0.12027,-0.23568 0.12026,-0.23569 -0.0912,-0.20507 -0.0912,-0.20505 -0.25519,-0.17065 -0.25519,-0.17063 -0.12148,-0.11934 -0.12148,-0.11934 -0.0407,-10e-4 -0.0407,-0.001 -0.49838,-0.35289 -0.49837,-0.35292 -0.0886,-0.002 -0.0886,-0.002 0.002,-0.0618 0.002,-0.0617 -0.13885,-0.006 -0.13886,-0.006 -0.11745,-0.0938 -0.11748,-0.0937 -0.17131,-0.005 -0.17131,-0.005 -0.21276,-0.10843 -0.21276,-0.10843 -0.0371,-0.0989 -0.0371,-0.0989 -0.0164,-0.49466 -0.0164,-0.49469 0.084,-0.39937 0.084,-0.39937 0.0524,-1.14157 0.0524,-1.14155 0.0409,-0.15194 0.0409,-0.15195 0.0466,-0.43268 0.0467,-0.43267 0.004,-0.21614 0.004,-0.21613 0.0765,-0.73935 0.0765,-0.73938 0.11706,-0.57313 0.11705,-0.57315 -0.0593,-0.24828 -0.0593,-0.24829 0.14839,-0.052 0.14841,-0.052 0.0105,-0.17116 0.0105,-0.17114 -0.005,-0.23181 -0.005,-0.23181 0.0664,0.002 0.0665,0.002 0.0162,-0.54015 0.0162,-0.54015 0.0988,-0.64611 0.0988,-0.6461 -0.0235,-0.0448 -0.0235,-0.0448 0.10221,-0.47827 0.10221,-0.47826 0.0873,-0.58462 0.0874,-0.58463 0.0389,-0.30787 0.0389,-0.307899 0.0295,-0.33902 0.0295,-0.33901 0.0755,-0.36868 0.0755,-0.36873 0.0458,-0.5857 0.0458,-0.58571 0.093,-0.42451 0.0929,-0.42451 0.10597,-0.0126 0.10597,-0.0127 0.005,0.19543 0.005,0.19546 -0.018,0.1716 -0.018,0.1716 0.096,0.3247 0.096,0.32469 0.0526,0.0601 0.0526,0.0601 -0.004,0.16531 -0.004,0.16531 0.0822,0.072 0.0822,0.072 0.0279,0.30405 0.0279,0.30404 0.13978,0.45672 0.13979,0.45671 0.0326,0.275799 0.0326,0.27581 0.0524,0.0666 0.0524,0.0666 0.0558,0.52633 0.0558,0.52633 0.0586,0.21777 0.0586,0.21777 0.0932,0.2187 0.0932,0.21867 0.003,0.33989 0.003,0.33987 0.0686,0.29527 0.0686,0.29526 0.0431,0.001 0.0431,0.001 0.10091,0.48146 0.10091,0.48146 -0.0201,0.29 -0.0202,0.29 0.10874,0.11462 0.10872,0.11459 0.073,0.27925 0.073,0.27925 0.0606,0.18694 0.0606,0.18693 0.0337,0.30978 0.0337,0.30981 0.072,0.13963 0.0719,0.13962 -0.0416,0.1494 -0.0416,0.14938 0.0864,0.2083 0.0863,0.20831 0.0841,0.31109 0.084,0.31112 0.0908,0.31959 0.091,0.3196 -0.004,0.15785 -0.004,0.15785 0.0607,0.0397 0.0607,0.0397 -0.007,0.24737 -0.007,0.24738 0.0579,0.11535 0.0579,0.11534 0.0276,0.29989 0.0276,0.2999 0.0564,0.0602 0.0564,0.0602 -0.006,0.23659 -0.006,0.23658 0.0929,0.23214 0.0929,0.23214 0.0113,0.60068 0.0113,0.60069 0.085,0.1741 0.0851,0.17412 -0.007,0.27344 -0.007,0.27345 0.0526,0.19111 0.0526,0.19111 0.0697,0.27984 0.0697,0.27986 0.0494,0.0701 0.0494,0.0701 0.0543,0.36513 0.0543,0.36515 0.0476,0.1557 0.0477,0.15571 0.0878,0.34211 0.0878,0.34211 0.0729,1.02131 0.073,1.0213 0.11603,0.12456 0.11593,0.12457 0.20076,0.0123 0.20077,0.0123 0.4113,0.20413 0.41128,0.20411 0.1387,0.0257 0.1387,0.0256 0.23632,0.10991 0.23634,0.1099 0.14279,0.004 0.14278,0.004 0.16717,0.0686 0.16719,0.0686 0.26837,0.0131 0.26838,0.0131 0.032,0.0549 0.032,0.0547 0.17642,0.005 0.17643,0.005 0.0203,0.0665 0.0203,0.0665 0.63403,0.10561 0.63402,0.10561 0.10624,0.0606 0.10625,0.0605 0.39547,0.0548 0.39547,0.055 0.16983,0.002 0.16984,0.002 -0.001,0.0528 -0.001,0.0529 0.1699,-5.3e-4 0.16992,-5.3e-4 0.2634,-0.10885 z m -1.1988,-0.73492 -0.0922,-0.021 -0.24568,-0.0546 -0.24569,-0.0545 -0.0621,-0.0515 -0.0621,-0.0513 -0.33695,-0.0491 -0.33695,-0.0492 -0.67369,-0.22416 -0.67369,-0.22414 -0.39872,-0.10882 -0.39871,-0.10883 -0.31544,-0.0901 -0.31543,-0.0901 -0.1637,-0.13588 -0.16368,-0.13587 -0.20477,-0.044 -0.20478,-0.0439 -0.0851,-0.10433 -0.0852,-0.10434 -0.0598,-0.27586 -0.0598,-0.27585 0.0297,-0.0452 0.0297,-0.0454 -0.0522,-0.45328 -0.0522,-0.45327 -0.10721,-0.40439 -0.10709,-0.4044 -0.0885,-0.33376 -0.0884,-0.33378 0.003,-0.0968 0.003,-0.0968 -0.11093,-0.34683 -0.11093,-0.34683 -0.0869,-0.6201 -0.0869,-0.62007 -0.0751,-0.21821 -0.0751,-0.2182 -0.0298,-0.40239 -0.0298,-0.40235 -0.1001,-0.37332 -0.10009,-0.37331 -0.0975,-0.43503 -0.0975,-0.43503 0.0154,-0.20666 0.0154,-0.20665 -0.0541,-0.0725 -0.0542,-0.0725 -0.0379,-0.24813 -0.0379,-0.24812 -0.0557,-0.0712 -0.0557,-0.0712 -0.0151,-0.2866 -0.0151,-0.28659 -0.0743,-0.0945 -0.0743,-0.0945 -0.0318,-0.41362 -0.0319,-0.41362 -0.0721,-0.0262 -0.0721,-0.0262 0.004,-0.22642 0.004,-0.22644 -0.0875,-0.12223 -0.0875,-0.12223 0.006,-0.23515 0.006,-0.23517 -0.0537,-0.001 -0.0537,-0.001 -0.0586,-0.2641 -0.0586,-0.2641 -0.0675,-0.3107 -0.0676,-0.31066 -0.0789,-0.16944 -0.0789,-0.16942 -0.0519,-0.48271 -0.0519,-0.48273 -0.10745,-0.31173 -0.10746,-0.31173 -0.0525,-0.34118 -0.0525,-0.34118 -0.0564,-0.34127 -0.0563,-0.34127 -0.11956,-0.43562 -0.11958,-0.43562 -0.0201,-0.18586 -0.02,-0.18587 -0.0469,-0.27926 -0.0468,-0.27924 -0.0955,-0.404109 -0.0955,-0.40408 -0.0542,-0.0602 -0.0542,-0.0601 0.007,-0.25175 0.007,-0.25173 -0.0833,-0.12585 -0.0832,-0.12585 -0.0614,-0.2547 -0.0614,-0.25471 -0.0248,-0.17823 -0.0249,-0.17824 -0.074,-0.34175 -0.074,-0.34172 -0.0322,-0.0936 -0.0321,-0.0936 -0.0622,-0.25594 -0.0621,-0.25593 0.004,-0.13337 0.004,-0.13342 -0.14618,-0.51187 -0.14618,-0.51189 -0.0515,-0.1911 -0.0515,-0.19107 -0.001,-0.1501 -0.001,-0.15009 -0.0331,0.0764 -0.0331,0.0764 -0.24063,-0.006 -0.24063,-0.006 -0.03,0.13822 -0.0298,0.13823 -0.15293,0.76825 -0.15292,0.76822 -0.0992,0.42986 -0.0992,0.42984 -0.0459,0.3695 -0.0459,0.36946 -0.11428,1.04729 -0.11428,1.04725 -0.0183,0.354759 -0.0183,0.35477 -0.0496,-0.001 -0.0496,-0.001 -0.006,0.21198 -0.006,0.212 -0.0465,0.0711 -0.0465,0.0711 -0.0377,0.34793 -0.0377,0.34791 -0.007,0.27785 -0.007,0.27781 -0.0599,0.1838 -0.06,0.18375 -0.0566,0.49275 -0.0566,0.49276 9e-5,0.26256 1e-4,0.26258 -0.0707,-0.002 -0.0707,-0.002 0.11156,0.0861 0.11156,0.0861 -0.0722,0.042 -0.0721,0.042 -0.007,0.27227 -0.007,0.27227 -0.16132,0.45344 -0.16133,0.4534 -0.0888,0.60763 -0.0888,0.60765 -0.0293,0.0448 -0.0293,0.0448 -0.0771,0.72461 -0.0771,0.72462 -0.0607,0.92512 -0.0607,0.92511 -0.0646,0.24543 -0.0646,0.24541 -0.0523,1.18695 -0.0523,1.18694 -0.0836,0.0955 -0.0836,0.0955 -0.0417,0.65891 -0.0418,0.65892 0.0427,0.34081 0.0427,0.34081 0.33618,0.10558 0.33617,0.10558 0.0917,0.0401 0.0917,0.04 0.24506,0.0783 0.24508,0.0783 0.18304,0.087 0.18305,0.087 0.23039,0.0491 0.23039,0.0491 -0.001,0.0549 -0.001,0.055 0.12953,0.003 0.12939,0.003 0.17651,0.11066 0.17652,0.11065 -0.001,0.0485 -0.001,0.0484 0.0968,0.003 0.0968,0.003 -0.0477,0.13753 -0.0477,0.1375 -0.0983,0.068 -0.0983,0.0678 -0.41573,0.0574 -0.41571,0.0574 -0.45213,-0.0493 -0.4521,-0.0493 -0.13708,0.14227 -0.13707,0.14227 0.0853,0.22823 0.0853,0.22824 0.40971,0.113 0.4097,0.11299 0.16315,0.0876 0.16315,0.0876 0.35193,0.0885 0.35193,0.0885 0.20065,0.2115 0.20065,0.21149 -0.002,0.0641 -0.002,0.0641 -0.096,0.0911 -0.096,0.0911 -0.50819,-0.0174 -0.50821,-0.0164 -0.17201,-0.005 -0.17201,-0.005 -0.5039,-0.13465 -0.50392,-0.13464 -0.78124,-0.17837 -0.78125,-0.17838 -0.10984,-0.003 -0.10984,-0.003 -0.48997,-0.16253 -0.48997,-0.16253 -0.33765,-0.0814 -0.33766,-0.0814 -0.43097,-0.057 -0.43097,-0.057 -0.13613,-0.0517 -0.13612,-0.0517 -0.028,-0.22561 -0.0279,-0.2256 -0.0537,-0.18037 -0.0537,-0.18036 0.0326,-0.0497 0.0326,-0.0499 0.0836,-2.3631 0.0836,-2.3631 -0.035,-0.64963 -0.035,-0.64961 -0.0226,-0.34039 -0.0226,-0.34038 -0.0183,-0.58741 -0.0184,-0.5874 -0.053,-0.49565 -0.053,-0.49563 -0.0215,-0.15501 -0.0216,-0.15502 -0.0258,-0.40226 -0.0258,-0.40227 -0.078,-0.28006 -0.078,-0.28008 0.0127,-0.21589 0.0127,-0.21589 -0.0285,-0.46411 -0.0285,-0.4641 -0.0325,-0.40244 -0.0325,-0.40243 0.0189,-0.13827 0.0189,-0.13829 -0.0722,-0.14113 -0.0722,-0.14115 -8.9e-4,-0.52515 -7.9e-4,-0.52517 -0.089,-0.34214 -0.089,-0.34213 -0.0653,-0.96547 -0.0654,-0.9655 0.002,-0.457129 0.002,-0.45716 -0.0996,-0.52776 -0.0996,-0.52775 0.006,-0.28196 0.006,-0.28192 -0.0494,-0.33701 -0.0494,-0.33699 -0.0168,-0.68004 -0.0168,-0.68004 -0.0147,-0.86532 -0.0148,-0.86531 -0.0495,-0.0648 -0.0495,-0.0648 -0.003,-1.78997 -0.003,-1.78995 0.0657,-1.78993 0.0657,-1.78991 0.008,-0.55057 0.008,-0.55056 -0.0307,-0.0528 -0.0307,-0.0528 0.0565,-2.29979 0.0565,-2.2998 0.12776,-0.89212 0.12776,-0.89212 0.0633,-0.10935 0.0633,-0.10935 0.007,-0.2286 0.007,-0.2286 0.0363,-0.91616 0.0363,-0.91615 -0.0484,-0.0319 -0.0485,-0.0318 0.0127,-0.10225 0.0127,-0.10225 -0.005,-0.0786 -0.005,-0.0785 -0.16979,0.0378 -0.16979,0.0378 -0.0761,-0.002 -0.0761,-0.002 -0.0375,0.25128 -0.0375,0.25129 -0.0475,0.3584 -0.0475,0.35841 -0.0999,0.22242 -0.0999,0.22242 0.0252,0.23456 0.0252,0.23456 -0.0499,-0.001 -0.0499,-0.001 -0.0409,0.29239 -0.0409,0.29238 -0.085,0.64646 -0.085,0.64646 -0.0333,0.24625 -0.0332,0.24623 -0.0828,0.70831 -0.0828,0.70833 -0.04,0.18425 -0.0399,0.18431 -0.028,0.40827 -0.0281,0.4083 -0.0552,0.0838 -0.0552,0.0838 -0.0241,0.37004 -0.0241,0.37005 -0.0641,1.20305 -0.0641,1.20304 -0.0401,0.4932 -0.0401,0.49318 -0.17936,0.45864 -0.17937,0.45864 -0.0575,0.43096 -0.0575,0.43095 -0.0743,0.17196 -0.0743,0.17196 -0.006,0.20972 -0.006,0.2097 -0.1662,0.47679 -0.16622,0.47678 -0.004,0.1389 -0.004,0.1389 -0.0559,-0.001 -0.0559,-10e-4 0.0252,0.23446 0.0252,0.23448 -0.10773,0.33058 -0.10773,0.33062 -0.009,0.31288 -0.009,0.31292 -0.13561,0.3671 -0.1356,0.36714 -0.0316,0.23646 -0.0316,0.23645 -0.13037,0.19903 -0.13036,0.19905 -0.002,0.0942 -0.002,0.0943 -0.10306,0.0365 -0.10305,0.0365 -0.19876,-0.0715 -0.19874,-0.0715 -0.0455,-0.29188 -0.0456,-0.29194 0.0654,-0.61363 0.0653,-0.61363 -0.0595,-0.15847 -0.0594,-0.15849 -0.0201,-0.34034 -0.0201,-0.3403 -0.0361,-0.1863 -0.0361,-0.1863 -0.0589,-0.0788 -0.0589,-0.0788 -0.058,-0.002 -0.058,-0.002 0.0374,0.0629 0.0364,0.0627 -0.12705,-0.003 -0.12706,-0.003 -0.0408,-0.007 -0.0408,-0.007 -0.0638,0.10702 -0.0638,0.10701 -0.0275,0.43674 -0.0265,0.43675 -0.0447,0.10337 -0.0447,0.10337 0.0159,0.42109 0.0159,0.42109 0.057,0.61078 0.057,0.61079 -0.0994,0.12947 -0.0994,0.12946 -0.16064,0.22745 -0.16043,0.22745 -0.061,-0.002 -0.061,-0.002 -0.17592,-0.29808 -0.17582,-0.29808 -0.058,-0.34133 -0.058,-0.34133 -0.0777,-0.28005 -0.0767,-0.28003 -0.0814,-0.89796 -0.0814,-0.89798 -0.0541,-0.11012 -0.0541,-0.11011 -0.0457,-0.69568 -0.0457,-0.69571 -0.0119,-0.15475 -0.0119,-0.15479 -0.0339,-0.15533 -0.0339,-0.15536 -0.0256,-0.43314 -0.0256,-0.43313 -0.0304,-0.86099 -0.0294,-0.86095 0.031,-0.076 0.031,-0.076 0.0694,-0.69844 0.0694,-0.69847 0.16683,-1.26212 0.16665,-1.26212 0.0742,-0.61587 0.0742,-0.61583 0.0855,-0.73914 0.0855,-0.7391 0.0307,-0.21543 0.0297,-0.21546 0.084,-0.64649 0.084,-0.64649 0.0645,-0.39987 0.0645,-0.39988 0.071,-0.49238 0.071,-0.49238 0.10633,-0.42968 0.10634,-0.42966 0.12429,-0.58365 0.12439,-0.58364 0.0528,-0.0671 0.0528,-0.0671 0.10783,-0.67664 0.10783,-0.67663 0.0659,-0.14606 0.0659,-0.14606 0.17389,-0.62461 0.17378,-0.62461 0.004,-0.16739 0.004,-0.16656 0.1306,-0.19976 0.13089,-0.19974 0.15984,-0.41771 0.15998,-0.41769 0.10256,-0.25957 0.10256,-0.25957 0.2804,-0.3795 0.2804,-0.37951 0.21221,-0.2411 0.21221,-0.24108 0.60463,-0.56163 0.60461,-0.56163 0.27978,-0.11403 0.27976,-0.11403 0.0332,-0.0417 0.0332,-0.0416 0.35423,-0.17088 0.35423,-0.17087 0.0971,0.003 0.0971,0.003 0.12599,-0.12723 0.12599,-0.12722 0.0116,-0.21411 0.0116,-0.21409 0.12059,-0.81181 0.12069,-0.81181 -0.0549,-0.85455 -0.0549,-0.85453 0.004,-0.0926 0.004,-0.0926 0.0524,-0.70911 0.0524,-0.70909 0.0765,-0.3378 0.0765,-0.33778 0.0553,-0.15299 0.0553,-0.15301 0.048,-0.21496 0.048,-0.21497 0.13066,-0.24369 0.13065,-0.24369 0.19734,-0.24192 0.19733,-0.24194 0.0362,-0.03 0.0362,-0.0299 0.14473,-0.32878 0.14471,-0.32878 0.002,-0.072 0.002,-0.072 0.27713,-0.36031 0.27714,-0.36032 0.36998,-0.32048 0.36996,-0.32047 0.12902,-0.0524 0.12899,-0.0524 0.0942,-0.0557 0.0942,-0.0558 0.37274,-0.15113 0.37271,-0.15113 0.0549,-0.0731 0.0549,-0.0731 0.0294,0.078 0.0294,0.078 0.0671,0.002 0.0671,0.002 0.10808,-0.0928 0.10809,-0.0928 0.4455,0.0107 0.44549,0.0107 0.0287,0.0304 0.0287,0.0303 0.19103,-0.0493 0.19104,-0.0495 0.25168,0.0702 0.25168,0.0702 0.30788,0.0387 0.30788,0.0387 0.0571,0.0599 0.0573,0.0609 0.13995,0.004 0.14007,0.004 -0.0351,0.0846 -0.0351,0.0846 0.23432,0.0461 0.2343,0.0462 0.13799,0.0219 0.13797,0.0219 0.0405,0.0427 0.0405,0.0427 0.11325,0.003 0.11314,0.003 -0.002,0.0617 -0.002,0.0618 0.0953,0.003 0.0954,0.003 0.16239,0.15873 0.1624,0.15872 0.11179,0.003 0.11167,0.003 0.17967,0.0991 0.17967,0.099 -0.002,0.061 -0.002,0.0609 0.36099,0.36885 0.36098,0.36886 -0.002,0.0708 -0.002,0.0708 0.11793,0.20538 0.11793,0.20538 0.001,-0.0508 10e-4,-0.0508 0.0822,0.0867 0.0823,0.0867 0.0392,0.13611 0.0392,0.13611 0.26678,0.28119 0.26678,0.28121 -0.002,0.0601 -0.002,0.0601 0.18046,0.20316 0.18,0.20315 -0.002,0.0827 -0.002,0.0826 0.10906,0.0836 0.10905,0.0836 0.0967,0.149 0.0967,0.149 -0.13828,0.13979 -0.13827,0.13978 -0.33975,-0.002 -0.33973,-0.002 -0.90611,-0.0534 -0.90611,-0.0535 -0.067,0.0767 -0.067,0.0767 -0.0828,0.64079 -0.0829,0.64077 -0.0772,0.33776 -0.0772,0.33776 -0.0641,0.0791 -0.0641,0.0791 -0.24443,-0.0479 -0.24443,-0.0479 -0.19007,-0.0853 -0.19007,-0.0853 -0.32524,0.006 -0.32523,0.006 -0.0674,0.0639 -0.0674,0.0639 0.0339,0.34522 0.0339,0.34521 0.0721,0.10436 0.0721,0.10436 0.20616,-0.0999 0.20615,-0.0998 0.13067,0.0425 0.13068,0.0424 0.23548,0.0377 0.2355,0.0377 0.1537,0.0632 0.15369,0.0632 -0.0494,0.3224 -0.0494,0.32241 -0.1,0.44269 -0.1,0.44267 -0.006,0.242 -0.006,0.24198 0.0756,0.0628 0.0755,0.0628 0.30776,0.0435 0.30776,0.0435 0.18455,0.0991 0.18454,0.0991 0.21343,0.0378 0.21343,0.0378 0.33692,0.1095 0.33691,0.1095 0.32241,0.0735 0.32243,0.0735 -0.001,0.0526 -10e-4,0.0526 0.15617,-0.0349 0.15617,-0.0349 0.0809,0.0707 0.0809,0.0707 0.70226,0.0761 0.70228,0.0761 0.12237,0.0451 0.12239,0.045 0.25862,0.12369 0.25866,0.12367 0.18224,0.005 0.18225,0.005 0.0317,0.0545 0.0318,0.0544 0.24534,0.046 0.24534,0.046 0.0627,0.1248 0.0625,0.12479 0.11301,0.003 0.11301,0.003 0.14436,0.11359 0.14434,0.11359 0.16752,0.0904 0.16752,0.0904 -0.003,0.113 -0.003,0.11302 0.0618,0.002 0.0617,0.002 -0.002,0.0806 -0.002,0.0804 0.21602,0.21859 0.21603,0.21857 0.0971,0.2188 0.0971,0.21879 0.13884,0.0235 0.13882,0.0235 0.0872,0.18018 0.0872,0.18018 -0.003,0.11996 -0.003,0.11997 0.0923,0.0381 0.0923,0.0381 0.0389,-0.0128 0.0389,-0.0128 0.0508,0.14931 0.0508,0.14929 -0.0377,0.10856 -0.0377,0.10855 0.16594,0.3029 0.16595,0.30291 0.10423,0.18809 0.10423,0.18807 0.12636,0.2659 0.12636,0.2659 0.084,0.002 0.084,0.002 -0.0407,0.062 -0.0406,0.0619 0.0649,0.21577 0.065,0.21577 0.1472,0.1222 0.14722,0.12223 -0.0406,0.0979 -0.0406,0.0979 0.0927,0.002 0.0927,0.002 0.0866,0.23394 0.0866,0.23397 -0.0649,0.0382 -0.0649,0.0382 0.12224,0.18158 0.12224,0.18158 0.0392,0.24438 0.0393,0.24437 0.13423,0.28573 0.13422,0.28574 0.0571,0.43148 0.057,0.43147 0.0856,0.13908 0.0856,0.13909 -0.003,0.12477 -0.003,0.12474 0.062,0.296 0.062,0.29597 0.13812,0.31342 0.13811,0.31343 -0.003,0.1226 -0.003,0.12261 0.0958,0.18785 0.0958,0.18786 0.001,0.52519 0.001,0.52516 0.0604,0.71207 0.0604,0.71208 0.007,0.2473 0.008,0.24733 0.0286,0.40234 0.0286,0.40233 0.0207,0.15499 0.0207,0.155 0.0611,0.34138 0.0611,0.34142 -0.0152,0.31262 -0.0152,0.31259 0.11057,0.46217 0.11056,0.46216 0.0265,0.40009 0.0265,0.4001 0.0617,0.0403 0.0617,0.0403 -0.0163,0.0557 -0.0163,0.0557 0.0403,0.34087 0.0403,0.34085 0.0579,0.0758 0.0579,0.0758 -0.04,0.11545 -0.0401,0.11546 0.12239,0.29761 0.1224,0.29763 -0.0163,0.54486 -0.0163,0.54489 0.12117,0.16262 0.1211,0.16263 -0.057,0.15666 -0.057,0.15667 0.057,0.66131 0.057,0.66132 -0.045,0.33863 -0.045,0.33861 0.01,0.0929 0.01,0.0929 -0.01,1.1118 -0.01,1.11183 -0.065,0.1373 -0.0646,0.13732 -0.058,-0.002 -0.0584,-0.002 -0.23538,-0.19674 -0.2354,-0.19674 0.002,-0.0625 0.002,-0.0625 -0.1093,-0.16688 -0.1093,-0.16685 -0.0858,-0.31116 -0.0859,-0.31118 -0.0956,-0.35082 -0.0956,-0.35084 -0.071,-0.1004 -0.071,-0.1004 -0.15641,0.0738 -0.15639,0.0738 -0.0452,0.27507 -0.0451,0.27507 0.0542,0.0372 0.0542,0.0371 0.0145,0.33536 0.0145,0.33532 0.0303,0.20522 0.0303,0.2052 0.0866,0.0912 0.0866,0.0912 0.0291,0.32516 0.0291,0.32514 -0.0332,0.13839 -0.0335,0.13834 -0.0396,0.0605 -0.0396,0.0605 -0.197,-0.006 -0.197,-0.006 -0.35692,-0.30213 -0.35693,-0.30214 -0.27612,-0.29287 -0.27611,-0.2929 -0.0954,-0.27292 -0.0954,-0.27292 -0.14888,-0.42375 -0.14888,-0.42376 0.006,-0.21394 0.006,-0.21395 -0.10734,-0.26471 -0.10735,-0.26474 -0.0948,-0.43494 -0.0948,-0.43497 -0.14166,-0.32425 -0.14166,-0.32424 0.003,-0.11496 0.003,-0.11496 -0.0532,-0.0601 -0.0532,-0.0601 -0.0844,-0.48899 -0.0844,-0.489 -0.0845,-0.10236 -0.0845,-0.10236 -0.0701,-0.41944 -0.0701,-0.41944 -0.0532,0.0764 -0.0532,0.0764 0.0464,-0.26032 0.0464,-0.26032 -0.0993,-0.0411 -0.0993,-0.0411 0.003,-0.13232 0.003,-0.13234 -0.0911,-0.2804 -0.0911,-0.28043 -0.22388,-0.87081 -0.22386,-0.87082 -0.0376,-0.24811 -0.0376,-0.24811 -0.0635,-0.12524 -0.0635,-0.12523 -0.0346,-0.43275 -0.0347,-0.43276 -0.16358,-0.49323 -0.16359,-0.49324 0.004,-0.14121 0.004,-0.14119 -0.0529,-0.0346 -0.0529,-0.0346 -0.0439,-0.20324 -0.0439,-0.20322 -0.0108,-0.17299 -0.0108,-0.17298 -0.0939,-0.15196 -0.0939,-0.15194 0.003,-0.11459 0.003,-0.11326 -0.0533,-0.0601 -0.0534,-0.0601 -0.12621,-0.43579 -0.12618,-0.43577 -0.0804,-0.19682 -0.0802,-0.19678 0.003,-0.0951 0.003,-0.0951 -0.0529,-0.0346 -0.0527,-0.0346 -0.0319,-0.24005 -0.0319,-0.24004 -0.11228,-0.15124 -0.11229,-0.15126 -0.0404,-0.21731 -0.0404,-0.21728 -0.1098,-0.24618 -0.10978,-0.24616 0.003,-0.11253 0.003,-0.11276 -0.0502,-0.10855 -0.0502,-0.10867 -0.0886,-0.18768 -0.0886,-0.18767 -0.0376,-0.24598 -0.0377,-0.24598 -0.0818,-0.15874 -0.0819,-0.15874 -0.15323,-0.17978 -0.15326,-0.17978 -0.0921,0.0726 -0.0921,0.0726 -0.11768,-0.0341 -0.11769,-0.0341 -0.0357,0.123 -0.0357,0.12299 0.0395,0.93565 0.0394,0.93564 0.0321,0.0936 0.0322,0.0936 -0.0112,0.046 -0.0112,0.0459 0.0617,0.002 0.0617,0.002 -0.005,0.18718 -0.005,0.18715 0.10885,0.35617 0.10885,0.35614 0.0642,0.37239 0.0642,0.37237 0.044,0.27916 0.044,0.27918 0.11343,0.62079 0.11346,0.62079 0.10583,0.46615 0.10584,0.46613 0.0593,0.34136 0.0593,0.34135 0.0908,0.43485 0.0908,0.43485 -0.011,0.1533 -0.011,0.15331 0.0515,0.10272 0.0515,0.10272 0.0271,0.48712 0.0271,0.48712 0.0263,0.0472 0.0263,0.0472 -0.0139,0.50095 -0.0139,0.50095 0.0818,0.35009 0.0818,0.35008 -0.0398,0.27697 -0.0397,0.27699 0.0567,-0.12207 0.0567,-0.12209 -0.008,0.3087 -0.008,0.30872 0.0555,0.34124 0.0556,0.34127 0.0325,0.2955 0.0325,0.2955 0.0459,-0.0268 0.0458,-0.0268 -9.8e-4,0.22754 -9.8e-4,0.22751 -0.0149,0.83365 -0.0149,0.83365 -0.0474,0.35204 -0.0474,0.35205 0.0959,0.25914 0.0959,0.25912 0.0237,0.50278 0.0237,0.50279 0.0525,0.10947 0.0525,0.10946 -0.0612,-0.002 -0.0612,-0.002 0.0832,0.25709 0.0832,0.25706 -0.005,0.1738 -0.005,0.17383 0.0649,0.0425 0.0648,0.0425 -0.0339,0.0819 -0.0339,0.082 0.0603,0.20593 0.0603,0.20591 0.008,0.40177 0.008,0.4018 0.0284,0.27876 0.0284,0.27876 0.0879,0.3421 0.0879,0.34211 -0.0369,0.37599 -0.0369,0.37595 0.0561,0.10663 0.0561,0.1065 -0.0667,0.0763 -0.0667,0.0763 -0.0228,0.67491 -0.0228,0.67493 -0.001,0.30515 -0.001,0.30512 0.0411,0.0666 0.0411,0.0666 -0.0141,0.802799 -0.0141,0.80276 0.0231,0.34041 0.023,0.3404 0.0305,0.46281 0.0305,0.46284 0.0459,0.0952 0.0459,0.0952 -0.0226,0.12141 -0.0226,0.1214 0.0721,0.0472 0.0721,0.0472 -0.0724,0.0687 -0.0724,0.0687 0.048,0.18565 0.0479,0.18562 -0.009,0.71444 -0.009,0.71441 0.0589,0.62535 0.0589,0.62535 -0.0317,0.86409 -0.0317,0.86413 0.0421,0.13264 0.0422,0.13268 0.0209,0.7957 0.0209,0.7957 -0.0106,0.3642 -0.0106,0.36419 0.0585,0.1622 0.0584,0.16222 0.008,0.64889 0.008,0.64893 0.0557,0.43392 0.0557,0.43393 0.0523,0.14329 0.0524,0.1433 -0.01,0.36535 -0.01,0.36537 0.0881,0.28374 0.0881,0.28374 -0.0303,0.0461 -0.0303,0.0461 -0.0269,0.42988 -0.0269,0.4299 0.0879,0.004 0.0879,0.004 -0.0295,0.47149 -0.0295,0.47153 0.21242,0.0764 0.2124,0.0764 0.15529,-0.0961 0.15529,-0.096 0.2355,0.049 0.23549,0.049 0.0607,0.039 0.0607,0.0388 0.52467,0.0178 0.5247,0.0168 0.35923,0.14511 0.35925,0.14509 0.14238,0.16198 0.14236,0.16195 -0.002,0.0873 -0.002,0.0872 -0.13104,0.0658 -0.13103,0.0658 -0.78406,-0.0591 -0.78404,-0.0593 -0.10553,0.0374 -0.1054,0.0374 -0.008,0.29843 -0.008,0.29844 0.0759,0.0516 0.0759,0.0516 0.2757,0.0882 0.27569,0.0882 0.27595,0.0779 0.27598,0.0779 0.0298,0.0413 0.0298,0.0412 0.21891,0.10993 0.21889,0.10993 0.13258,0.18957 0.13257,0.18956 -0.0575,0.15875 -0.0575,0.15872 -0.17411,0.014 -0.17412,0.014 -0.0397,0.0377 -0.0397,0.0378 -0.15409,-0.0424 -0.1541,-0.0424 -0.0922,-0.021 z m -10.71542,-61.439199 0.14618,-0.13869 0.0516,-0.24042 0.0516,-0.24042 -0.13278,-0.11342 -0.13278,-0.11339 -0.1012,-0.002 -0.10119,-0.002 -0.1499,0.0724 -0.1499,0.0724 -0.0943,0.33417 -0.0944,0.33419 0.0287,0.0811 0.0287,0.0811 0.25172,0.007 0.25168,0.007 z m -0.27048,61.016859 0.003,-0.0962 0.0608,0.0397 0.0607,0.0397 -0.002,0.0581 -0.002,0.0581 -0.0617,-0.002 -0.0618,-0.002 z m 0.49625,-0.076 0.002,-0.0617 0.0272,7.2e-4 0.0273,7.2e-4 0.0366,0.0627 0.0366,0.0629 -0.0655,-0.002 -0.0655,-0.002 z m -6.3436,-0.7538 8.1e-4,-0.0309 0.0309,8.1e-4 0.0309,8.1e-4 -8.1e-4,0.0309 -8.1e-4,0.0309 -0.0309,-8.1e-4 -0.0309,-8.1e-4 z m 6.7991,-21.259159 8.1e-4,-0.0309 0.0309,8.1e-4 0.0309,8.1e-4 -8.1e-4,0.0309 -8.2e-4,0.0309 -0.0309,-8.1e-4 -0.0309,-8.1e-4 z m 5.57709,-18.64499 0.0422,-0.04 -0.002,0.0823 -0.002,0.0823 -0.04,-0.0422 -0.04,-0.0422 z m -14.76815,-0.68709 8.1e-4,-0.0309 0.0309,8.1e-4 0.0309,8.2e-4 -8.1e-4,0.0309 -8.2e-4,0.0309 -0.0309,-8.2e-4 -0.0309,-8.1e-4 z m -5.54183,-0.70181 8.1e-4,-0.0309 0.031,8.1e-4 0.031,8.2e-4 -8.1e-4,0.0309 -8.2e-4,0.0309 -0.031,-8.2e-4 -0.031,-8.1e-4 z m 23.32394,-8.28285 8.1e-4,-0.0309 0.0309,8.1e-4 0.0309,8.1e-4 -8.1e-4,0.0309 -8.1e-4,0.0309 -0.0309,-8.1e-4 -0.0309,-8.1e-4 z m -4.46798,-8.6433 8.1e-4,-0.0309 0.0309,8.1e-4 0.0309,8.1e-4 -8.1e-4,0.0309 -8.1e-4,0.0309 -0.0309,-8.1e-4 -0.0309,-8.1e-4 z m -7.63221,-5.14968 0.0384,-0.0363 0.0802,0.0345 0.0802,0.0346 -0.11851,0.002 -0.11851,0.002 z"
       id="path882-6-0-1-4-6-9-6-5" />
    <text
       xml:space="preserve"
       id="text111-6-5-3-4-3-9-6"
       style="font-style:normal;font-variant:normal;font-weight:900;font-stretch:normal;font-size:4.23333px;font-family:Paysage;-inkscape-font-specification:'Paysage Heavy';letter-spacing:-0.0582083px;word-spacing:0.00264583px;white-space:pre;display:inline;fill:#12354e;fill-opacity:1;stroke:#000000;stroke-width:2;stroke-linecap:square;stroke-linejoin:bevel;paint-order:markers fill stroke;stop-color:#000000"
       x="170.0278"
       y="21.237329"><tspan
         id="tspan10929-4-1-9-1-3-29"
         style="font-style:normal;font-variant:normal;font-weight:900;font-stretch:normal;font-size:4.23333px;font-family:Paysage;-inkscape-font-specification:'Paysage Heavy';fill:#12354e;fill-opacity:1;stroke:none">LÉON LENCLOS</tspan></text>
    <text
       xml:space="preserve"
       id="text111-5-1-7-4-5-9-7-1"
       style="font-style:normal;font-variant:normal;font-weight:900;font-stretch:normal;font-size:4.23333px;line-height:1;font-family:Paysage;-inkscape-font-specification:'Paysage Heavy';letter-spacing:-0.0413739px;word-spacing:0.00188063px;white-space:pre;display:inline;fill:#12354e;fill-opacity:1;stroke:none;stroke-width:2;stroke-linecap:square;stroke-linejoin:bevel;paint-order:markers fill stroke;stop-color:#000000"
       x="156.69458"
       y="158.21707">LES CONFÉRENCES DE POCHE</text>
    <text
       xml:space="preserve"
       transform="matrix(0,-0.26458333,0.26458333,0,521.74986,1012.5977)"
       id="text12991-5-2-0-7-5-7"
       style="font-style:normal;font-variant:normal;font-weight:900;font-stretch:normal;font-size:16px;font-family:Paysage;-inkscape-font-specification:'Paysage Heavy';text-align:justify;writing-mode:lr-tb;white-space:pre;shape-inside:url(#rect12993-4-7-0-9-5-3);display:inline;fill:#12354e;fill-opacity:1;stroke:none;stroke-width:2.1052;stroke-linecap:square;stroke-linejoin:miter;stroke-dasharray:none;stroke-opacity:1;paint-order:markers fill stroke;stop-color:#000000"
       x="0"
       y="0"><tspan
         x="3227.6992"
         y="-1508.1012"
         id="tspan2684"><tspan
           style="font-weight:500;-inkscape-font-specification:'Paysage Medium'"
           id="tspan2682">LÉON LENCLOS </tspan></tspan></text>
    <text
       xml:space="preserve"
       transform="matrix(0,-0.26458333,0.26458333,0,521.74562,926.48568)"
       id="text12991-5-4-0-4-8-2-0"
       style="font-style:normal;font-variant:normal;font-weight:900;font-stretch:normal;font-size:16px;font-family:Paysage;-inkscape-font-specification:'Paysage Heavy';text-align:justify;writing-mode:lr-tb;white-space:pre;shape-inside:url(#rect12993-4-5-8-6-7-4-6);display:inline;fill:#12354e;fill-opacity:1;stroke:none;stroke-width:2.1052;stroke-linecap:square;stroke-linejoin:miter;stroke-dasharray:none;stroke-opacity:1;paint-order:markers fill stroke;stop-color:#000000"
       x="0"
       y="0"><tspan
         x="3227.6992"
         y="-1508.1012"
         id="tspan2686">LES CONFÉRENCES DE POCHE </tspan></text>
    <g
       id="g1365"
       transform="translate(-1.6683254,0.12601309)">
      <text
         xml:space="preserve"
         transform="matrix(0.26458333,0,0,0.26458333,-839.92211,546.2225)"
         id="text12991-9-7-4-5-9"
         style="font-style:normal;font-variant:normal;font-weight:900;font-stretch:normal;font-size:16px;font-family:Paysage;-inkscape-font-specification:'Paysage Heavy';text-align:justify;writing-mode:lr-tb;white-space:pre;shape-inside:url(#rect12993-30-8-36-7-7);display:inline;fill:#12354e;fill-opacity:1;stroke:none;stroke-width:2.1052;stroke-linecap:square;stroke-linejoin:miter;stroke-dasharray:none;stroke-opacity:1;paint-order:markers fill stroke;stop-color:#000000"
         x="0"
         y="0"><tspan
           x="3227.6992"
           y="-1508.1012"
           id="tspan2688">PRIX : 10,50 €
</tspan><tspan
           x="3227.6992"
           y="-1488.1012"
           id="tspan2690">ISBN : 979-1-04-263630-2
</tspan><tspan
           x="3227.6992"
           y="-1468.1012"
           id="tspan2692">CODE BARRE :
</tspan></text>
      <g
         id="g1809-6-4-1-5-4-3"
         transform="matrix(1.1626273,0,0,1.1626273,-563.47261,806.29082)"
         style="fill:#4f4086;fill-opacity:1;stroke-width:0.860121">
        <g
           id="g2282-7-0-7-6"
           transform="matrix(1.0219727,0,0,0.40301882,61.942344,-339.42137)"
           style="fill:#4f4086;fill-opacity:1;stroke-width:1.34022">
          <g
             id="g879-1-7-2-3-4-0"
             transform="matrix(0.41544782,0,0,0.13625797,309.56512,-469.70033)"
             style="fill:#4f4086;fill-opacity:1;stroke-width:5.63299">
            <path
               style="color:#000000;fill:#12354e;fill-opacity:1;stroke-width:4.47118;-inkscape-stroke:none"
               d="m 334.52277,-523.98309 v -57.41458 m 1.5875,57.41458 v -57.41458 m 7.9375,53.18125 v -53.18125 m 14.2875,53.18125 v -53.18125 m 5.55625,53.18125 v -53.18125 m 2.38125,53.18125 v -53.18125 m 4.7625,57.41458 v -57.41458 m 1.5875,57.41458 v -57.41458 m 1.5875,53.18125 v -53.18125 m 1.5875,53.18125 v -53.18125 m 3.96875,53.18125 v -53.18125 m 3.96875,53.18125 v -53.18125 m 1.5875,53.18125 v -53.18125 m 1.5875,53.18125 v -53.18125 m 3.96875,53.18125 v -53.18125 m 3.96875,53.18125 v -53.18125 m 5.55625,53.18125 v -53.18125 m 7.14375,57.41458 v -57.41458 m 1.5875,57.41458 v -57.41458"
               id="path812-8-8-7-6-4-6" />
            <path
               style="color:#000000;fill:#12354e;fill-opacity:1;stroke-width:5.63299;-inkscape-stroke:none"
               d="m 334.125,-581.39844 v 53.01997 h 0.79492 v -53.01997 z m 1.58789,0 v 53.01997 h 0.79492 v -53.01997 z m 7.9375,0 v 53.18164 h 0.79492 v -53.18164 z m 14.28711,0 v 53.18164 h 0.79492 v -53.18164 z m 5.55664,0 v 53.18164 h 0.79492 v -53.18164 z m 2.38086,0 v 53.18164 h 0.79492 v -53.18164 z m 4.76367,0 v 53.01997 h 0.79297 v -53.01997 z m 1.58789,0 v 53.01997 h 0.79297 v -53.01997 z m 1.58594,0 v 53.18164 h 0.79492 v -53.18164 z m 1.58789,0 v 53.18164 h 0.79492 v -53.18164 z m 3.96875,0 v 53.18164 h 0.79492 v -53.18164 z m 3.96875,0 v 53.18164 h 0.79492 v -53.18164 z m 1.58789,0 v 53.18164 h 0.79297 v -53.18164 z m 1.58789,0 v 53.18164 h 0.79297 v -53.18164 z m 3.96875,0 v 53.18164 h 0.79297 v -53.18164 z m 3.96875,0 v 53.18164 h 0.79297 v -53.18164 z m 5.55664,0 v 53.18164 h 0.79297 v -53.18164 z m 7.14258,0 v 53.01997 h 0.79492 v -53.01997 z m 1.58789,0 v 53.01997 h 0.79297 v -53.01997 z"
               id="path814-7-4-2-1-3-2"
               sodipodi:nodetypes="ccccccccccccccccccccccccccccccccccccccccccccccccccccccccccccccccccccccccccccccccccccccccccccccc" />
            <path
               style="color:#000000;fill:#12354e;fill-opacity:1;stroke-width:13.4135;-inkscape-stroke:none"
               d="m 338.49152,-528.21642 v -53.18125 m 7.9375,53.18125 v -53.18125 m 15.08125,53.18125 v -53.18125 m 35.71875,53.18125 v -53.18125"
               id="path818-9-5-2-0-0-6" />
            <path
               style="color:#000000;fill:#12354e;fill-opacity:1;stroke-width:5.63299;-inkscape-stroke:none"
               d="m 337.30078,-581.39844 v 53.18164 h 2.38086 v -53.18164 z m 7.9375,0 v 53.18164 h 2.38086 v -53.18164 z m 15.08203,0 v 53.18164 h 2.38086 v -53.18164 z m 35.71875,0 v 53.18164 h 2.38086 v -53.18164 z"
               id="path820-2-0-6-6-7-1" />
            <path
               style="color:#000000;fill:#12354e;fill-opacity:1;stroke-width:8.94236;-inkscape-stroke:none"
               d="m 341.26965,-528.21642 v -53.18125 m 7.9375,53.18125 v -53.18125 m 3.175,53.18125 v -53.18125 m 3.96875,53.18125 v -53.18125 m 12.7,53.18125 v -53.18125 m 33.3375,53.18125 v -53.18125 m 2.38125,53.18125 v -53.18125"
               id="path824-0-3-1-3-8-8" />
            <path
               style="color:#000000;fill:#12354e;fill-opacity:1;stroke-width:5.63299;-inkscape-stroke:none"
               d="m 340.47656,-581.39844 v 53.18164 h 1.58594 v -53.18164 z m 7.9375,0 v 53.18164 H 350 v -53.18164 z m 3.17383,0 v 53.18164 h 1.58789 v -53.18164 z m 3.96875,0 v 53.18164 h 1.58789 v -53.18164 z m 12.70117,0 v 53.18164 h 1.58594 v -53.18164 z m 33.33594,0 v 53.18164 h 1.58789 v -53.18164 z m 2.38281,0 v 53.18164 h 1.58594 v -53.18164 z"
               id="path826-2-6-0-2-6-7" />
          </g>
        </g>
      </g>
    </g>
    <text
       xml:space="preserve"
       transform="matrix(0.26458333,0,0,0.26458333,-841.80634,420.26847)"
       id="text125751-0-8-9"
       style="font-style:normal;font-variant:normal;font-weight:900;font-stretch:normal;font-size:16px;font-family:Paysage;-inkscape-font-specification:'Paysage Heavy';text-align:justify;writing-mode:lr-tb;white-space:pre;shape-inside:url(#rect125753-1-6-5);display:inline;fill:#12354e;fill-opacity:1;stroke:none;stroke-width:2.1052;stroke-linecap:square;stroke-linejoin:miter;stroke-dasharray:none;stroke-opacity:1;paint-order:markers fill stroke;stop-color:#000000"
       x="0"
       y="0"><tspan
         x="3227.6992"
         y="-1508.1012"
         id="tspan2696"><tspan
           dx="0 0 0 6.55863 0 0 0 0 0 0 0 0 0 6.5586319 0 0 0 6.5586243 0 0 0 0 0 0 0 0 0 0 0 6.5586395 0 0 6.5586243"
           style="font-weight:500;-inkscape-font-specification:'Paysage Medium'"
           id="tspan2694">LE SPECTACLE LES CONFÉRENCES DE POCHE </tspan></tspan><tspan
         x="3227.6992"
         y="-1488.1012"
         id="tspan2700"><tspan
           dx="0 0 0 3.4596043 0 0 0 0 3.4596024 0 0 0 0 0 0 0 3.45961 0 0 0 0 3.4595947 0 0 0 0 3.45961 0 0 3.4595947 0 0 0 0 0 3.4595947"
           style="font-weight:500;-inkscape-font-specification:'Paysage Medium'"
           id="tspan2698">DE LÉON LENCLOS MAIS SOUS LA FORME D'UN </tspan></tspan><tspan
         x="3227.6992"
         y="-1468.1012"
         id="tspan2704"><tspan
           dx="0 0 0 0 0 0 2.6042137 0 0 0 0 0 0 0 0 0 2.6042023 0 0 0 2.6042175 0 0 0 0 0 0 2.6042175 0 0 2.6042023 0 0 0 2.6042175"
           style="font-weight:500;-inkscape-font-specification:'Paysage Medium'"
           id="tspan2702">LIVRE CONTENANT LES TEXTES ET LES DESSINS </tspan></tspan><tspan
         x="3227.6992"
         y="-1448.1012"
         id="tspan2708"><tspan
           dx="0 0 0 7.0770321 0 0 0 7.077034 0 0 0 0 0 7.0770264 0 0 7.0770416 0 0 0 0 0 0 0 0 7.0770264"
           style="font-weight:500;-inkscape-font-specification:'Paysage Medium'"
           id="tspan2706">DE PAS MOINS DE QUATORZE CONFÉRENCES </tspan></tspan><tspan
         x="3227.6992"
         y="-1428.1012"
         id="tspan2712"><tspan
           style="font-weight:500;-inkscape-font-specification:'Paysage Medium'"
           id="tspan2710">DIFFÉRENTES
</tspan></tspan></text>
    <text
       xml:space="preserve"
       transform="scale(0.26458333)"
       id="text130210"
       style="font-style:normal;font-variant:normal;font-weight:500;font-stretch:normal;font-size:32px;font-family:Paysage;-inkscape-font-specification:'Paysage Medium';text-align:justify;white-space:pre;shape-inside:url(#rect130212);display:inline;fill:#ffffff;fill-opacity:1;stroke:#12354e;stroke-width:0;stroke-linecap:square;stroke-linejoin:miter;stroke-dasharray:none;stroke-opacity:1;paint-order:markers fill stroke;stop-color:#000000" />
  </g>
</svg>
